<?xml version="1.0" encoding="utf-8" standalone="no"?>
<!DOCTYPE svg PUBLIC "-//W3C//DTD SVG 1.1//EN"
  "http://www.w3.org/Graphics/SVG/1.1/DTD/svg11.dtd">
<svg xmlns:xlink="http://www.w3.org/1999/xlink" width="288pt" height="576pt" viewBox="0 0 288 576" xmlns="http://www.w3.org/2000/svg" version="1.1">
 <metadata>
  <rdf:RDF xmlns:dc="http://purl.org/dc/elements/1.1/" xmlns:cc="http://creativecommons.org/ns#" xmlns:rdf="http://www.w3.org/1999/02/22-rdf-syntax-ns#">
   <cc:Work>
    <dc:type rdf:resource="http://purl.org/dc/dcmitype/StillImage"/>
    <dc:date>2022-08-27T14:30:36.969088</dc:date>
    <dc:format>image/svg+xml</dc:format>
    <dc:creator>
     <cc:Agent>
      <dc:title>Matplotlib v3.5.2, https://matplotlib.org/</dc:title>
     </cc:Agent>
    </dc:creator>
   </cc:Work>
  </rdf:RDF>
 </metadata>
 <defs>
  <style type="text/css">*{stroke-linejoin: round; stroke-linecap: butt}</style>
 </defs>
 <g id="figure_1">
  <g id="patch_1">
   <path d="M 0 576 
L 288 576 
L 288 0 
L 0 0 
L 0 576 
z
" style="fill: none"/>
  </g>
  <g id="axes_1">
   <g id="patch_2">
    <path d="M 53.629609 265.35 
L 273.916829 265.35 
L 273.916829 10.8 
L 53.629609 10.8 
z
" style="fill: #ffffff"/>
   </g>
   <g id="matplotlib.axis_1">
    <g id="xtick_1">
     <g id="line2d_1">
      <defs>
       <path id="m05cfb23e31" d="M 0 0 
L 0 3.5 
" style="stroke: #000000; stroke-width: 0.8"/>
      </defs>
      <g>
       <use xlink:href="#m05cfb23e31" x="63.642665" y="265.35" style="stroke: #000000; stroke-width: 0.8"/>
      </g>
     </g>
    </g>
    <g id="xtick_2">
     <g id="line2d_2">
      <g>
       <use xlink:href="#m05cfb23e31" x="97.131145" y="265.35" style="stroke: #000000; stroke-width: 0.8"/>
      </g>
     </g>
    </g>
    <g id="xtick_3">
     <g id="line2d_3">
      <g>
       <use xlink:href="#m05cfb23e31" x="130.619624" y="265.35" style="stroke: #000000; stroke-width: 0.8"/>
      </g>
     </g>
    </g>
    <g id="xtick_4">
     <g id="line2d_4">
      <g>
       <use xlink:href="#m05cfb23e31" x="164.108104" y="265.35" style="stroke: #000000; stroke-width: 0.8"/>
      </g>
     </g>
    </g>
    <g id="xtick_5">
     <g id="line2d_5">
      <g>
       <use xlink:href="#m05cfb23e31" x="197.596584" y="265.35" style="stroke: #000000; stroke-width: 0.8"/>
      </g>
     </g>
    </g>
    <g id="xtick_6">
     <g id="line2d_6">
      <g>
       <use xlink:href="#m05cfb23e31" x="231.085063" y="265.35" style="stroke: #000000; stroke-width: 0.8"/>
      </g>
     </g>
    </g>
    <g id="xtick_7">
     <g id="line2d_7">
      <g>
       <use xlink:href="#m05cfb23e31" x="264.573543" y="265.35" style="stroke: #000000; stroke-width: 0.8"/>
      </g>
     </g>
    </g>
   </g>
   <g id="matplotlib.axis_2">
    <g id="ytick_1">
     <g id="line2d_8">
      <defs>
       <path id="md92e257d74" d="M 0 0 
L -3.5 0 
" style="stroke: #000000; stroke-width: 0.8"/>
      </defs>
      <g>
       <use xlink:href="#md92e257d74" x="53.629609" y="151.05445" style="stroke: #000000; stroke-width: 0.8"/>
      </g>
     </g>
     <g id="text_1">
      <!-- $\mathdefault{10^{5}}$ -->
      <g transform="translate(29.029609 154.853669)scale(0.1 -0.1)">
       <defs>
        <path id="DejaVuSans-31" d="M 794 531 
L 1825 531 
L 1825 4091 
L 703 3866 
L 703 4441 
L 1819 4666 
L 2450 4666 
L 2450 531 
L 3481 531 
L 3481 0 
L 794 0 
L 794 531 
z
" transform="scale(0.015625)"/>
        <path id="DejaVuSans-30" d="M 2034 4250 
Q 1547 4250 1301 3770 
Q 1056 3291 1056 2328 
Q 1056 1369 1301 889 
Q 1547 409 2034 409 
Q 2525 409 2770 889 
Q 3016 1369 3016 2328 
Q 3016 3291 2770 3770 
Q 2525 4250 2034 4250 
z
M 2034 4750 
Q 2819 4750 3233 4129 
Q 3647 3509 3647 2328 
Q 3647 1150 3233 529 
Q 2819 -91 2034 -91 
Q 1250 -91 836 529 
Q 422 1150 422 2328 
Q 422 3509 836 4129 
Q 1250 4750 2034 4750 
z
" transform="scale(0.015625)"/>
        <path id="DejaVuSans-35" d="M 691 4666 
L 3169 4666 
L 3169 4134 
L 1269 4134 
L 1269 2991 
Q 1406 3038 1543 3061 
Q 1681 3084 1819 3084 
Q 2600 3084 3056 2656 
Q 3513 2228 3513 1497 
Q 3513 744 3044 326 
Q 2575 -91 1722 -91 
Q 1428 -91 1123 -41 
Q 819 9 494 109 
L 494 744 
Q 775 591 1075 516 
Q 1375 441 1709 441 
Q 2250 441 2565 725 
Q 2881 1009 2881 1497 
Q 2881 1984 2565 2268 
Q 2250 2553 1709 2553 
Q 1456 2553 1204 2497 
Q 953 2441 691 2322 
L 691 4666 
z
" transform="scale(0.015625)"/>
       </defs>
       <use xlink:href="#DejaVuSans-31" transform="translate(0 0.684375)"/>
       <use xlink:href="#DejaVuSans-30" transform="translate(63.623047 0.684375)"/>
       <use xlink:href="#DejaVuSans-35" transform="translate(128.203125 38.965625)scale(0.7)"/>
      </g>
     </g>
    </g>
    <g id="ytick_2">
     <g id="line2d_9">
      <g>
       <use xlink:href="#md92e257d74" x="53.629609" y="22.154904" style="stroke: #000000; stroke-width: 0.8"/>
      </g>
     </g>
     <g id="text_2">
      <!-- $\mathdefault{10^{6}}$ -->
      <g transform="translate(29.029609 25.954123)scale(0.1 -0.1)">
       <defs>
        <path id="DejaVuSans-36" d="M 2113 2584 
Q 1688 2584 1439 2293 
Q 1191 2003 1191 1497 
Q 1191 994 1439 701 
Q 1688 409 2113 409 
Q 2538 409 2786 701 
Q 3034 994 3034 1497 
Q 3034 2003 2786 2293 
Q 2538 2584 2113 2584 
z
M 3366 4563 
L 3366 3988 
Q 3128 4100 2886 4159 
Q 2644 4219 2406 4219 
Q 1781 4219 1451 3797 
Q 1122 3375 1075 2522 
Q 1259 2794 1537 2939 
Q 1816 3084 2150 3084 
Q 2853 3084 3261 2657 
Q 3669 2231 3669 1497 
Q 3669 778 3244 343 
Q 2819 -91 2113 -91 
Q 1303 -91 875 529 
Q 447 1150 447 2328 
Q 447 3434 972 4092 
Q 1497 4750 2381 4750 
Q 2619 4750 2861 4703 
Q 3103 4656 3366 4563 
z
" transform="scale(0.015625)"/>
       </defs>
       <use xlink:href="#DejaVuSans-31" transform="translate(0 0.765625)"/>
       <use xlink:href="#DejaVuSans-30" transform="translate(63.623047 0.765625)"/>
       <use xlink:href="#DejaVuSans-36" transform="translate(128.203125 39.046875)scale(0.7)"/>
      </g>
     </g>
    </g>
    <g id="ytick_3">
     <g id="line2d_10">
      <defs>
       <path id="m10ce1c1195" d="M 0 0 
L -2 0 
" style="stroke: #000000; stroke-width: 0.6"/>
      </defs>
      <g>
       <use xlink:href="#m10ce1c1195" x="53.629609" y="241.151366" style="stroke: #000000; stroke-width: 0.6"/>
      </g>
     </g>
    </g>
    <g id="ytick_4">
     <g id="line2d_11">
      <g>
       <use xlink:href="#m10ce1c1195" x="53.629609" y="218.453283" style="stroke: #000000; stroke-width: 0.6"/>
      </g>
     </g>
    </g>
    <g id="ytick_5">
     <g id="line2d_12">
      <g>
       <use xlink:href="#m10ce1c1195" x="53.629609" y="202.348736" style="stroke: #000000; stroke-width: 0.6"/>
      </g>
     </g>
    </g>
    <g id="ytick_6">
     <g id="line2d_13">
      <g>
       <use xlink:href="#m10ce1c1195" x="53.629609" y="189.85708" style="stroke: #000000; stroke-width: 0.6"/>
      </g>
     </g>
    </g>
    <g id="ytick_7">
     <g id="line2d_14">
      <g>
       <use xlink:href="#m10ce1c1195" x="53.629609" y="179.650653" style="stroke: #000000; stroke-width: 0.6"/>
      </g>
     </g>
    </g>
    <g id="ytick_8">
     <g id="line2d_15">
      <g>
       <use xlink:href="#m10ce1c1195" x="53.629609" y="171.021242" style="stroke: #000000; stroke-width: 0.6"/>
      </g>
     </g>
    </g>
    <g id="ytick_9">
     <g id="line2d_16">
      <g>
       <use xlink:href="#m10ce1c1195" x="53.629609" y="163.546107" style="stroke: #000000; stroke-width: 0.6"/>
      </g>
     </g>
    </g>
    <g id="ytick_10">
     <g id="line2d_17">
      <g>
       <use xlink:href="#m10ce1c1195" x="53.629609" y="156.95257" style="stroke: #000000; stroke-width: 0.6"/>
      </g>
     </g>
    </g>
    <g id="ytick_11">
     <g id="line2d_18">
      <g>
       <use xlink:href="#m10ce1c1195" x="53.629609" y="112.25182" style="stroke: #000000; stroke-width: 0.6"/>
      </g>
     </g>
    </g>
    <g id="ytick_12">
     <g id="line2d_19">
      <g>
       <use xlink:href="#m10ce1c1195" x="53.629609" y="89.553737" style="stroke: #000000; stroke-width: 0.6"/>
      </g>
     </g>
    </g>
    <g id="ytick_13">
     <g id="line2d_20">
      <g>
       <use xlink:href="#m10ce1c1195" x="53.629609" y="73.44919" style="stroke: #000000; stroke-width: 0.6"/>
      </g>
     </g>
    </g>
    <g id="ytick_14">
     <g id="line2d_21">
      <g>
       <use xlink:href="#m10ce1c1195" x="53.629609" y="60.957534" style="stroke: #000000; stroke-width: 0.6"/>
      </g>
     </g>
    </g>
    <g id="ytick_15">
     <g id="line2d_22">
      <g>
       <use xlink:href="#m10ce1c1195" x="53.629609" y="50.751107" style="stroke: #000000; stroke-width: 0.6"/>
      </g>
     </g>
    </g>
    <g id="ytick_16">
     <g id="line2d_23">
      <g>
       <use xlink:href="#m10ce1c1195" x="53.629609" y="42.121696" style="stroke: #000000; stroke-width: 0.6"/>
      </g>
     </g>
    </g>
    <g id="ytick_17">
     <g id="line2d_24">
      <g>
       <use xlink:href="#m10ce1c1195" x="53.629609" y="34.646561" style="stroke: #000000; stroke-width: 0.6"/>
      </g>
     </g>
    </g>
    <g id="ytick_18">
     <g id="line2d_25">
      <g>
       <use xlink:href="#m10ce1c1195" x="53.629609" y="28.053024" style="stroke: #000000; stroke-width: 0.6"/>
      </g>
     </g>
    </g>
    <g id="text_3">
     <!-- $\epsilon$ (arb. u.) -->
     <g transform="translate(22.949922 162.525)rotate(-90)scale(0.1 -0.1)">
      <defs>
       <path id="DejaVuSans-Oblique-3b5" d="M 1263 1888 
Q 925 1963 778 2166 
Q 669 2309 669 2503 
Q 669 3034 1175 3344 
Q 1575 3588 2188 3588 
Q 2425 3588 2684 3550 
Q 2944 3513 3234 3438 
L 3134 2916 
Q 2847 3006 2606 3047 
Q 2359 3088 2138 3088 
Q 1766 3088 1522 2944 
Q 1228 2772 1228 2522 
Q 1228 2356 1381 2241 
Q 1563 2103 1925 2103 
L 2409 2103 
L 2319 1628 
L 1856 1628 
Q 1425 1628 1172 1469 
Q 828 1253 828 916 
Q 828 703 1013 563 
Q 1244 388 1716 388 
Q 2006 388 2284 444 
Q 2563 503 2806 619 
L 2700 84 
Q 2403 -3 2131 -47 
Q 1859 -91 1609 -91 
Q 866 -91 516 194 
Q 250 413 250 781 
Q 250 1278 600 1584 
Q 859 1813 1263 1888 
z
" transform="scale(0.015625)"/>
       <path id="DejaVuSans-20" transform="scale(0.015625)"/>
       <path id="DejaVuSans-28" d="M 1984 4856 
Q 1566 4138 1362 3434 
Q 1159 2731 1159 2009 
Q 1159 1288 1364 580 
Q 1569 -128 1984 -844 
L 1484 -844 
Q 1016 -109 783 600 
Q 550 1309 550 2009 
Q 550 2706 781 3412 
Q 1013 4119 1484 4856 
L 1984 4856 
z
" transform="scale(0.015625)"/>
       <path id="DejaVuSans-61" d="M 2194 1759 
Q 1497 1759 1228 1600 
Q 959 1441 959 1056 
Q 959 750 1161 570 
Q 1363 391 1709 391 
Q 2188 391 2477 730 
Q 2766 1069 2766 1631 
L 2766 1759 
L 2194 1759 
z
M 3341 1997 
L 3341 0 
L 2766 0 
L 2766 531 
Q 2569 213 2275 61 
Q 1981 -91 1556 -91 
Q 1019 -91 701 211 
Q 384 513 384 1019 
Q 384 1609 779 1909 
Q 1175 2209 1959 2209 
L 2766 2209 
L 2766 2266 
Q 2766 2663 2505 2880 
Q 2244 3097 1772 3097 
Q 1472 3097 1187 3025 
Q 903 2953 641 2809 
L 641 3341 
Q 956 3463 1253 3523 
Q 1550 3584 1831 3584 
Q 2591 3584 2966 3190 
Q 3341 2797 3341 1997 
z
" transform="scale(0.015625)"/>
       <path id="DejaVuSans-72" d="M 2631 2963 
Q 2534 3019 2420 3045 
Q 2306 3072 2169 3072 
Q 1681 3072 1420 2755 
Q 1159 2438 1159 1844 
L 1159 0 
L 581 0 
L 581 3500 
L 1159 3500 
L 1159 2956 
Q 1341 3275 1631 3429 
Q 1922 3584 2338 3584 
Q 2397 3584 2469 3576 
Q 2541 3569 2628 3553 
L 2631 2963 
z
" transform="scale(0.015625)"/>
       <path id="DejaVuSans-62" d="M 3116 1747 
Q 3116 2381 2855 2742 
Q 2594 3103 2138 3103 
Q 1681 3103 1420 2742 
Q 1159 2381 1159 1747 
Q 1159 1113 1420 752 
Q 1681 391 2138 391 
Q 2594 391 2855 752 
Q 3116 1113 3116 1747 
z
M 1159 2969 
Q 1341 3281 1617 3432 
Q 1894 3584 2278 3584 
Q 2916 3584 3314 3078 
Q 3713 2572 3713 1747 
Q 3713 922 3314 415 
Q 2916 -91 2278 -91 
Q 1894 -91 1617 61 
Q 1341 213 1159 525 
L 1159 0 
L 581 0 
L 581 4863 
L 1159 4863 
L 1159 2969 
z
" transform="scale(0.015625)"/>
       <path id="DejaVuSans-2e" d="M 684 794 
L 1344 794 
L 1344 0 
L 684 0 
L 684 794 
z
" transform="scale(0.015625)"/>
       <path id="DejaVuSans-75" d="M 544 1381 
L 544 3500 
L 1119 3500 
L 1119 1403 
Q 1119 906 1312 657 
Q 1506 409 1894 409 
Q 2359 409 2629 706 
Q 2900 1003 2900 1516 
L 2900 3500 
L 3475 3500 
L 3475 0 
L 2900 0 
L 2900 538 
Q 2691 219 2414 64 
Q 2138 -91 1772 -91 
Q 1169 -91 856 284 
Q 544 659 544 1381 
z
M 1991 3584 
L 1991 3584 
z
" transform="scale(0.015625)"/>
       <path id="DejaVuSans-29" d="M 513 4856 
L 1013 4856 
Q 1481 4119 1714 3412 
Q 1947 2706 1947 2009 
Q 1947 1309 1714 600 
Q 1481 -109 1013 -844 
L 513 -844 
Q 928 -128 1133 580 
Q 1338 1288 1338 2009 
Q 1338 2731 1133 3434 
Q 928 4138 513 4856 
z
" transform="scale(0.015625)"/>
      </defs>
      <use xlink:href="#DejaVuSans-Oblique-3b5" transform="translate(0 0.015625)"/>
      <use xlink:href="#DejaVuSans-20" transform="translate(54.052734 0.015625)"/>
      <use xlink:href="#DejaVuSans-28" transform="translate(85.839844 0.015625)"/>
      <use xlink:href="#DejaVuSans-61" transform="translate(124.853516 0.015625)"/>
      <use xlink:href="#DejaVuSans-72" transform="translate(186.132812 0.015625)"/>
      <use xlink:href="#DejaVuSans-62" transform="translate(227.246094 0.015625)"/>
      <use xlink:href="#DejaVuSans-2e" transform="translate(290.722656 0.015625)"/>
      <use xlink:href="#DejaVuSans-20" transform="translate(322.509766 0.015625)"/>
      <use xlink:href="#DejaVuSans-75" transform="translate(354.296875 0.015625)"/>
      <use xlink:href="#DejaVuSans-2e" transform="translate(417.675781 0.015625)"/>
      <use xlink:href="#DejaVuSans-29" transform="translate(449.462891 0.015625)"/>
     </g>
    </g>
   </g>
   <g id="line2d_26">
    <path d="M 63.642665 251.329934 
L 64.312434 232.318148 
L 64.982204 232.028554 
L 65.651974 230.652391 
L 66.321743 217.989454 
L 66.991513 210.692245 
L 67.661282 207.198847 
L 68.331052 202.318393 
L 69.000822 204.393754 
L 69.670591 203.88752 
L 70.340361 204.339901 
L 71.01013 205.349435 
L 71.6799 204.297131 
L 72.34967 205.082932 
L 73.019439 204.589025 
L 73.689209 203.900233 
L 74.358978 206.02161 
L 75.698517 204.886722 
L 76.368287 205.990125 
L 77.038057 204.889851 
L 77.707826 204.711837 
L 78.377596 205.823007 
L 79.717135 205.516219 
L 80.386905 205.622064 
L 81.056674 205.443288 
L 81.726444 205.811392 
L 82.396213 205.708248 
L 83.065983 205.484832 
L 83.735753 205.993135 
L 85.075292 205.702803 
L 85.745061 205.91841 
L 88.42414 205.698612 
L 89.093909 205.950723 
L 89.763679 205.842899 
L 90.433449 205.860609 
L 91.772988 205.624933 
L 92.442757 205.853036 
L 93.782297 205.783868 
L 95.791605 205.813753 
L 98.470684 205.767652 
L 101.149762 205.764753 
L 103.82884 205.773063 
L 104.49861 204.401182 
L 105.16838 201.378311 
L 105.838149 207.086452 
L 106.507919 204.298405 
L 107.177688 204.470008 
L 107.847458 205.490701 
L 108.517228 204.987205 
L 109.186997 205.845913 
L 109.856767 205.582966 
L 110.526536 203.428092 
L 111.196306 207.012886 
L 111.866076 205.313028 
L 112.535845 202.992159 
L 113.205615 206.708554 
L 113.875384 202.447434 
L 114.545154 207.30817 
L 115.214924 203.988797 
L 115.884693 206.828085 
L 116.554463 204.419361 
L 117.224232 204.954527 
L 117.894002 206.058597 
L 118.563772 204.671113 
L 119.233541 205.855713 
L 119.903311 205.402646 
L 120.57308 205.314885 
L 121.24285 205.057329 
L 121.912619 205.563011 
L 122.582389 205.21971 
L 123.921928 205.309853 
L 125.261467 205.142222 
L 125.931237 205.721566 
L 126.601007 205.128311 
L 127.270776 205.296298 
L 127.940546 204.871113 
L 128.610315 205.749164 
L 129.280085 204.907308 
L 129.949855 204.972777 
L 130.619624 205.184648 
L 131.289394 205.061231 
L 131.959163 205.176971 
L 135.308011 205.064462 
L 138.656859 205.065816 
L 139.996399 205.070275 
L 142.675477 205.08842 
L 144.015016 205.068909 
L 144.684786 202.785706 
L 145.354555 206.348448 
L 146.024325 203.946441 
L 146.694094 206.543223 
L 147.363864 204.589281 
L 148.033634 205.171842 
L 148.703403 204.467095 
L 149.373173 207.093116 
L 150.042942 204.426146 
L 150.712712 205.957241 
L 151.382482 205.293981 
L 152.052251 205.745557 
L 152.722021 204.81416 
L 153.39179 205.803175 
L 154.06156 205.42132 
L 154.73133 204.11471 
L 155.401099 204.421619 
L 156.070869 206.097947 
L 156.740638 204.502478 
L 157.410408 204.715715 
L 158.080178 205.519996 
L 158.749947 204.957923 
L 159.419717 205.545406 
L 160.089486 205.906646 
L 160.759256 204.272486 
L 161.429026 205.367832 
L 162.098795 205.210607 
L 162.768565 205.48844 
L 163.438334 204.913179 
L 164.777873 205.57824 
L 166.117413 205.279739 
L 168.126721 205.315455 
L 168.796491 205.092881 
L 169.466261 205.971388 
L 170.13603 204.788058 
L 170.8058 205.359057 
L 171.475569 205.081032 
L 172.145339 205.514489 
L 172.815109 205.585011 
L 174.154648 205.307628 
L 174.824417 205.255325 
L 175.494187 205.360481 
L 177.503496 205.297421 
L 179.512805 205.3801 
L 181.522113 205.357187 
L 184.201192 205.381975 
L 184.870961 204.979933 
L 185.540731 202.493861 
L 186.2105 207.051563 
L 186.88027 203.166094 
L 187.55004 205.29416 
L 188.219809 209.353308 
L 188.889579 205.796314 
L 189.559348 203.106144 
L 190.229118 205.911534 
L 190.898888 206.234588 
L 191.568657 205.340328 
L 192.238427 204.139771 
L 192.908196 204.472143 
L 193.577966 206.300069 
L 194.247736 206.596614 
L 194.917505 203.073338 
L 195.587275 204.580548 
L 196.257044 205.498612 
L 196.926814 206.096357 
L 197.596584 205.577794 
L 198.266353 205.253459 
L 198.936123 206.68293 
L 199.605892 205.46679 
L 200.945432 205.354228 
L 201.615201 204.744756 
L 202.284971 206.314872 
L 202.95474 204.698449 
L 203.62451 205.461582 
L 204.29428 205.984571 
L 204.964049 205.409817 
L 205.633819 205.60042 
L 206.303588 205.52919 
L 206.973358 205.777311 
L 207.643128 205.118046 
L 208.312897 205.674531 
L 209.652436 205.675204 
L 210.322206 205.666044 
L 211.661745 206.04389 
L 212.331515 205.624041 
L 213.001284 205.745923 
L 214.340823 205.703732 
L 224.387367 205.752499 
L 225.057137 205.46053 
L 225.726907 205.815952 
L 226.396676 201.961909 
L 227.736215 207.115232 
L 228.405985 204.715196 
L 229.075755 204.15157 
L 229.745524 202.096133 
L 230.415294 206.677815 
L 231.754833 204.547947 
L 232.424602 206.402794 
L 233.094372 205.786914 
L 233.764142 206.867939 
L 234.433911 205.532489 
L 235.103681 205.007146 
L 235.77345 205.158567 
L 236.44322 206.741001 
L 237.11299 205.904159 
L 237.782759 205.958168 
L 238.452529 204.995005 
L 239.122298 204.363534 
L 239.792068 208.135607 
L 241.131607 204.843367 
L 241.801377 205.7417 
L 242.471146 205.749106 
L 243.140916 206.339947 
L 243.810686 205.661787 
L 244.480455 205.638463 
L 245.150225 205.433524 
L 245.819994 206.708129 
L 246.489764 206.078929 
L 247.159534 205.742711 
L 247.829303 206.30451 
L 248.499073 205.800437 
L 249.168842 205.747555 
L 249.838612 205.897909 
L 250.508382 205.774957 
L 251.178151 205.986309 
L 251.847921 205.903378 
L 252.51769 205.958827 
L 254.526999 205.858257 
L 259.885156 205.949318 
L 263.234004 205.878918 
L 263.903773 206.002565 
L 263.903773 206.002565 
" clip-path="url(#pdc6d5270ec)" style="fill: none; stroke: #1f77b4; stroke-width: 1.5; stroke-linecap: square"/>
   </g>
   <g id="line2d_27">
    <path d="M 63.642665 253.779545 
L 64.312434 233.287411 
L 64.982204 226.554842 
L 65.651974 237.996472 
L 66.321743 247.107774 
L 66.991513 243.845152 
L 67.661282 238.339994 
L 68.331052 228.021304 
L 69.000822 221.530408 
L 69.670591 221.756712 
L 71.01013 222.54204 
L 71.6799 224.489227 
L 72.34967 225.064471 
L 73.019439 224.156435 
L 73.689209 223.924206 
L 74.358978 224.34447 
L 75.698517 224.641567 
L 76.368287 224.72914 
L 77.038057 224.644531 
L 77.707826 224.722296 
L 78.377596 224.497298 
L 79.047365 224.622313 
L 79.717135 225.045468 
L 80.386905 224.688141 
L 81.056674 224.891723 
L 81.726444 224.909889 
L 82.396213 225.132982 
L 83.065983 225.153871 
L 83.735753 224.792968 
L 84.405522 224.738408 
L 85.075292 224.829208 
L 87.75437 224.731582 
L 88.42414 224.798291 
L 89.763679 224.768007 
L 90.433449 224.823233 
L 91.103218 224.679505 
L 93.112527 224.759742 
L 96.461375 224.757062 
L 103.82884 224.699484 
L 104.49861 223.930239 
L 105.16838 223.977854 
L 105.838149 224.97622 
L 106.507919 224.213323 
L 107.177688 225.741044 
L 107.847458 224.521456 
L 108.517228 225.281664 
L 109.186997 224.423814 
L 109.856767 223.851727 
L 111.196306 225.401017 
L 112.535845 224.011166 
L 113.205615 225.55643 
L 113.875384 223.826672 
L 114.545154 224.434665 
L 115.214924 224.53966 
L 115.884693 224.802124 
L 116.554463 224.560821 
L 117.224232 225.496189 
L 117.894002 224.325504 
L 118.563772 223.378572 
L 119.233541 224.834314 
L 120.57308 224.120289 
L 121.24285 224.193811 
L 122.582389 224.045542 
L 123.252159 224.099346 
L 123.921928 223.933036 
L 124.591698 224.131526 
L 125.931237 223.881805 
L 126.601007 223.928305 
L 127.940546 223.741933 
L 128.610315 223.882423 
L 129.280085 223.532118 
L 129.949855 223.884881 
L 133.298703 223.762401 
L 135.308011 223.731363 
L 139.996399 223.723386 
L 144.015016 223.667381 
L 144.684786 224.0703 
L 145.354555 223.691956 
L 146.024325 222.306294 
L 146.694094 223.497146 
L 147.363864 222.245741 
L 148.033634 223.609762 
L 148.703403 224.611071 
L 149.373173 223.976888 
L 150.042942 221.861778 
L 150.712712 223.649982 
L 151.382482 224.963007 
L 152.052251 223.712843 
L 152.722021 223.248212 
L 153.39179 224.33668 
L 154.06156 223.079578 
L 154.73133 222.500378 
L 156.070869 223.801316 
L 156.740638 223.455808 
L 157.410408 223.571056 
L 158.080178 223.91416 
L 158.749947 222.62462 
L 159.419717 225.11451 
L 160.089486 222.712167 
L 160.759256 224.247997 
L 161.429026 223.646051 
L 162.098795 223.41055 
L 162.768565 223.732064 
L 164.108104 223.540119 
L 164.777873 224.014121 
L 165.447643 224.095867 
L 166.117413 223.628639 
L 167.456952 223.531503 
L 168.126721 223.702555 
L 168.796491 223.683461 
L 169.466261 223.794171 
L 170.13603 223.78137 
L 170.8058 223.596065 
L 171.475569 223.697544 
L 172.145339 223.647719 
L 173.484878 223.83127 
L 175.494187 223.636335 
L 176.833726 223.681732 
L 181.522113 223.65379 
L 182.861653 223.664685 
L 184.201192 223.654921 
L 184.870961 224.138189 
L 185.540731 224.334818 
L 186.2105 222.86286 
L 186.88027 221.834466 
L 188.219809 224.364273 
L 188.889579 223.221981 
L 189.559348 223.559408 
L 190.229118 223.502128 
L 190.898888 224.149462 
L 191.568657 223.082832 
L 192.238427 223.834612 
L 192.908196 222.745313 
L 193.577966 223.268576 
L 194.247736 224.730987 
L 194.917505 224.775379 
L 195.587275 223.427675 
L 196.257044 223.449237 
L 196.926814 223.766328 
L 197.596584 224.292647 
L 198.266353 222.847468 
L 198.936123 224.273831 
L 199.605892 223.48431 
L 200.275662 223.353752 
L 200.945432 224.461532 
L 201.615201 224.450874 
L 202.284971 223.438981 
L 202.95474 223.870064 
L 203.62451 224.156229 
L 204.29428 223.800133 
L 204.964049 222.759843 
L 205.633819 223.784529 
L 206.303588 223.879648 
L 207.643128 223.740162 
L 208.312897 224.277883 
L 209.652436 224.120358 
L 210.322206 223.707731 
L 210.991975 223.970959 
L 211.661745 223.927224 
L 212.331515 224.15476 
L 213.001284 223.98425 
L 213.671054 224.08571 
L 214.340823 223.955283 
L 215.010593 224.077606 
L 215.680363 223.986495 
L 217.019902 223.997857 
L 219.029211 223.976981 
L 224.387367 223.99562 
L 225.057137 222.17442 
L 225.726907 224.218538 
L 226.396676 225.225037 
L 227.066446 222.944624 
L 227.736215 222.430066 
L 228.405985 222.721869 
L 229.075755 223.690628 
L 229.745524 223.677615 
L 230.415294 222.268143 
L 231.085063 224.836291 
L 231.754833 224.06389 
L 233.094372 223.949683 
L 233.764142 223.163134 
L 234.433911 224.626606 
L 235.103681 224.552119 
L 235.77345 223.69497 
L 236.44322 224.33579 
L 237.11299 223.496979 
L 237.782759 224.30573 
L 238.452529 224.503287 
L 239.122298 224.375924 
L 239.792068 224.868802 
L 240.461838 224.632344 
L 241.131607 223.364266 
L 241.801377 224.337308 
L 242.471146 225.104174 
L 243.140916 224.002755 
L 243.810686 223.837878 
L 244.480455 224.204998 
L 245.150225 224.262441 
L 247.829303 224.051096 
L 248.499073 224.101793 
L 249.838612 223.948866 
L 251.178151 224.101636 
L 261.894465 223.959075 
L 263.903773 224.014588 
L 263.903773 224.014588 
" clip-path="url(#pdc6d5270ec)" style="fill: none; stroke: #ff7f0e; stroke-width: 1.5; stroke-linecap: square"/>
   </g>
   <g id="line2d_28">
    <path d="M 63.642665 250.489919 
L 64.312434 247.981806 
L 65.651974 243.77146 
L 66.321743 240.322453 
L 66.991513 235.623201 
L 67.661282 228.980049 
L 69.000822 210.913282 
L 70.340361 202.434686 
L 71.01013 198.767984 
L 71.6799 196.19441 
L 72.34967 192.667279 
L 73.689209 182.626478 
L 74.358978 179.178013 
L 75.698517 170.880805 
L 79.047365 153.751711 
L 81.056674 146.437057 
L 84.405522 135.788227 
L 85.745061 132.47103 
L 87.084601 129.521981 
L 87.75437 128.119239 
L 89.763679 125.084199 
L 90.433449 124.260462 
L 91.103218 123.245276 
L 93.782297 120.987214 
L 95.121836 120.189374 
L 99.810223 117.865712 
L 103.82884 115.886332 
L 105.16838 108.844483 
L 105.838149 111.378766 
L 106.507919 108.265861 
L 107.177688 111.262519 
L 107.847458 108.364038 
L 108.517228 106.623095 
L 109.186997 103.539559 
L 110.526536 98.886088 
L 111.196306 101.012554 
L 111.866076 98.112986 
L 112.535845 94.336604 
L 113.205615 98.440664 
L 113.875384 93.120872 
L 114.545154 95.469904 
L 115.214924 92.08271 
L 115.884693 92.674021 
L 116.554463 89.509396 
L 117.224232 90.171311 
L 117.894002 88.392967 
L 118.563772 85.111632 
L 119.233541 86.559855 
L 120.57308 83.221668 
L 121.24285 82.158161 
L 121.912619 81.311481 
L 122.582389 80.109035 
L 123.252159 79.435724 
L 123.921928 78.351967 
L 125.261467 77.054668 
L 125.931237 76.847104 
L 126.601007 76.068766 
L 127.270776 75.516954 
L 127.940546 74.483874 
L 128.610315 74.786941 
L 129.280085 73.310313 
L 129.949855 73.412116 
L 130.619624 73.193508 
L 131.959163 72.309992 
L 133.298703 71.92224 
L 134.638242 71.379294 
L 136.647551 70.927284 
L 138.656859 70.423553 
L 144.015016 69.268296 
L 144.684786 67.087768 
L 145.354555 68.733752 
L 146.024325 64.457945 
L 146.694094 67.187338 
L 147.363864 63.070114 
L 148.033634 63.739204 
L 148.703403 64.129072 
L 149.373173 66.141149 
L 150.042942 60.440664 
L 150.712712 63.254274 
L 151.382482 63.62203 
L 152.052251 61.970697 
L 152.722021 59.616332 
L 153.39179 60.72549 
L 154.73133 56.334711 
L 155.401099 56.320351 
L 156.070869 58.173946 
L 156.740638 56.088323 
L 157.410408 55.646055 
L 158.080178 56.293639 
L 158.749947 54.146334 
L 159.419717 57.085418 
L 160.089486 54.159458 
L 160.759256 54.2086 
L 161.429026 53.864628 
L 162.098795 52.967904 
L 162.768565 53.122956 
L 163.438334 52.211312 
L 164.108104 51.836864 
L 164.777873 52.449137 
L 165.447643 52.165321 
L 166.117413 51.048422 
L 167.456952 50.210229 
L 168.126721 50.247099 
L 168.796491 49.803134 
L 169.466261 50.646673 
L 170.13603 49.245705 
L 170.8058 49.318446 
L 171.475569 49.075061 
L 172.145339 49.361564 
L 172.815109 49.320492 
L 173.484878 49.113314 
L 174.824417 48.479499 
L 178.173265 48.038902 
L 180.182574 47.753627 
L 184.201192 47.32238 
L 184.870961 46.914694 
L 185.540731 44.231139 
L 186.2105 46.907746 
L 186.88027 40.989641 
L 188.219809 48.478525 
L 188.889579 43.275107 
L 189.559348 41.154576 
L 190.229118 42.46984 
L 190.898888 43.246776 
L 191.568657 40.480262 
L 192.238427 39.856012 
L 192.908196 38.440082 
L 193.577966 40.575352 
L 194.247736 42.246907 
L 194.917505 38.464527 
L 195.587275 37.934886 
L 196.257044 38.688059 
L 196.926814 38.812474 
L 197.596584 38.698467 
L 198.266353 36.541343 
L 198.936123 39.208133 
L 199.605892 36.657827 
L 200.275662 36.054738 
L 200.945432 37.372875 
L 201.615201 36.408576 
L 202.284971 36.557849 
L 202.95474 35.301609 
L 203.62451 36.356755 
L 204.29428 35.77266 
L 204.964049 33.494718 
L 205.633819 34.670633 
L 206.303588 34.58527 
L 206.973358 34.644129 
L 207.643128 33.7276 
L 208.312897 34.676173 
L 209.652436 34.16525 
L 210.322206 33.560582 
L 210.991975 34.001864 
L 211.661745 34.004614 
L 213.001284 33.504971 
L 213.671054 33.479442 
L 214.340823 33.287279 
L 215.010593 33.353049 
L 215.680363 33.119993 
L 216.350132 33.221164 
L 217.689671 33.012853 
L 218.359441 33.028733 
L 219.69898 32.813212 
L 222.378059 32.688419 
L 223.047828 32.500943 
L 223.717598 32.591464 
L 224.387367 32.553539 
L 225.057137 29.555899 
L 225.726907 32.124328 
L 226.396676 28.941455 
L 227.066446 28.37993 
L 227.736215 30.988036 
L 228.405985 28.198182 
L 229.075755 28.432063 
L 229.745524 27.424489 
L 231.085063 30.832664 
L 231.754833 29.130895 
L 232.424602 30.817942 
L 233.094372 29.337075 
L 233.764142 29.45885 
L 234.433911 29.393073 
L 235.103681 28.45411 
L 235.77345 27.296039 
L 236.44322 29.461521 
L 237.11299 26.880571 
L 237.782759 27.847142 
L 238.452529 26.870636 
L 239.122298 25.604138 
L 239.792068 30.50148 
L 240.461838 27.536134 
L 241.131607 23.795429 
L 241.801377 25.652485 
L 242.471146 26.604946 
L 243.810686 24.648699 
L 244.480455 24.901279 
L 245.150225 24.533819 
L 245.819994 25.673285 
L 246.489764 24.735435 
L 247.159534 24.003728 
L 247.829303 24.429617 
L 248.499073 23.797382 
L 249.168842 23.506064 
L 250.508382 23.321772 
L 251.178151 23.507462 
L 253.18746 23.042151 
L 255.196769 22.88808 
L 255.866538 22.995334 
L 256.536308 22.773679 
L 263.234004 22.370455 
L 263.903773 22.525627 
L 263.903773 22.525627 
" clip-path="url(#pdc6d5270ec)" style="fill: none; stroke: #2ca02c; stroke-width: 1.5; stroke-linecap: square"/>
   </g>
   <g id="patch_3">
    <path d="M 53.629609 265.35 
L 53.629609 10.8 
" style="fill: none; stroke: #000000; stroke-width: 0.8; stroke-linejoin: miter; stroke-linecap: square"/>
   </g>
   <g id="patch_4">
    <path d="M 273.916829 265.35 
L 273.916829 10.8 
" style="fill: none; stroke: #000000; stroke-width: 0.8; stroke-linejoin: miter; stroke-linecap: square"/>
   </g>
   <g id="patch_5">
    <path d="M 53.629609 265.35 
L 273.916829 265.35 
" style="fill: none; stroke: #000000; stroke-width: 0.8; stroke-linejoin: miter; stroke-linecap: square"/>
   </g>
   <g id="patch_6">
    <path d="M 53.629609 10.8 
L 273.916829 10.8 
" style="fill: none; stroke: #000000; stroke-width: 0.8; stroke-linejoin: miter; stroke-linecap: square"/>
   </g>
   <g id="legend_1">
    <g id="patch_7">
     <path d="M 60.629609 63.854688 
L 102.529609 63.854688 
Q 104.529609 63.854688 104.529609 61.854688 
L 104.529609 17.8 
Q 104.529609 15.8 102.529609 15.8 
L 60.629609 15.8 
Q 58.629609 15.8 58.629609 17.8 
L 58.629609 61.854688 
Q 58.629609 63.854688 60.629609 63.854688 
z
" style="fill: #ffffff; opacity: 0.8; stroke: #cccccc; stroke-linejoin: miter"/>
    </g>
    <g id="line2d_29">
     <path d="M 62.629609 23.898438 
L 72.629609 23.898438 
L 82.629609 23.898438 
" style="fill: none; stroke: #1f77b4; stroke-width: 1.5; stroke-linecap: square"/>
    </g>
    <g id="text_4">
     <!-- $\epsilon_x$ -->
     <g transform="translate(90.629609 27.398438)scale(0.1 -0.1)">
      <defs>
       <path id="DejaVuSans-Oblique-78" d="M 3841 3500 
L 2234 1784 
L 3219 0 
L 2559 0 
L 1819 1388 
L 531 0 
L -166 0 
L 1556 1844 
L 641 3500 
L 1300 3500 
L 1972 2234 
L 3144 3500 
L 3841 3500 
z
" transform="scale(0.015625)"/>
      </defs>
      <use xlink:href="#DejaVuSans-Oblique-3b5" transform="translate(0 0.9375)"/>
      <use xlink:href="#DejaVuSans-Oblique-78" transform="translate(54.052734 -15.46875)scale(0.7)"/>
     </g>
    </g>
    <g id="line2d_30">
     <path d="M 62.629609 38.576563 
L 72.629609 38.576563 
L 82.629609 38.576563 
" style="fill: none; stroke: #ff7f0e; stroke-width: 1.5; stroke-linecap: square"/>
    </g>
    <g id="text_5">
     <!-- $\epsilon_y$ -->
     <g transform="translate(90.629609 42.076563)scale(0.1 -0.1)">
      <defs>
       <path id="DejaVuSans-Oblique-79" d="M 1588 -325 
Q 1188 -997 936 -1164 
Q 684 -1331 294 -1331 
L -159 -1331 
L -63 -850 
L 269 -850 
Q 509 -850 678 -719 
Q 847 -588 1056 -206 
L 1234 128 
L 459 3500 
L 1069 3500 
L 1650 819 
L 3256 3500 
L 3859 3500 
L 1588 -325 
z
" transform="scale(0.015625)"/>
      </defs>
      <use xlink:href="#DejaVuSans-Oblique-3b5" transform="translate(0 0.9375)"/>
      <use xlink:href="#DejaVuSans-Oblique-79" transform="translate(54.052734 -15.46875)scale(0.7)"/>
     </g>
    </g>
    <g id="line2d_31">
     <path d="M 62.629609 54.275 
L 72.629609 54.275 
L 82.629609 54.275 
" style="fill: none; stroke: #2ca02c; stroke-width: 1.5; stroke-linecap: square"/>
    </g>
    <g id="text_6">
     <!-- $\epsilon_z$ -->
     <g transform="translate(90.629609 57.775)scale(0.1 -0.1)">
      <defs>
       <path id="DejaVuSans-Oblique-7a" d="M 744 3500 
L 3475 3500 
L 3372 2975 
L 738 459 
L 2913 459 
L 2822 0 
L -19 0 
L 84 525 
L 2719 3041 
L 653 3041 
L 744 3500 
z
" transform="scale(0.015625)"/>
      </defs>
      <use xlink:href="#DejaVuSans-Oblique-3b5" transform="translate(0 0.9375)"/>
      <use xlink:href="#DejaVuSans-Oblique-7a" transform="translate(54.052734 -15.46875)scale(0.7)"/>
     </g>
    </g>
   </g>
  </g>
  <g id="axes_2">
   <g id="patch_8">
    <path d="M 53.629609 534.2 
L 273.916829 534.2 
L 273.916829 279.65 
L 53.629609 279.65 
z
" style="fill: #ffffff"/>
   </g>
   <g id="matplotlib.axis_3">
    <g id="xtick_8">
     <g id="line2d_32">
      <g>
       <use xlink:href="#m05cfb23e31" x="63.642665" y="534.2" style="stroke: #000000; stroke-width: 0.8"/>
      </g>
     </g>
     <g id="text_7">
      <!-- 0 -->
      <g transform="translate(60.461415 548.798437)scale(0.1 -0.1)">
       <use xlink:href="#DejaVuSans-30"/>
      </g>
     </g>
    </g>
    <g id="xtick_9">
     <g id="line2d_33">
      <g>
       <use xlink:href="#m05cfb23e31" x="97.131145" y="534.2" style="stroke: #000000; stroke-width: 0.8"/>
      </g>
     </g>
     <g id="text_8">
      <!-- 500 -->
      <g transform="translate(87.587395 548.798437)scale(0.1 -0.1)">
       <use xlink:href="#DejaVuSans-35"/>
       <use xlink:href="#DejaVuSans-30" x="63.623047"/>
       <use xlink:href="#DejaVuSans-30" x="127.246094"/>
      </g>
     </g>
    </g>
    <g id="xtick_10">
     <g id="line2d_34">
      <g>
       <use xlink:href="#m05cfb23e31" x="130.619624" y="534.2" style="stroke: #000000; stroke-width: 0.8"/>
      </g>
     </g>
     <g id="text_9">
      <!-- 1000 -->
      <g transform="translate(117.894624 548.798437)scale(0.1 -0.1)">
       <use xlink:href="#DejaVuSans-31"/>
       <use xlink:href="#DejaVuSans-30" x="63.623047"/>
       <use xlink:href="#DejaVuSans-30" x="127.246094"/>
       <use xlink:href="#DejaVuSans-30" x="190.869141"/>
      </g>
     </g>
    </g>
    <g id="xtick_11">
     <g id="line2d_35">
      <g>
       <use xlink:href="#m05cfb23e31" x="164.108104" y="534.2" style="stroke: #000000; stroke-width: 0.8"/>
      </g>
     </g>
     <g id="text_10">
      <!-- 1500 -->
      <g transform="translate(151.383104 548.798437)scale(0.1 -0.1)">
       <use xlink:href="#DejaVuSans-31"/>
       <use xlink:href="#DejaVuSans-35" x="63.623047"/>
       <use xlink:href="#DejaVuSans-30" x="127.246094"/>
       <use xlink:href="#DejaVuSans-30" x="190.869141"/>
      </g>
     </g>
    </g>
    <g id="xtick_12">
     <g id="line2d_36">
      <g>
       <use xlink:href="#m05cfb23e31" x="197.596584" y="534.2" style="stroke: #000000; stroke-width: 0.8"/>
      </g>
     </g>
     <g id="text_11">
      <!-- 2000 -->
      <g transform="translate(184.871584 548.798437)scale(0.1 -0.1)">
       <defs>
        <path id="DejaVuSans-32" d="M 1228 531 
L 3431 531 
L 3431 0 
L 469 0 
L 469 531 
Q 828 903 1448 1529 
Q 2069 2156 2228 2338 
Q 2531 2678 2651 2914 
Q 2772 3150 2772 3378 
Q 2772 3750 2511 3984 
Q 2250 4219 1831 4219 
Q 1534 4219 1204 4116 
Q 875 4013 500 3803 
L 500 4441 
Q 881 4594 1212 4672 
Q 1544 4750 1819 4750 
Q 2544 4750 2975 4387 
Q 3406 4025 3406 3419 
Q 3406 3131 3298 2873 
Q 3191 2616 2906 2266 
Q 2828 2175 2409 1742 
Q 1991 1309 1228 531 
z
" transform="scale(0.015625)"/>
       </defs>
       <use xlink:href="#DejaVuSans-32"/>
       <use xlink:href="#DejaVuSans-30" x="63.623047"/>
       <use xlink:href="#DejaVuSans-30" x="127.246094"/>
       <use xlink:href="#DejaVuSans-30" x="190.869141"/>
      </g>
     </g>
    </g>
    <g id="xtick_13">
     <g id="line2d_37">
      <g>
       <use xlink:href="#m05cfb23e31" x="231.085063" y="534.2" style="stroke: #000000; stroke-width: 0.8"/>
      </g>
     </g>
     <g id="text_12">
      <!-- 2500 -->
      <g transform="translate(218.360063 548.798437)scale(0.1 -0.1)">
       <use xlink:href="#DejaVuSans-32"/>
       <use xlink:href="#DejaVuSans-35" x="63.623047"/>
       <use xlink:href="#DejaVuSans-30" x="127.246094"/>
       <use xlink:href="#DejaVuSans-30" x="190.869141"/>
      </g>
     </g>
    </g>
    <g id="xtick_14">
     <g id="line2d_38">
      <g>
       <use xlink:href="#m05cfb23e31" x="264.573543" y="534.2" style="stroke: #000000; stroke-width: 0.8"/>
      </g>
     </g>
     <g id="text_13">
      <!-- 3000 -->
      <g transform="translate(251.848543 548.798437)scale(0.1 -0.1)">
       <defs>
        <path id="DejaVuSans-33" d="M 2597 2516 
Q 3050 2419 3304 2112 
Q 3559 1806 3559 1356 
Q 3559 666 3084 287 
Q 2609 -91 1734 -91 
Q 1441 -91 1130 -33 
Q 819 25 488 141 
L 488 750 
Q 750 597 1062 519 
Q 1375 441 1716 441 
Q 2309 441 2620 675 
Q 2931 909 2931 1356 
Q 2931 1769 2642 2001 
Q 2353 2234 1838 2234 
L 1294 2234 
L 1294 2753 
L 1863 2753 
Q 2328 2753 2575 2939 
Q 2822 3125 2822 3475 
Q 2822 3834 2567 4026 
Q 2313 4219 1838 4219 
Q 1578 4219 1281 4162 
Q 984 4106 628 3988 
L 628 4550 
Q 988 4650 1302 4700 
Q 1616 4750 1894 4750 
Q 2613 4750 3031 4423 
Q 3450 4097 3450 3541 
Q 3450 3153 3228 2886 
Q 3006 2619 2597 2516 
z
" transform="scale(0.015625)"/>
       </defs>
       <use xlink:href="#DejaVuSans-33"/>
       <use xlink:href="#DejaVuSans-30" x="63.623047"/>
       <use xlink:href="#DejaVuSans-30" x="127.246094"/>
       <use xlink:href="#DejaVuSans-30" x="190.869141"/>
      </g>
     </g>
    </g>
    <g id="text_14">
     <!-- training iteration -->
     <g transform="translate(121.691969 562.476562)scale(0.1 -0.1)">
      <defs>
       <path id="DejaVuSans-74" d="M 1172 4494 
L 1172 3500 
L 2356 3500 
L 2356 3053 
L 1172 3053 
L 1172 1153 
Q 1172 725 1289 603 
Q 1406 481 1766 481 
L 2356 481 
L 2356 0 
L 1766 0 
Q 1100 0 847 248 
Q 594 497 594 1153 
L 594 3053 
L 172 3053 
L 172 3500 
L 594 3500 
L 594 4494 
L 1172 4494 
z
" transform="scale(0.015625)"/>
       <path id="DejaVuSans-69" d="M 603 3500 
L 1178 3500 
L 1178 0 
L 603 0 
L 603 3500 
z
M 603 4863 
L 1178 4863 
L 1178 4134 
L 603 4134 
L 603 4863 
z
" transform="scale(0.015625)"/>
       <path id="DejaVuSans-6e" d="M 3513 2113 
L 3513 0 
L 2938 0 
L 2938 2094 
Q 2938 2591 2744 2837 
Q 2550 3084 2163 3084 
Q 1697 3084 1428 2787 
Q 1159 2491 1159 1978 
L 1159 0 
L 581 0 
L 581 3500 
L 1159 3500 
L 1159 2956 
Q 1366 3272 1645 3428 
Q 1925 3584 2291 3584 
Q 2894 3584 3203 3211 
Q 3513 2838 3513 2113 
z
" transform="scale(0.015625)"/>
       <path id="DejaVuSans-67" d="M 2906 1791 
Q 2906 2416 2648 2759 
Q 2391 3103 1925 3103 
Q 1463 3103 1205 2759 
Q 947 2416 947 1791 
Q 947 1169 1205 825 
Q 1463 481 1925 481 
Q 2391 481 2648 825 
Q 2906 1169 2906 1791 
z
M 3481 434 
Q 3481 -459 3084 -895 
Q 2688 -1331 1869 -1331 
Q 1566 -1331 1297 -1286 
Q 1028 -1241 775 -1147 
L 775 -588 
Q 1028 -725 1275 -790 
Q 1522 -856 1778 -856 
Q 2344 -856 2625 -561 
Q 2906 -266 2906 331 
L 2906 616 
Q 2728 306 2450 153 
Q 2172 0 1784 0 
Q 1141 0 747 490 
Q 353 981 353 1791 
Q 353 2603 747 3093 
Q 1141 3584 1784 3584 
Q 2172 3584 2450 3431 
Q 2728 3278 2906 2969 
L 2906 3500 
L 3481 3500 
L 3481 434 
z
" transform="scale(0.015625)"/>
       <path id="DejaVuSans-65" d="M 3597 1894 
L 3597 1613 
L 953 1613 
Q 991 1019 1311 708 
Q 1631 397 2203 397 
Q 2534 397 2845 478 
Q 3156 559 3463 722 
L 3463 178 
Q 3153 47 2828 -22 
Q 2503 -91 2169 -91 
Q 1331 -91 842 396 
Q 353 884 353 1716 
Q 353 2575 817 3079 
Q 1281 3584 2069 3584 
Q 2775 3584 3186 3129 
Q 3597 2675 3597 1894 
z
M 3022 2063 
Q 3016 2534 2758 2815 
Q 2500 3097 2075 3097 
Q 1594 3097 1305 2825 
Q 1016 2553 972 2059 
L 3022 2063 
z
" transform="scale(0.015625)"/>
       <path id="DejaVuSans-6f" d="M 1959 3097 
Q 1497 3097 1228 2736 
Q 959 2375 959 1747 
Q 959 1119 1226 758 
Q 1494 397 1959 397 
Q 2419 397 2687 759 
Q 2956 1122 2956 1747 
Q 2956 2369 2687 2733 
Q 2419 3097 1959 3097 
z
M 1959 3584 
Q 2709 3584 3137 3096 
Q 3566 2609 3566 1747 
Q 3566 888 3137 398 
Q 2709 -91 1959 -91 
Q 1206 -91 779 398 
Q 353 888 353 1747 
Q 353 2609 779 3096 
Q 1206 3584 1959 3584 
z
" transform="scale(0.015625)"/>
      </defs>
      <use xlink:href="#DejaVuSans-74"/>
      <use xlink:href="#DejaVuSans-72" x="39.208984"/>
      <use xlink:href="#DejaVuSans-61" x="80.322266"/>
      <use xlink:href="#DejaVuSans-69" x="141.601562"/>
      <use xlink:href="#DejaVuSans-6e" x="169.384766"/>
      <use xlink:href="#DejaVuSans-69" x="232.763672"/>
      <use xlink:href="#DejaVuSans-6e" x="260.546875"/>
      <use xlink:href="#DejaVuSans-67" x="323.925781"/>
      <use xlink:href="#DejaVuSans-20" x="387.402344"/>
      <use xlink:href="#DejaVuSans-69" x="419.189453"/>
      <use xlink:href="#DejaVuSans-74" x="446.972656"/>
      <use xlink:href="#DejaVuSans-65" x="486.181641"/>
      <use xlink:href="#DejaVuSans-72" x="547.705078"/>
      <use xlink:href="#DejaVuSans-61" x="588.818359"/>
      <use xlink:href="#DejaVuSans-74" x="650.097656"/>
      <use xlink:href="#DejaVuSans-69" x="689.306641"/>
      <use xlink:href="#DejaVuSans-6f" x="717.089844"/>
      <use xlink:href="#DejaVuSans-6e" x="778.271484"/>
     </g>
    </g>
   </g>
   <g id="matplotlib.axis_4">
    <g id="ytick_19">
     <g id="line2d_39">
      <g>
       <use xlink:href="#md92e257d74" x="53.629609" y="523.221267" style="stroke: #000000; stroke-width: 0.8"/>
      </g>
     </g>
     <g id="text_15">
      <!-- $\mathdefault{10^{0}}$ -->
      <g transform="translate(29.029609 527.020486)scale(0.1 -0.1)">
       <use xlink:href="#DejaVuSans-31" transform="translate(0 0.765625)"/>
       <use xlink:href="#DejaVuSans-30" transform="translate(63.623047 0.765625)"/>
       <use xlink:href="#DejaVuSans-30" transform="translate(128.203125 39.046875)scale(0.7)"/>
      </g>
     </g>
    </g>
    <g id="ytick_20">
     <g id="line2d_40">
      <g>
       <use xlink:href="#md92e257d74" x="53.629609" y="350.03485" style="stroke: #000000; stroke-width: 0.8"/>
      </g>
     </g>
     <g id="text_16">
      <!-- $\mathdefault{10^{1}}$ -->
      <g transform="translate(29.029609 353.834069)scale(0.1 -0.1)">
       <use xlink:href="#DejaVuSans-31" transform="translate(0 0.684375)"/>
       <use xlink:href="#DejaVuSans-30" transform="translate(63.623047 0.684375)"/>
       <use xlink:href="#DejaVuSans-31" transform="translate(128.203125 38.965625)scale(0.7)"/>
      </g>
     </g>
    </g>
    <g id="ytick_21">
     <g id="line2d_41">
      <g>
       <use xlink:href="#m10ce1c1195" x="53.629609" y="531.145843" style="stroke: #000000; stroke-width: 0.6"/>
      </g>
     </g>
    </g>
    <g id="ytick_22">
     <g id="line2d_42">
      <g>
       <use xlink:href="#m10ce1c1195" x="53.629609" y="471.086961" style="stroke: #000000; stroke-width: 0.6"/>
      </g>
     </g>
    </g>
    <g id="ytick_23">
     <g id="line2d_43">
      <g>
       <use xlink:href="#m10ce1c1195" x="53.629609" y="440.590346" style="stroke: #000000; stroke-width: 0.6"/>
      </g>
     </g>
    </g>
    <g id="ytick_24">
     <g id="line2d_44">
      <g>
       <use xlink:href="#m10ce1c1195" x="53.629609" y="418.952654" style="stroke: #000000; stroke-width: 0.6"/>
      </g>
     </g>
    </g>
    <g id="ytick_25">
     <g id="line2d_45">
      <g>
       <use xlink:href="#m10ce1c1195" x="53.629609" y="402.169156" style="stroke: #000000; stroke-width: 0.6"/>
      </g>
     </g>
    </g>
    <g id="ytick_26">
     <g id="line2d_46">
      <g>
       <use xlink:href="#m10ce1c1195" x="53.629609" y="388.45604" style="stroke: #000000; stroke-width: 0.6"/>
      </g>
     </g>
    </g>
    <g id="ytick_27">
     <g id="line2d_47">
      <g>
       <use xlink:href="#m10ce1c1195" x="53.629609" y="376.861765" style="stroke: #000000; stroke-width: 0.6"/>
      </g>
     </g>
    </g>
    <g id="ytick_28">
     <g id="line2d_48">
      <g>
       <use xlink:href="#m10ce1c1195" x="53.629609" y="366.818348" style="stroke: #000000; stroke-width: 0.6"/>
      </g>
     </g>
    </g>
    <g id="ytick_29">
     <g id="line2d_49">
      <g>
       <use xlink:href="#m10ce1c1195" x="53.629609" y="357.959426" style="stroke: #000000; stroke-width: 0.6"/>
      </g>
     </g>
    </g>
    <g id="ytick_30">
     <g id="line2d_50">
      <g>
       <use xlink:href="#m10ce1c1195" x="53.629609" y="297.900543" style="stroke: #000000; stroke-width: 0.6"/>
      </g>
     </g>
    </g>
    <g id="text_17">
     <!-- $\sigma$ (arb. u.) -->
     <g transform="translate(22.949922 431.825)rotate(-90)scale(0.1 -0.1)">
      <defs>
       <path id="DejaVuSans-Oblique-3c3" d="M 2219 3044 
Q 1744 3044 1422 2700 
Q 1081 2341 969 1747 
Q 844 1119 1044 756 
Q 1241 397 1706 397 
Q 2166 397 2503 759 
Q 2844 1122 2966 1747 
Q 3075 2319 2881 2700 
Q 2700 3044 2219 3044 
z
M 2309 3503 
L 4219 3500 
L 4106 2925 
L 3463 2925 
Q 3706 2438 3575 1747 
Q 3406 888 2884 400 
Q 2359 -91 1609 -91 
Q 856 -91 525 400 
Q 194 888 363 1747 
Q 528 2609 1050 3097 
Q 1484 3503 2309 3503 
z
" transform="scale(0.015625)"/>
      </defs>
      <use xlink:href="#DejaVuSans-Oblique-3c3" transform="translate(0 0.015625)"/>
      <use xlink:href="#DejaVuSans-20" transform="translate(63.378906 0.015625)"/>
      <use xlink:href="#DejaVuSans-28" transform="translate(95.166016 0.015625)"/>
      <use xlink:href="#DejaVuSans-61" transform="translate(134.179688 0.015625)"/>
      <use xlink:href="#DejaVuSans-72" transform="translate(195.458984 0.015625)"/>
      <use xlink:href="#DejaVuSans-62" transform="translate(236.572266 0.015625)"/>
      <use xlink:href="#DejaVuSans-2e" transform="translate(300.048828 0.015625)"/>
      <use xlink:href="#DejaVuSans-20" transform="translate(331.835938 0.015625)"/>
      <use xlink:href="#DejaVuSans-75" transform="translate(363.623047 0.015625)"/>
      <use xlink:href="#DejaVuSans-2e" transform="translate(427.001953 0.015625)"/>
      <use xlink:href="#DejaVuSans-29" transform="translate(458.789062 0.015625)"/>
     </g>
    </g>
   </g>
   <g id="line2d_51">
    <path d="M 63.642665 519.6395 
L 64.312434 518.14151 
L 64.982204 512.19464 
L 65.651974 500.018428 
L 66.321743 483.533227 
L 66.991513 471.458675 
L 68.331052 460.156291 
L 69.000822 462.428782 
L 69.670591 462.465151 
L 70.340361 462.310357 
L 71.01013 463.558866 
L 71.6799 462.083984 
L 72.34967 463.314631 
L 73.019439 462.932411 
L 73.689209 462.344019 
L 74.358978 464.718174 
L 75.698517 462.802662 
L 76.368287 464.54943 
L 77.038057 463.22296 
L 77.707826 463.027667 
L 78.377596 464.20359 
L 79.047365 463.815626 
L 79.717135 463.817506 
L 80.386905 464.049247 
L 81.056674 463.995832 
L 81.726444 464.298824 
L 82.396213 463.732367 
L 83.065983 463.595956 
L 83.735753 464.508482 
L 85.075292 464.037498 
L 85.745061 464.370813 
L 86.414831 464.355931 
L 87.084601 463.999317 
L 87.75437 463.95967 
L 88.42414 464.045638 
L 89.093909 464.422 
L 89.763679 464.24515 
L 90.433449 464.265218 
L 91.772988 463.960967 
L 92.442757 464.283604 
L 93.782297 464.185518 
L 95.791605 464.217657 
L 97.800914 464.145275 
L 101.149762 464.14413 
L 103.159071 464.083043 
L 103.82884 464.170485 
L 104.49861 462.761739 
L 105.16838 458.663862 
L 105.838149 466.455324 
L 106.507919 462.098622 
L 107.177688 462.110653 
L 107.847458 463.982868 
L 108.517228 463.464475 
L 109.186997 464.680395 
L 109.856767 463.926875 
L 110.526536 460.957909 
L 111.196306 465.931012 
L 111.866076 463.614228 
L 112.535845 460.878371 
L 113.205615 465.82767 
L 113.875384 459.98351 
L 114.545154 466.222357 
L 115.214924 461.810736 
L 115.884693 465.49863 
L 116.554463 462.448084 
L 117.894002 464.571043 
L 118.563772 462.810236 
L 119.233541 464.351832 
L 119.903311 463.597157 
L 120.57308 463.593448 
L 121.24285 463.23291 
L 121.912619 463.810294 
L 122.582389 463.427644 
L 123.921928 463.650655 
L 124.591698 463.409611 
L 125.261467 463.401208 
L 125.931237 464.188684 
L 126.601007 463.380616 
L 127.270776 463.567514 
L 127.940546 463.099683 
L 128.610315 464.195556 
L 129.280085 463.114294 
L 129.949855 463.210499 
L 130.619624 463.469976 
L 131.289394 463.281502 
L 131.959163 463.404802 
L 133.298703 463.366447 
L 142.005707 463.297369 
L 144.015016 463.274268 
L 144.684786 460.344647 
L 145.354555 464.943423 
L 146.024325 461.819463 
L 146.694094 465.060939 
L 147.363864 462.565725 
L 148.033634 463.587946 
L 148.703403 462.26219 
L 149.373173 465.830471 
L 150.042942 462.585774 
L 150.712712 464.084603 
L 151.382482 463.719554 
L 152.052251 464.077129 
L 152.722021 462.967455 
L 153.39179 464.498206 
L 154.06156 463.764321 
L 154.73133 461.804126 
L 155.401099 462.631842 
L 156.070869 464.513765 
L 156.740638 462.366093 
L 158.080178 464.001911 
L 158.749947 462.781455 
L 160.089486 464.289797 
L 160.759256 462.421407 
L 161.429026 463.824417 
L 162.098795 463.470665 
L 162.768565 463.72005 
L 163.438334 463.099634 
L 164.108104 463.434462 
L 164.777873 463.930593 
L 166.117413 463.533714 
L 168.796491 463.391033 
L 169.466261 464.508712 
L 170.13603 462.961355 
L 170.8058 463.704361 
L 171.475569 463.378998 
L 172.145339 463.815886 
L 172.815109 463.98131 
L 174.824417 463.510776 
L 175.494187 463.646472 
L 177.503496 463.566987 
L 179.512805 463.6848 
L 180.852344 463.644588 
L 184.201192 463.676114 
L 184.870961 463.262212 
L 185.540731 460.691283 
L 186.2105 466.271448 
L 186.88027 460.645818 
L 187.55004 463.373964 
L 188.219809 468.952277 
L 188.889579 464.207608 
L 189.559348 460.683287 
L 190.229118 464.258619 
L 190.898888 464.817683 
L 192.238427 462.207694 
L 192.908196 462.40522 
L 193.577966 464.802952 
L 194.247736 465.307251 
L 194.917505 460.77765 
L 195.587275 462.670747 
L 196.926814 464.814549 
L 197.596584 463.931384 
L 198.266353 463.501161 
L 198.936123 465.360052 
L 199.605892 463.863317 
L 200.945432 463.685767 
L 201.615201 462.932275 
L 202.284971 465.018595 
L 202.95474 462.831137 
L 204.29428 464.542107 
L 204.964049 463.713823 
L 205.633819 463.933617 
L 206.303588 463.845473 
L 206.973358 464.22305 
L 207.643128 463.444028 
L 208.312897 464.18929 
L 208.982667 464.274464 
L 210.322206 464.099194 
L 210.991975 464.253468 
L 211.661745 464.57198 
L 212.331515 464.054596 
L 213.001284 464.188815 
L 214.340823 464.122803 
L 218.359441 464.189412 
L 219.69898 464.098868 
L 221.038519 464.187179 
L 224.387367 464.169324 
L 225.057137 463.690732 
L 225.726907 464.308189 
L 226.396676 459.374635 
L 227.736215 465.840245 
L 228.405985 462.847031 
L 229.075755 462.556487 
L 229.745524 459.672548 
L 230.415294 465.195219 
L 231.085063 464.111509 
L 231.754833 462.797683 
L 232.424602 465.197325 
L 233.094372 464.318227 
L 233.764142 465.626673 
L 234.433911 463.908185 
L 235.103681 463.321172 
L 235.77345 463.519727 
L 236.44322 465.301489 
L 237.11299 464.426276 
L 237.782759 464.467212 
L 238.452529 463.134764 
L 239.122298 462.216873 
L 239.792068 467.217934 
L 240.461838 464.854739 
L 241.131607 462.94411 
L 241.801377 464.28521 
L 242.471146 464.177388 
L 243.140916 464.967612 
L 243.810686 464.061798 
L 244.480455 463.99704 
L 245.150225 463.81403 
L 245.819994 465.393527 
L 246.489764 464.616377 
L 247.159534 464.176333 
L 247.829303 464.89918 
L 248.499073 464.230211 
L 249.168842 464.192627 
L 249.838612 464.406722 
L 250.508382 464.210374 
L 251.178151 464.483635 
L 251.847921 464.395697 
L 252.51769 464.461546 
L 253.857229 464.386182 
L 255.196769 464.37169 
L 255.866538 464.442091 
L 257.206077 464.383902 
L 258.545617 464.433071 
L 261.894465 464.409159 
L 263.903773 464.522104 
L 263.903773 464.522104 
" clip-path="url(#p51578aada6)" style="fill: none; stroke: #1f77b4; stroke-width: 1.5; stroke-linecap: square"/>
   </g>
   <g id="line2d_52">
    <path d="M 63.642665 520.65244 
L 64.312434 496.548435 
L 64.982204 500.429472 
L 65.651974 507.741396 
L 66.321743 498.854317 
L 66.991513 498.27626 
L 67.661282 495.804882 
L 68.331052 490.920499 
L 69.000822 493.024572 
L 69.670591 491.780332 
L 70.340361 493.200924 
L 71.01013 494.326441 
L 71.6799 493.89678 
L 72.34967 493.724206 
L 73.019439 492.897888 
L 73.689209 491.881056 
L 74.358978 494.152295 
L 75.028748 494.405722 
L 75.698517 494.214447 
L 76.368287 494.290162 
L 77.038057 493.300906 
L 77.707826 493.14247 
L 78.377596 494.410649 
L 79.047365 494.624957 
L 79.717135 494.108585 
L 80.386905 494.03163 
L 81.056674 493.492515 
L 81.726444 494.15394 
L 82.396213 495.047473 
L 83.065983 494.510167 
L 83.735753 494.322454 
L 85.745061 494.358414 
L 86.414831 494.141915 
L 87.084601 494.609032 
L 87.75437 494.373205 
L 88.42414 494.259719 
L 89.763679 494.342808 
L 90.433449 494.349184 
L 91.103218 494.223038 
L 97.131145 494.301404 
L 100.479992 494.237058 
L 103.159071 494.260933 
L 103.82884 494.232606 
L 104.49861 492.341608 
L 105.16838 491.839083 
L 105.838149 494.724974 
L 106.507919 493.937694 
L 107.177688 494.250831 
L 107.847458 493.914547 
L 108.517228 492.89385 
L 109.186997 494.299585 
L 109.856767 494.426496 
L 110.526536 492.769712 
L 111.196306 495.379583 
L 112.535845 492.069177 
L 113.205615 494.335241 
L 113.875384 491.667412 
L 114.545154 495.471922 
L 115.214924 492.845105 
L 115.884693 495.252805 
L 116.554463 493.045543 
L 117.224232 493.2931 
L 117.894002 494.443153 
L 118.563772 493.149076 
L 119.233541 494.267254 
L 119.903311 494.200065 
L 120.57308 493.832069 
L 121.24285 493.786696 
L 121.912619 494.255363 
L 122.582389 493.872699 
L 123.252159 493.65554 
L 125.261467 493.666573 
L 125.931237 494.145564 
L 126.601007 493.704655 
L 127.270776 493.809221 
L 127.940546 493.335477 
L 128.610315 494.115861 
L 129.280085 493.355806 
L 129.949855 493.399557 
L 130.619624 493.60281 
L 131.289394 493.563589 
L 131.959163 493.726126 
L 133.968472 493.684728 
L 135.308011 493.575606 
L 136.647551 493.631989 
L 144.015016 493.60489 
L 144.684786 492.016825 
L 145.354555 494.734336 
L 146.024325 492.92061 
L 146.694094 495.287431 
L 147.363864 493.441884 
L 148.033634 493.354154 
L 148.703403 493.69028 
L 149.373173 495.623928 
L 150.042942 492.766955 
L 150.712712 495.35012 
L 151.382482 493.456375 
L 152.052251 494.428538 
L 152.722021 493.377431 
L 154.06156 494.079878 
L 155.401099 492.659688 
L 156.070869 494.774719 
L 156.740638 493.544116 
L 157.410408 492.762721 
L 158.080178 493.747427 
L 159.419717 494.824503 
L 160.089486 494.445177 
L 160.759256 492.658649 
L 161.429026 493.636388 
L 162.098795 493.716289 
L 162.768565 494.199108 
L 163.438334 493.400811 
L 164.108104 493.975196 
L 164.777873 494.250568 
L 165.447643 493.85283 
L 166.117413 493.795099 
L 166.787182 493.85246 
L 167.456952 493.73949 
L 168.126721 493.824541 
L 168.796491 493.575334 
L 169.466261 494.282533 
L 170.13603 493.271223 
L 170.8058 493.738672 
L 171.475569 493.461856 
L 172.145339 494.137535 
L 172.815109 494.015781 
L 173.484878 493.764698 
L 183.531422 493.838433 
L 184.201192 493.873718 
L 184.870961 493.356427 
L 185.540731 490.593444 
L 186.2105 494.619832 
L 186.88027 492.343576 
L 187.55004 495.383639 
L 188.219809 497.210449 
L 188.889579 494.227514 
L 189.559348 492.253298 
L 190.229118 494.609155 
L 190.898888 494.569209 
L 191.568657 493.994993 
L 192.238427 492.540384 
L 192.908196 493.408876 
L 193.577966 494.819063 
L 194.247736 494.9018 
L 194.917505 491.754494 
L 195.587275 493.190043 
L 196.257044 494.051558 
L 197.596584 494.027652 
L 198.266353 493.83233 
L 198.936123 495.000122 
L 199.605892 493.773432 
L 200.275662 493.925655 
L 200.945432 493.793632 
L 201.615201 493.165279 
L 202.284971 494.402244 
L 202.95474 493.377527 
L 203.62451 494.062443 
L 204.29428 494.207125 
L 204.964049 493.889221 
L 205.633819 494.131658 
L 206.303588 494.055872 
L 206.973358 494.14719 
L 207.643128 493.412947 
L 208.312897 493.867922 
L 209.652436 493.952195 
L 210.322206 493.999972 
L 210.991975 494.281502 
L 211.661745 494.383024 
L 212.331515 493.946946 
L 213.001284 494.089549 
L 215.680363 494.047567 
L 216.350132 494.164955 
L 221.038519 494.146167 
L 225.057137 494.192318 
L 225.726907 494.211392 
L 226.396676 490.713136 
L 227.066446 492.484086 
L 227.736215 495.60343 
L 228.405985 493.277545 
L 229.075755 492.140609 
L 229.745524 490.536471 
L 230.415294 495.511872 
L 231.085063 493.932439 
L 231.754833 492.934293 
L 232.424602 494.498354 
L 233.094372 493.932458 
L 233.764142 495.145096 
L 234.433911 494.002192 
L 235.103681 493.395775 
L 235.77345 493.392247 
L 236.44322 495.356124 
L 237.11299 494.158095 
L 237.782759 494.339064 
L 238.452529 493.638899 
L 239.122298 493.428108 
L 239.792068 496.446028 
L 241.131607 493.515683 
L 241.801377 493.926639 
L 242.471146 494.102777 
L 243.140916 494.596377 
L 243.810686 494.050597 
L 244.480455 494.172858 
L 245.150225 493.758147 
L 245.819994 494.992852 
L 246.489764 494.401077 
L 247.159534 494.107678 
L 247.829303 494.598828 
L 248.499073 494.217685 
L 249.168842 494.087814 
L 251.178151 494.332029 
L 251.847921 494.225648 
L 252.51769 494.278328 
L 254.526999 494.17362 
L 259.885156 494.275576 
L 263.234004 494.212795 
L 263.903773 494.310775 
L 263.903773 494.310775 
" clip-path="url(#p51578aada6)" style="fill: none; stroke: #ff7f0e; stroke-width: 1.5; stroke-linecap: square"/>
   </g>
   <g id="line2d_53">
    <path d="M 63.642665 521.044867 
L 64.312434 519.892812 
L 64.982204 519.101579 
L 65.651974 519.069025 
L 66.321743 518.711325 
L 66.991513 516.59183 
L 67.661282 507.211436 
L 68.331052 492.757434 
L 69.000822 483.402322 
L 69.670591 483.359196 
L 70.340361 484.013101 
L 71.01013 485.373607 
L 71.6799 487.162323 
L 72.34967 487.664892 
L 73.019439 486.51853 
L 73.689209 486.530717 
L 74.358978 486.801148 
L 75.028748 487.302542 
L 77.038057 487.184265 
L 77.707826 487.401784 
L 78.377596 487.248446 
L 79.717135 487.762688 
L 80.386905 487.48172 
L 81.056674 487.547506 
L 81.726444 487.469434 
L 82.396213 487.86222 
L 83.065983 487.879419 
L 83.735753 487.500019 
L 84.405522 487.313822 
L 85.745061 487.444784 
L 86.414831 487.383085 
L 87.084601 487.473821 
L 87.75437 487.328531 
L 88.42414 487.466089 
L 89.093909 487.307826 
L 89.763679 487.433595 
L 90.433449 487.444327 
L 91.103218 487.303866 
L 97.131145 487.387651 
L 103.82884 487.322711 
L 104.49861 486.349268 
L 105.16838 486.66808 
L 105.838149 487.793102 
L 106.507919 486.692957 
L 107.177688 488.483361 
L 107.847458 487.218562 
L 108.517228 487.942249 
L 109.186997 487.00961 
L 109.856767 486.627545 
L 110.526536 487.339202 
L 111.196306 488.247803 
L 112.535845 486.46049 
L 113.205615 488.433626 
L 113.875384 486.358862 
L 114.545154 487.145615 
L 115.884693 487.429829 
L 116.554463 487.077102 
L 117.224232 488.187795 
L 117.894002 486.780765 
L 118.563772 485.665492 
L 119.233541 487.510437 
L 120.57308 486.606701 
L 121.24285 486.665968 
L 122.582389 486.500506 
L 123.252159 486.645015 
L 123.921928 486.381555 
L 124.591698 486.580988 
L 125.931237 486.33605 
L 126.601007 486.461475 
L 127.940546 486.340366 
L 128.610315 486.398967 
L 129.280085 486.012887 
L 129.949855 486.436823 
L 130.619624 486.252199 
L 131.289394 486.327315 
L 131.959163 486.032768 
L 132.628933 486.192737 
L 137.98709 486.158263 
L 139.326629 486.125699 
L 141.335938 486.108508 
L 144.015016 486.079857 
L 144.684786 486.66036 
L 145.354555 486.435333 
L 146.024325 484.907077 
L 146.694094 486.356802 
L 147.363864 484.507379 
L 148.703403 487.217473 
L 149.373173 486.407551 
L 150.042942 483.910796 
L 150.712712 486.500451 
L 151.382482 487.669849 
L 152.052251 486.085586 
L 152.722021 485.591904 
L 153.39179 486.951174 
L 154.06156 485.508258 
L 154.73133 484.835066 
L 156.070869 486.380604 
L 156.740638 485.818469 
L 157.410408 485.918954 
L 158.080178 486.408007 
L 158.749947 484.817118 
L 159.419717 487.706057 
L 160.089486 484.805405 
L 160.759256 486.757184 
L 161.429026 485.979599 
L 162.098795 485.708676 
L 162.768565 486.19597 
L 163.438334 486.121905 
L 164.108104 485.887165 
L 164.777873 486.325783 
L 165.447643 486.609809 
L 166.117413 486.015298 
L 167.456952 485.922935 
L 168.126721 486.127123 
L 168.796491 486.091743 
L 169.466261 486.250521 
L 170.13603 486.223761 
L 170.8058 485.956837 
L 171.475569 486.126772 
L 172.145339 486.049138 
L 173.484878 486.286337 
L 175.494187 486.041579 
L 176.833726 486.103669 
L 181.522113 486.073898 
L 184.201192 486.055713 
L 184.870961 486.881317 
L 185.540731 486.935775 
L 186.2105 485.157732 
L 186.88027 483.849511 
L 188.219809 486.934419 
L 188.889579 485.545212 
L 189.559348 486.057562 
L 190.229118 486.01392 
L 190.898888 486.716761 
L 191.568657 485.238591 
L 192.238427 486.174922 
L 192.908196 484.952123 
L 193.577966 485.601533 
L 194.247736 487.662153 
L 194.917505 487.615795 
L 195.587275 485.662989 
L 196.926814 486.102991 
L 197.596584 486.927711 
L 198.266353 485.049238 
L 198.936123 486.768084 
L 199.605892 485.966878 
L 200.275662 485.585456 
L 200.945432 487.090844 
L 201.615201 487.13173 
L 202.284971 485.716593 
L 202.95474 486.200393 
L 203.62451 486.873259 
L 204.29428 486.481992 
L 204.964049 485.009188 
L 205.633819 486.269362 
L 206.303588 486.385285 
L 207.643128 486.186051 
L 208.312897 486.836487 
L 208.982667 486.664854 
L 209.652436 486.676414 
L 210.322206 486.141957 
L 210.991975 486.501486 
L 211.661745 486.398764 
L 212.331515 486.71644 
L 213.001284 486.492874 
L 213.671054 486.599196 
L 214.340823 486.459951 
L 215.010593 486.594331 
L 215.680363 486.486217 
L 217.019902 486.483747 
L 218.359441 486.502988 
L 221.708289 486.449992 
L 222.378059 486.495163 
L 223.717598 486.423447 
L 224.387367 486.47983 
L 225.057137 484.105477 
L 225.726907 486.784962 
L 226.396676 488.045434 
L 227.066446 484.887803 
L 227.736215 484.276527 
L 229.075755 486.085548 
L 229.745524 486.321002 
L 230.415294 484.039048 
L 231.085063 487.597049 
L 231.754833 486.782289 
L 233.094372 486.369947 
L 233.764142 485.344866 
L 234.433911 487.196943 
L 235.103681 487.355998 
L 235.77345 486.207924 
L 236.44322 486.977966 
L 237.11299 485.806435 
L 237.782759 486.918569 
L 238.452529 487.23443 
L 239.122298 487.003533 
L 239.792068 487.662103 
L 240.461838 487.274488 
L 241.131607 485.582569 
L 241.801377 486.962235 
L 242.471146 487.7712 
L 243.140916 486.382175 
L 243.810686 486.261342 
L 244.480455 486.647148 
L 245.150225 486.819852 
L 247.829303 486.536046 
L 249.168842 486.538832 
L 249.838612 486.428736 
L 251.847921 486.607313 
L 252.51769 486.478064 
L 263.903773 486.500083 
L 263.903773 486.500083 
" clip-path="url(#p51578aada6)" style="fill: none; stroke: #2ca02c; stroke-width: 1.5; stroke-linecap: square"/>
   </g>
   <g id="line2d_54">
    <path d="M 63.642665 522.629545 
L 64.312434 495.967417 
L 64.982204 487.57886 
L 65.651974 503.383032 
L 66.321743 515.895829 
L 66.991513 512.61553 
L 67.661282 512.601344 
L 68.331052 509.584878 
L 69.000822 508.055626 
L 69.670591 508.512754 
L 70.340361 509.200386 
L 71.01013 507.375516 
L 71.6799 509.668395 
L 72.34967 510.266101 
L 73.019439 509.78846 
L 73.689209 509.110125 
L 74.358978 509.659822 
L 75.028748 509.376967 
L 75.698517 509.684038 
L 77.038057 509.87791 
L 77.707826 509.692562 
L 78.377596 509.34587 
L 79.047365 509.454213 
L 79.717135 510.109721 
L 80.386905 509.661506 
L 81.056674 509.995933 
L 81.726444 510.080465 
L 82.396213 509.986022 
L 83.065983 510.04587 
L 83.735753 509.653413 
L 85.075292 509.949599 
L 85.745061 509.766781 
L 87.75437 509.815298 
L 88.42414 509.739315 
L 89.093909 509.843715 
L 89.763679 509.714646 
L 90.433449 509.84981 
L 91.103218 509.711304 
L 91.772988 509.8007 
L 93.112527 509.77179 
L 97.800914 509.807391 
L 99.810223 509.743827 
L 103.82884 509.722146 
L 104.49861 509.492937 
L 105.16838 508.859573 
L 105.838149 509.558069 
L 106.507919 509.610552 
L 107.177688 510.773438 
L 107.847458 509.747665 
L 108.517228 510.295934 
L 109.186997 509.458925 
L 110.526536 509.542541 
L 111.196306 510.024321 
L 111.866076 509.836075 
L 112.535845 509.431548 
L 113.205615 510.108184 
L 113.875384 509.131912 
L 114.545154 509.36804 
L 115.214924 509.307789 
L 115.884693 509.874223 
L 116.554463 509.833787 
L 117.224232 510.360383 
L 118.563772 508.956713 
L 119.233541 509.745289 
L 120.57308 509.319035 
L 121.912619 509.463651 
L 123.252159 509.190683 
L 123.921928 509.219929 
L 124.591698 509.454422 
L 125.261467 509.186539 
L 127.270776 508.981157 
L 127.940546 508.788145 
L 128.610315 509.025495 
L 129.280085 508.783379 
L 130.619624 509.201205 
L 133.298703 509.065893 
L 139.996399 509.040575 
L 144.015016 509.002803 
L 144.684786 509.152606 
L 145.354555 508.50774 
L 146.024325 507.555831 
L 146.694094 508.394847 
L 147.363864 507.795555 
L 148.033634 509.12094 
L 148.703403 509.695288 
L 149.373173 509.327621 
L 150.042942 507.807212 
L 150.712712 508.43859 
L 151.382482 510.001619 
L 152.052251 509.097305 
L 152.722021 508.690808 
L 153.39179 509.465548 
L 154.06156 508.383952 
L 154.73133 507.946775 
L 156.070869 508.846144 
L 157.410408 508.990655 
L 158.080178 509.169727 
L 158.749947 508.422761 
L 159.419717 510.240881 
L 160.089486 508.523719 
L 160.759256 509.447396 
L 161.429026 509.117632 
L 162.098795 508.920059 
L 164.108104 509.01456 
L 164.777873 509.609549 
L 165.447643 509.23239 
L 166.117413 509.01197 
L 167.456952 508.880206 
L 168.126721 509.033662 
L 172.145339 509.000762 
L 174.824417 509.016134 
L 177.503496 508.977863 
L 181.522113 508.973137 
L 182.861653 509.000985 
L 184.870961 508.890877 
L 185.540731 509.49532 
L 186.2105 508.388346 
L 186.88027 507.962716 
L 187.55004 508.465902 
L 188.219809 509.400108 
L 188.889579 508.736965 
L 189.559348 508.874671 
L 190.229118 508.630566 
L 190.898888 509.255613 
L 191.568657 509.015496 
L 192.238427 509.27938 
L 192.908196 508.461628 
L 194.247736 509.196145 
L 194.917505 509.328881 
L 196.257044 508.741802 
L 196.926814 509.324498 
L 197.596584 509.215456 
L 198.266353 508.601274 
L 198.936123 509.536875 
L 199.605892 508.681518 
L 200.945432 509.424383 
L 201.615201 509.319355 
L 202.284971 509.040649 
L 202.95474 509.459074 
L 204.29428 508.661663 
L 204.964049 508.353248 
L 205.633819 508.991182 
L 206.973358 509.043144 
L 207.643128 509.012423 
L 208.312897 509.393035 
L 208.982667 509.408099 
L 210.322206 508.999664 
L 211.661745 509.172821 
L 212.331515 509.22939 
L 213.001284 509.157373 
L 213.671054 509.250148 
L 214.340823 509.133578 
L 215.010593 509.236344 
L 216.350132 509.226189 
L 223.717598 509.175328 
L 224.387367 509.217518 
L 225.057137 508.471724 
L 226.396676 510.188839 
L 227.066446 509.059951 
L 227.736215 508.796123 
L 228.405985 508.144527 
L 229.075755 509.09871 
L 229.745524 508.710959 
L 230.415294 508.830696 
L 231.085063 509.627328 
L 231.754833 508.887283 
L 232.424602 509.209547 
L 233.094372 509.355027 
L 233.764142 508.875405 
L 234.433911 509.755371 
L 235.103681 509.235845 
L 235.77345 508.859773 
L 236.44322 509.389111 
L 237.11299 508.98023 
L 237.782759 509.360157 
L 239.122298 509.341449 
L 239.792068 509.575297 
L 240.461838 509.609788 
L 241.131607 509.087512 
L 241.801377 509.272698 
L 242.471146 510.093198 
L 243.140916 509.410144 
L 243.810686 509.150806 
L 244.480455 509.546802 
L 245.150225 509.342955 
L 257.875847 509.20375 
L 260.554925 509.22153 
L 263.903773 509.241749 
L 263.903773 509.241749 
" clip-path="url(#p51578aada6)" style="fill: none; stroke: #d62728; stroke-width: 1.5; stroke-linecap: square"/>
   </g>
   <g id="line2d_55">
    <path d="M 63.642665 519.009749 
L 64.312434 517.39437 
L 65.651974 508.705577 
L 66.321743 503.689086 
L 66.991513 496.970807 
L 67.661282 488.744095 
L 69.000822 466.917684 
L 70.340361 459.365213 
L 71.01013 456.691762 
L 71.6799 455.421619 
L 72.34967 452.664483 
L 73.019439 447.779948 
L 73.689209 444.184 
L 74.358978 441.534972 
L 77.038057 428.925917 
L 79.717135 419.285151 
L 80.386905 417.466563 
L 81.726444 414.52121 
L 83.065983 411.218152 
L 85.075292 406.582972 
L 86.414831 404.253174 
L 87.084601 403.281576 
L 87.75437 402.091234 
L 89.093909 400.484908 
L 91.103218 398.365156 
L 91.772988 398.129683 
L 92.442757 397.751369 
L 93.782297 396.687912 
L 95.121836 396.120613 
L 103.82884 393.197019 
L 104.49861 389.868533 
L 105.16838 391.347731 
L 105.838149 393.673193 
L 106.507919 392.551427 
L 107.177688 397.064957 
L 108.517228 391.414748 
L 109.186997 387.989942 
L 109.856767 385.722479 
L 110.526536 382.298087 
L 111.196306 385.384143 
L 111.866076 383.012631 
L 112.535845 379.144049 
L 113.205615 385.239444 
L 113.875384 378.66027 
L 114.545154 381.90563 
L 115.214924 376.707807 
L 115.884693 377.611265 
L 116.554463 373.675916 
L 117.224232 375.985761 
L 117.894002 373.714503 
L 118.563772 370.801122 
L 119.233541 371.940561 
L 119.903311 369.953993 
L 120.57308 368.543413 
L 121.24285 368.021477 
L 121.912619 366.397685 
L 122.582389 365.463019 
L 123.252159 364.749895 
L 123.921928 363.397975 
L 126.601007 361.699304 
L 127.270776 360.250139 
L 127.940546 359.631675 
L 128.610315 359.649973 
L 129.280085 357.834823 
L 129.949855 358.120927 
L 131.289394 357.6445 
L 131.959163 357.246452 
L 133.298703 356.936567 
L 134.638242 356.276086 
L 135.977781 356.014988 
L 138.656859 355.364179 
L 142.005707 354.671508 
L 142.675477 354.641265 
L 144.015016 354.27165 
L 144.684786 353.591028 
L 145.354555 354.312951 
L 146.024325 349.956361 
L 146.694094 351.320722 
L 147.363864 350.273471 
L 148.033634 348.646097 
L 148.703403 346.679408 
L 149.373173 349.89974 
L 150.042942 344.360285 
L 150.712712 346.475716 
L 151.382482 344.64278 
L 152.052251 345.336949 
L 152.722021 342.681891 
L 153.39179 342.997193 
L 154.06156 341.597698 
L 154.73133 339.346486 
L 155.401099 338.413747 
L 156.070869 340.58198 
L 156.740638 337.699 
L 157.410408 337.293579 
L 158.080178 337.699614 
L 158.749947 335.287778 
L 159.419717 336.863806 
L 160.089486 335.525692 
L 160.759256 334.553531 
L 161.429026 334.466861 
L 162.098795 333.433594 
L 162.768565 333.332881 
L 163.438334 332.069369 
L 164.108104 332.118672 
L 164.777873 332.602316 
L 165.447643 331.617103 
L 166.787182 330.316551 
L 167.456952 330.342151 
L 168.126721 329.946634 
L 168.796491 329.789647 
L 169.466261 330.25003 
L 170.13603 328.694097 
L 170.8058 328.839963 
L 171.475569 328.745197 
L 172.815109 328.859826 
L 173.484878 328.513969 
L 174.154648 327.96228 
L 174.824417 327.678335 
L 175.494187 327.705729 
L 177.503496 327.40228 
L 178.173265 327.366384 
L 178.843035 327.214993 
L 179.512805 327.209089 
L 180.852344 326.951585 
L 182.861653 326.755731 
L 184.201192 326.548363 
L 184.870961 325.941357 
L 185.540731 321.861118 
L 186.2105 325.116922 
L 186.88027 320.176744 
L 187.55004 323.690534 
L 188.219809 326.521025 
L 188.889579 320.535887 
L 189.559348 317.722928 
L 190.229118 320.080226 
L 190.898888 320.251688 
L 191.568657 316.906758 
L 192.238427 315.683775 
L 192.908196 315.429293 
L 193.577966 316.670968 
L 194.247736 317.444479 
L 194.917505 313.266048 
L 195.587275 313.40681 
L 196.257044 313.782163 
L 197.596584 313.383859 
L 198.266353 311.305105 
L 198.936123 313.463337 
L 199.605892 311.715912 
L 200.275662 310.758604 
L 200.945432 311.068564 
L 201.615201 309.688532 
L 202.284971 310.684525 
L 202.95474 309.130863 
L 203.62451 308.812341 
L 204.29428 309.959328 
L 204.964049 306.862056 
L 205.633819 308.349624 
L 206.973358 307.819893 
L 207.643128 307.02189 
L 208.312897 307.703931 
L 208.982667 307.207501 
L 209.652436 307.141922 
L 210.322206 306.646621 
L 210.991975 307.063095 
L 211.661745 306.780131 
L 212.331515 306.2957 
L 221.038519 305.483944 
L 222.378059 305.337452 
L 223.047828 305.194897 
L 223.717598 305.299311 
L 224.387367 305.209156 
L 225.057137 303.35923 
L 225.726907 304.396225 
L 226.396676 298.771029 
L 227.066446 300.117331 
L 227.736215 302.138277 
L 228.405985 299.309721 
L 229.075755 299.990837 
L 229.745524 295.028484 
L 230.415294 300.535056 
L 231.085063 299.983581 
L 231.754833 299.17607 
L 232.424602 298.928754 
L 233.094372 298.258139 
L 233.764142 299.977202 
L 234.433911 298.796075 
L 235.103681 297.061117 
L 235.77345 296.285093 
L 236.44322 297.761495 
L 237.11299 297.383505 
L 237.782759 297.245252 
L 238.452529 295.212873 
L 239.122298 294.208127 
L 239.792068 299.711964 
L 240.461838 295.837067 
L 241.131607 293.005573 
L 241.801377 294.623395 
L 242.471146 294.358146 
L 243.140916 294.314432 
L 243.810686 293.408918 
L 244.480455 292.98118 
L 245.150225 292.964304 
L 245.819994 294.535121 
L 246.489764 293.275697 
L 247.159534 292.701766 
L 247.829303 293.077031 
L 249.168842 292.16748 
L 249.838612 292.24595 
L 250.508382 292.106098 
L 251.178151 292.207722 
L 251.847921 292.17289 
L 252.51769 291.969117 
L 257.206077 291.590678 
L 258.545617 291.548649 
L 263.234004 291.220455 
L 263.903773 291.341679 
L 263.903773 291.341679 
" clip-path="url(#p51578aada6)" style="fill: none; stroke: #9467bd; stroke-width: 1.5; stroke-linecap: square"/>
   </g>
   <g id="line2d_56">
    <path d="M 63.642665 520.237272 
L 64.312434 518.448027 
L 64.982204 519.824176 
L 65.651974 521.483049 
L 66.991513 522.310716 
L 67.661282 521.490356 
L 68.331052 519.126038 
L 69.670591 509.5252 
L 71.01013 502.948362 
L 71.6799 500.794773 
L 72.34967 497.974148 
L 73.689209 490.367524 
L 75.028748 485.814134 
L 77.707826 477.201379 
L 78.377596 475.475149 
L 79.047365 474.288322 
L 79.717135 473.419845 
L 80.386905 471.725289 
L 81.726444 469.006855 
L 82.396213 468.158215 
L 83.065983 467.003221 
L 83.735753 465.29596 
L 84.405522 464.162446 
L 87.084601 461.050507 
L 87.75437 460.423202 
L 88.42414 459.982319 
L 89.093909 459.377121 
L 91.772988 457.73599 
L 93.112527 457.329255 
L 94.452066 456.899445 
L 101.149762 455.28775 
L 103.82884 454.640269 
L 104.49861 452.925646 
L 105.16838 450.692509 
L 105.838149 451.385414 
L 106.507919 449.161686 
L 107.177688 449.881346 
L 107.847458 447.676608 
L 108.517228 447.695553 
L 109.186997 445.70824 
L 109.856767 445.623983 
L 110.526536 445.67268 
L 111.196306 445.489039 
L 112.535845 441.537793 
L 113.205615 442.546428 
L 113.875384 439.923062 
L 114.545154 440.10337 
L 115.214924 440.424171 
L 115.884693 440.372717 
L 116.554463 439.841423 
L 117.224232 440.167104 
L 118.563772 436.378948 
L 119.233541 438.265857 
L 119.903311 437.58444 
L 120.57308 436.684298 
L 123.921928 435.363036 
L 124.591698 435.436744 
L 125.261467 434.973666 
L 125.931237 434.726948 
L 127.270776 434.72436 
L 127.940546 434.503128 
L 128.610315 434.600684 
L 129.280085 434.166425 
L 129.949855 434.64822 
L 130.619624 434.445586 
L 131.289394 434.370113 
L 131.959163 433.903493 
L 132.628933 434.012574 
L 135.308011 433.769388 
L 137.98709 433.674359 
L 139.326629 433.579254 
L 141.335938 433.494913 
L 144.015016 433.366572 
L 144.684786 433.616025 
L 145.354555 433.199999 
L 146.024325 431.71478 
L 146.694094 434.408231 
L 147.363864 431.794403 
L 148.703403 436.040485 
L 149.373173 434.53678 
L 150.042942 431.316011 
L 150.712712 434.508134 
L 151.382482 436.782721 
L 152.052251 434.101457 
L 152.722021 433.075806 
L 153.39179 434.676527 
L 154.06156 432.434569 
L 154.73133 431.451542 
L 155.401099 432.878065 
L 156.070869 433.817428 
L 156.740638 433.373979 
L 157.410408 433.259074 
L 158.080178 434.206664 
L 158.749947 432.468853 
L 159.419717 436.482252 
L 160.089486 432.495563 
L 160.759256 434.755257 
L 161.429026 433.760015 
L 162.098795 433.557949 
L 162.768565 434.130086 
L 163.438334 434.078173 
L 164.108104 433.652454 
L 164.777873 434.356054 
L 165.447643 434.615921 
L 166.117413 433.838719 
L 167.456952 433.674838 
L 168.126721 434.120948 
L 168.796491 433.989109 
L 169.466261 434.332366 
L 170.13603 434.304479 
L 170.8058 434.079083 
L 171.475569 434.205236 
L 172.145339 434.175958 
L 174.154648 434.498139 
L 175.494187 434.339715 
L 176.833726 434.40066 
L 179.512805 434.387625 
L 184.201192 434.472648 
L 185.540731 436.427135 
L 186.2105 434.270398 
L 186.88027 432.562757 
L 187.55004 434.069737 
L 188.219809 435.908325 
L 188.889579 434.934806 
L 189.559348 435.940859 
L 190.229118 435.744641 
L 190.898888 436.747419 
L 191.568657 435.832156 
L 192.238427 437.030717 
L 192.908196 434.937894 
L 193.577966 436.284528 
L 194.247736 438.729566 
L 194.917505 438.507072 
L 195.587275 436.689133 
L 196.257044 436.865434 
L 196.926814 437.466261 
L 197.596584 438.246218 
L 198.266353 436.588407 
L 198.936123 438.676449 
L 199.605892 437.279447 
L 200.275662 437.351159 
L 200.945432 439.155599 
L 201.615201 439.329466 
L 202.284971 437.947838 
L 202.95474 438.480866 
L 203.62451 439.544022 
L 204.29428 438.160018 
L 204.964049 437.316894 
L 205.633819 438.269103 
L 206.973358 438.526633 
L 207.643128 438.344387 
L 208.312897 439.134209 
L 209.652436 439.090379 
L 210.322206 438.585418 
L 210.991975 438.91462 
L 211.661745 439.028365 
L 212.331515 439.363002 
L 213.001284 439.077108 
L 213.671054 439.162103 
L 214.340823 438.98108 
L 215.010593 439.167312 
L 215.680363 439.042183 
L 217.019902 439.039606 
L 217.689671 438.976979 
L 219.029211 439.041533 
L 221.708289 439.016018 
L 222.378059 439.111511 
L 223.047828 439.007063 
L 224.387367 439.113322 
L 225.057137 436.680882 
L 225.726907 439.748286 
L 226.396676 441.735248 
L 227.066446 438.447175 
L 228.405985 438.990097 
L 229.075755 439.693069 
L 229.745524 442.603296 
L 230.415294 439.190055 
L 231.085063 442.954674 
L 231.754833 441.5253 
L 232.424602 442.911878 
L 233.094372 441.922539 
L 233.764142 440.076163 
L 234.433911 442.078232 
L 235.103681 442.536943 
L 235.77345 441.211054 
L 236.44322 442.461794 
L 237.11299 439.923151 
L 237.782759 441.327767 
L 238.452529 442.088756 
L 239.122298 441.511297 
L 239.792068 442.040209 
L 240.461838 442.007615 
L 241.131607 439.83628 
L 241.801377 441.018575 
L 242.471146 442.802814 
L 243.140916 441.008218 
L 243.810686 440.735506 
L 244.480455 441.538132 
L 245.819994 441.108695 
L 246.489764 441.124815 
L 247.159534 440.816377 
L 247.829303 440.890283 
L 249.838612 440.508434 
L 251.847921 440.539376 
L 253.857229 440.444626 
L 254.526999 440.486142 
L 255.196769 440.412989 
L 255.866538 440.506977 
L 256.536308 440.335588 
L 257.875847 440.361 
L 259.215386 440.35466 
L 259.885156 440.242921 
L 260.554925 440.369737 
L 261.894465 440.238381 
L 262.564234 440.293667 
L 263.234004 440.225204 
L 263.903773 440.312293 
L 263.903773 440.312293 
" clip-path="url(#p51578aada6)" style="fill: none; stroke: #8c564b; stroke-width: 1.5; stroke-linecap: square"/>
   </g>
   <g id="patch_9">
    <path d="M 53.629609 534.2 
L 53.629609 279.65 
" style="fill: none; stroke: #000000; stroke-width: 0.8; stroke-linejoin: miter; stroke-linecap: square"/>
   </g>
   <g id="patch_10">
    <path d="M 273.916829 534.2 
L 273.916829 279.65 
" style="fill: none; stroke: #000000; stroke-width: 0.8; stroke-linejoin: miter; stroke-linecap: square"/>
   </g>
   <g id="patch_11">
    <path d="M 53.629609 534.2 
L 273.916829 534.2 
" style="fill: none; stroke: #000000; stroke-width: 0.8; stroke-linejoin: miter; stroke-linecap: square"/>
   </g>
   <g id="patch_12">
    <path d="M 53.629609 279.65 
L 273.916829 279.65 
" style="fill: none; stroke: #000000; stroke-width: 0.8; stroke-linejoin: miter; stroke-linecap: square"/>
   </g>
   <g id="legend_2">
    <g id="patch_13">
     <path d="M 60.629609 333.725 
L 171.029609 333.725 
Q 173.029609 333.725 173.029609 331.725 
L 173.029609 286.65 
Q 173.029609 284.65 171.029609 284.65 
L 60.629609 284.65 
Q 58.629609 284.65 58.629609 286.65 
L 58.629609 331.725 
Q 58.629609 333.725 60.629609 333.725 
z
" style="fill: #ffffff; opacity: 0.8; stroke: #cccccc; stroke-linejoin: miter"/>
    </g>
    <g id="line2d_57">
     <path d="M 62.629609 292.748437 
L 72.629609 292.748437 
L 82.629609 292.748437 
" style="fill: none; stroke: #1f77b4; stroke-width: 1.5; stroke-linecap: square"/>
    </g>
    <g id="text_18">
     <!-- $\sigma_{x}$ -->
     <g transform="translate(90.629609 296.248437)scale(0.1 -0.1)">
      <use xlink:href="#DejaVuSans-Oblique-3c3" transform="translate(0 0.265625)"/>
      <use xlink:href="#DejaVuSans-Oblique-78" transform="translate(63.378906 -16.140625)scale(0.7)"/>
     </g>
    </g>
    <g id="line2d_58">
     <path d="M 62.629609 307.426562 
L 72.629609 307.426562 
L 82.629609 307.426562 
" style="fill: none; stroke: #ff7f0e; stroke-width: 1.5; stroke-linecap: square"/>
    </g>
    <g id="text_19">
     <!-- $\sigma_{px}$ -->
     <g transform="translate(90.629609 310.926562)scale(0.1 -0.1)">
      <defs>
       <path id="DejaVuSans-Oblique-70" d="M 3175 2156 
Q 3175 2616 2975 2859 
Q 2775 3103 2400 3103 
Q 2144 3103 1911 2972 
Q 1678 2841 1497 2591 
Q 1319 2344 1212 1994 
Q 1106 1644 1106 1300 
Q 1106 863 1306 627 
Q 1506 391 1875 391 
Q 2147 391 2380 519 
Q 2613 647 2778 891 
Q 2956 1147 3065 1494 
Q 3175 1841 3175 2156 
z
M 1394 2969 
Q 1625 3272 1939 3428 
Q 2253 3584 2638 3584 
Q 3175 3584 3472 3232 
Q 3769 2881 3769 2247 
Q 3769 1728 3584 1258 
Q 3400 788 3053 416 
Q 2822 169 2531 39 
Q 2241 -91 1919 -91 
Q 1547 -91 1294 64 
Q 1041 219 916 525 
L 556 -1331 
L -19 -1331 
L 922 3500 
L 1497 3500 
L 1394 2969 
z
" transform="scale(0.015625)"/>
      </defs>
      <use xlink:href="#DejaVuSans-Oblique-3c3" transform="translate(0 0.265625)"/>
      <use xlink:href="#DejaVuSans-Oblique-70" transform="translate(63.378906 -16.140625)scale(0.7)"/>
      <use xlink:href="#DejaVuSans-Oblique-78" transform="translate(107.8125 -16.140625)scale(0.7)"/>
     </g>
    </g>
    <g id="line2d_59">
     <path d="M 62.629609 323.125 
L 72.629609 323.125 
L 82.629609 323.125 
" style="fill: none; stroke: #2ca02c; stroke-width: 1.5; stroke-linecap: square"/>
    </g>
    <g id="text_20">
     <!-- $\sigma_{y}$ -->
     <g transform="translate(90.629609 326.625)scale(0.1 -0.1)">
      <use xlink:href="#DejaVuSans-Oblique-3c3" transform="translate(0 0.265625)"/>
      <use xlink:href="#DejaVuSans-Oblique-79" transform="translate(63.378906 -16.140625)scale(0.7)"/>
     </g>
    </g>
    <g id="line2d_60">
     <path d="M 125.829609 292.748437 
L 135.829609 292.748437 
L 145.829609 292.748437 
" style="fill: none; stroke: #d62728; stroke-width: 1.5; stroke-linecap: square"/>
    </g>
    <g id="text_21">
     <!-- $\sigma_{py}$ -->
     <g transform="translate(153.829609 296.248437)scale(0.1 -0.1)">
      <use xlink:href="#DejaVuSans-Oblique-3c3" transform="translate(0 0.265625)"/>
      <use xlink:href="#DejaVuSans-Oblique-70" transform="translate(63.378906 -16.140625)scale(0.7)"/>
      <use xlink:href="#DejaVuSans-Oblique-79" transform="translate(107.8125 -16.140625)scale(0.7)"/>
     </g>
    </g>
    <g id="line2d_61">
     <path d="M 125.829609 308.446875 
L 135.829609 308.446875 
L 145.829609 308.446875 
" style="fill: none; stroke: #9467bd; stroke-width: 1.5; stroke-linecap: square"/>
    </g>
    <g id="text_22">
     <!-- $\sigma_{z}$ -->
     <g transform="translate(153.829609 311.946875)scale(0.1 -0.1)">
      <use xlink:href="#DejaVuSans-Oblique-3c3" transform="translate(0 0.265625)"/>
      <use xlink:href="#DejaVuSans-Oblique-7a" transform="translate(63.378906 -16.140625)scale(0.7)"/>
     </g>
    </g>
    <g id="line2d_62">
     <path d="M 125.829609 323.125 
L 135.829609 323.125 
L 145.829609 323.125 
" style="fill: none; stroke: #8c564b; stroke-width: 1.5; stroke-linecap: square"/>
    </g>
    <g id="text_23">
     <!-- $\sigma_{pz}$ -->
     <g transform="translate(153.829609 326.625)scale(0.1 -0.1)">
      <use xlink:href="#DejaVuSans-Oblique-3c3" transform="translate(0 0.265625)"/>
      <use xlink:href="#DejaVuSans-Oblique-70" transform="translate(63.378906 -16.140625)scale(0.7)"/>
      <use xlink:href="#DejaVuSans-Oblique-7a" transform="translate(107.8125 -16.140625)scale(0.7)"/>
     </g>
    </g>
   </g>
  </g>
 </g>
 <defs>
  <clipPath id="pdc6d5270ec">
   <rect x="53.629609" y="10.8" width="220.287219" height="254.55"/>
  </clipPath>
  <clipPath id="p51578aada6">
   <rect x="53.629609" y="279.65" width="220.287219" height="254.55"/>
  </clipPath>
 </defs>
</svg>
