<?xml version="1.0" encoding="utf-8" standalone="no"?>
<!DOCTYPE svg PUBLIC "-//W3C//DTD SVG 1.1//EN"
  "http://www.w3.org/Graphics/SVG/1.1/DTD/svg11.dtd">
<svg xmlns:xlink="http://www.w3.org/1999/xlink" width="576pt" height="864pt" viewBox="0 0 576 864" xmlns="http://www.w3.org/2000/svg" version="1.1">
 <metadata>
  <rdf:RDF xmlns:dc="http://purl.org/dc/elements/1.1/" xmlns:cc="http://creativecommons.org/ns#" xmlns:rdf="http://www.w3.org/1999/02/22-rdf-syntax-ns#">
   <cc:Work>
    <dc:type rdf:resource="http://purl.org/dc/dcmitype/StillImage"/>
    <dc:date>2022-08-23T16:29:31.917308</dc:date>
    <dc:format>image/svg+xml</dc:format>
    <dc:creator>
     <cc:Agent>
      <dc:title>Matplotlib v3.5.2, https://matplotlib.org/</dc:title>
     </cc:Agent>
    </dc:creator>
   </cc:Work>
  </rdf:RDF>
 </metadata>
 <defs>
  <style type="text/css">*{stroke-linejoin: round; stroke-linecap: butt}</style>
 </defs>
 <g id="figure_1">
  <g id="patch_1">
   <path d="M 0 864 
L 576 864 
L 576 0 
L 0 0 
L 0 864 
z
" style="fill: none"/>
  </g>
  <g id="axes_1">
   <g id="patch_2">
    <path d="M 59.291719 409.35 
L 565.2 409.35 
L 565.2 10.8 
L 59.291719 10.8 
z
" style="fill: #ffffff"/>
   </g>
   <g id="matplotlib.axis_1">
    <g id="xtick_1">
     <g id="line2d_1">
      <defs>
       <path id="m0cd0668994" d="M 0 0 
L 0 3.5 
" style="stroke: #000000; stroke-width: 0.8"/>
      </defs>
      <g>
       <use xlink:href="#m0cd0668994" x="82.28755" y="409.35" style="stroke: #000000; stroke-width: 0.8"/>
      </g>
     </g>
    </g>
    <g id="xtick_2">
     <g id="line2d_2">
      <g>
       <use xlink:href="#m0cd0668994" x="174.640285" y="409.35" style="stroke: #000000; stroke-width: 0.8"/>
      </g>
     </g>
    </g>
    <g id="xtick_3">
     <g id="line2d_3">
      <g>
       <use xlink:href="#m0cd0668994" x="266.993019" y="409.35" style="stroke: #000000; stroke-width: 0.8"/>
      </g>
     </g>
    </g>
    <g id="xtick_4">
     <g id="line2d_4">
      <g>
       <use xlink:href="#m0cd0668994" x="359.345754" y="409.35" style="stroke: #000000; stroke-width: 0.8"/>
      </g>
     </g>
    </g>
    <g id="xtick_5">
     <g id="line2d_5">
      <g>
       <use xlink:href="#m0cd0668994" x="451.698489" y="409.35" style="stroke: #000000; stroke-width: 0.8"/>
      </g>
     </g>
    </g>
    <g id="xtick_6">
     <g id="line2d_6">
      <g>
       <use xlink:href="#m0cd0668994" x="544.051224" y="409.35" style="stroke: #000000; stroke-width: 0.8"/>
      </g>
     </g>
    </g>
   </g>
   <g id="matplotlib.axis_2">
    <g id="ytick_1">
     <g id="line2d_7">
      <defs>
       <path id="mc62b3dc80a" d="M 0 0 
L -3.5 0 
" style="stroke: #000000; stroke-width: 0.8"/>
      </defs>
      <g>
       <use xlink:href="#mc62b3dc80a" x="59.291719" y="321.535091" style="stroke: #000000; stroke-width: 0.8"/>
      </g>
     </g>
     <g id="text_1">
      <!-- $\mathdefault{10^{0}}$ -->
      <g transform="translate(34.691719 325.334309)scale(0.1 -0.1)">
       <defs>
        <path id="DejaVuSans-31" d="M 794 531 
L 1825 531 
L 1825 4091 
L 703 3866 
L 703 4441 
L 1819 4666 
L 2450 4666 
L 2450 531 
L 3481 531 
L 3481 0 
L 794 0 
L 794 531 
z
" transform="scale(0.015625)"/>
        <path id="DejaVuSans-30" d="M 2034 4250 
Q 1547 4250 1301 3770 
Q 1056 3291 1056 2328 
Q 1056 1369 1301 889 
Q 1547 409 2034 409 
Q 2525 409 2770 889 
Q 3016 1369 3016 2328 
Q 3016 3291 2770 3770 
Q 2525 4250 2034 4250 
z
M 2034 4750 
Q 2819 4750 3233 4129 
Q 3647 3509 3647 2328 
Q 3647 1150 3233 529 
Q 2819 -91 2034 -91 
Q 1250 -91 836 529 
Q 422 1150 422 2328 
Q 422 3509 836 4129 
Q 1250 4750 2034 4750 
z
" transform="scale(0.015625)"/>
       </defs>
       <use xlink:href="#DejaVuSans-31" transform="translate(0 0.765625)"/>
       <use xlink:href="#DejaVuSans-30" transform="translate(63.623047 0.765625)"/>
       <use xlink:href="#DejaVuSans-30" transform="translate(128.203125 39.046875)scale(0.7)"/>
      </g>
     </g>
    </g>
    <g id="ytick_2">
     <g id="line2d_8">
      <g>
       <use xlink:href="#mc62b3dc80a" x="59.291719" y="221.817745" style="stroke: #000000; stroke-width: 0.8"/>
      </g>
     </g>
     <g id="text_2">
      <!-- $\mathdefault{10^{1}}$ -->
      <g transform="translate(34.691719 225.616964)scale(0.1 -0.1)">
       <use xlink:href="#DejaVuSans-31" transform="translate(0 0.684375)"/>
       <use xlink:href="#DejaVuSans-30" transform="translate(63.623047 0.684375)"/>
       <use xlink:href="#DejaVuSans-31" transform="translate(128.203125 38.965625)scale(0.7)"/>
      </g>
     </g>
    </g>
    <g id="ytick_3">
     <g id="line2d_9">
      <g>
       <use xlink:href="#mc62b3dc80a" x="59.291719" y="122.1004" style="stroke: #000000; stroke-width: 0.8"/>
      </g>
     </g>
     <g id="text_3">
      <!-- $\mathdefault{10^{2}}$ -->
      <g transform="translate(34.691719 125.899619)scale(0.1 -0.1)">
       <defs>
        <path id="DejaVuSans-32" d="M 1228 531 
L 3431 531 
L 3431 0 
L 469 0 
L 469 531 
Q 828 903 1448 1529 
Q 2069 2156 2228 2338 
Q 2531 2678 2651 2914 
Q 2772 3150 2772 3378 
Q 2772 3750 2511 3984 
Q 2250 4219 1831 4219 
Q 1534 4219 1204 4116 
Q 875 4013 500 3803 
L 500 4441 
Q 881 4594 1212 4672 
Q 1544 4750 1819 4750 
Q 2544 4750 2975 4387 
Q 3406 4025 3406 3419 
Q 3406 3131 3298 2873 
Q 3191 2616 2906 2266 
Q 2828 2175 2409 1742 
Q 1991 1309 1228 531 
z
" transform="scale(0.015625)"/>
       </defs>
       <use xlink:href="#DejaVuSans-31" transform="translate(0 0.765625)"/>
       <use xlink:href="#DejaVuSans-30" transform="translate(63.623047 0.765625)"/>
       <use xlink:href="#DejaVuSans-32" transform="translate(128.203125 39.046875)scale(0.7)"/>
      </g>
     </g>
    </g>
    <g id="ytick_4">
     <g id="line2d_10">
      <g>
       <use xlink:href="#mc62b3dc80a" x="59.291719" y="22.383054" style="stroke: #000000; stroke-width: 0.8"/>
      </g>
     </g>
     <g id="text_4">
      <!-- $\mathdefault{10^{3}}$ -->
      <g transform="translate(34.691719 26.182273)scale(0.1 -0.1)">
       <defs>
        <path id="DejaVuSans-33" d="M 2597 2516 
Q 3050 2419 3304 2112 
Q 3559 1806 3559 1356 
Q 3559 666 3084 287 
Q 2609 -91 1734 -91 
Q 1441 -91 1130 -33 
Q 819 25 488 141 
L 488 750 
Q 750 597 1062 519 
Q 1375 441 1716 441 
Q 2309 441 2620 675 
Q 2931 909 2931 1356 
Q 2931 1769 2642 2001 
Q 2353 2234 1838 2234 
L 1294 2234 
L 1294 2753 
L 1863 2753 
Q 2328 2753 2575 2939 
Q 2822 3125 2822 3475 
Q 2822 3834 2567 4026 
Q 2313 4219 1838 4219 
Q 1578 4219 1281 4162 
Q 984 4106 628 3988 
L 628 4550 
Q 988 4650 1302 4700 
Q 1616 4750 1894 4750 
Q 2613 4750 3031 4423 
Q 3450 4097 3450 3541 
Q 3450 3153 3228 2886 
Q 3006 2619 2597 2516 
z
" transform="scale(0.015625)"/>
       </defs>
       <use xlink:href="#DejaVuSans-31" transform="translate(0 0.765625)"/>
       <use xlink:href="#DejaVuSans-30" transform="translate(63.623047 0.765625)"/>
       <use xlink:href="#DejaVuSans-33" transform="translate(128.203125 39.046875)scale(0.7)"/>
      </g>
     </g>
    </g>
    <g id="ytick_5">
     <g id="line2d_11">
      <defs>
       <path id="m27f5033e7f" d="M 0 0 
L -2 0 
" style="stroke: #000000; stroke-width: 0.6"/>
      </defs>
      <g>
       <use xlink:href="#m27f5033e7f" x="59.291719" y="391.234524" style="stroke: #000000; stroke-width: 0.6"/>
      </g>
     </g>
    </g>
    <g id="ytick_6">
     <g id="line2d_12">
      <g>
       <use xlink:href="#m27f5033e7f" x="59.291719" y="373.675171" style="stroke: #000000; stroke-width: 0.6"/>
      </g>
     </g>
    </g>
    <g id="ytick_7">
     <g id="line2d_13">
      <g>
       <use xlink:href="#m27f5033e7f" x="59.291719" y="361.216612" style="stroke: #000000; stroke-width: 0.6"/>
      </g>
     </g>
    </g>
    <g id="ytick_8">
     <g id="line2d_14">
      <g>
       <use xlink:href="#m27f5033e7f" x="59.291719" y="351.553003" style="stroke: #000000; stroke-width: 0.6"/>
      </g>
     </g>
    </g>
    <g id="ytick_9">
     <g id="line2d_15">
      <g>
       <use xlink:href="#m27f5033e7f" x="59.291719" y="343.657259" style="stroke: #000000; stroke-width: 0.6"/>
      </g>
     </g>
    </g>
    <g id="ytick_10">
     <g id="line2d_16">
      <g>
       <use xlink:href="#m27f5033e7f" x="59.291719" y="336.981503" style="stroke: #000000; stroke-width: 0.6"/>
      </g>
     </g>
    </g>
    <g id="ytick_11">
     <g id="line2d_17">
      <g>
       <use xlink:href="#m27f5033e7f" x="59.291719" y="331.1987" style="stroke: #000000; stroke-width: 0.6"/>
      </g>
     </g>
    </g>
    <g id="ytick_12">
     <g id="line2d_18">
      <g>
       <use xlink:href="#m27f5033e7f" x="59.291719" y="326.097906" style="stroke: #000000; stroke-width: 0.6"/>
      </g>
     </g>
    </g>
    <g id="ytick_13">
     <g id="line2d_19">
      <g>
       <use xlink:href="#m27f5033e7f" x="59.291719" y="291.517179" style="stroke: #000000; stroke-width: 0.6"/>
      </g>
     </g>
    </g>
    <g id="ytick_14">
     <g id="line2d_20">
      <g>
       <use xlink:href="#m27f5033e7f" x="59.291719" y="273.957826" style="stroke: #000000; stroke-width: 0.6"/>
      </g>
     </g>
    </g>
    <g id="ytick_15">
     <g id="line2d_21">
      <g>
       <use xlink:href="#m27f5033e7f" x="59.291719" y="261.499267" style="stroke: #000000; stroke-width: 0.6"/>
      </g>
     </g>
    </g>
    <g id="ytick_16">
     <g id="line2d_22">
      <g>
       <use xlink:href="#m27f5033e7f" x="59.291719" y="251.835657" style="stroke: #000000; stroke-width: 0.6"/>
      </g>
     </g>
    </g>
    <g id="ytick_17">
     <g id="line2d_23">
      <g>
       <use xlink:href="#m27f5033e7f" x="59.291719" y="243.939914" style="stroke: #000000; stroke-width: 0.6"/>
      </g>
     </g>
    </g>
    <g id="ytick_18">
     <g id="line2d_24">
      <g>
       <use xlink:href="#m27f5033e7f" x="59.291719" y="237.264157" style="stroke: #000000; stroke-width: 0.6"/>
      </g>
     </g>
    </g>
    <g id="ytick_19">
     <g id="line2d_25">
      <g>
       <use xlink:href="#m27f5033e7f" x="59.291719" y="231.481354" style="stroke: #000000; stroke-width: 0.6"/>
      </g>
     </g>
    </g>
    <g id="ytick_20">
     <g id="line2d_26">
      <g>
       <use xlink:href="#m27f5033e7f" x="59.291719" y="226.380561" style="stroke: #000000; stroke-width: 0.6"/>
      </g>
     </g>
    </g>
    <g id="ytick_21">
     <g id="line2d_27">
      <g>
       <use xlink:href="#m27f5033e7f" x="59.291719" y="191.799833" style="stroke: #000000; stroke-width: 0.6"/>
      </g>
     </g>
    </g>
    <g id="ytick_22">
     <g id="line2d_28">
      <g>
       <use xlink:href="#m27f5033e7f" x="59.291719" y="174.24048" style="stroke: #000000; stroke-width: 0.6"/>
      </g>
     </g>
    </g>
    <g id="ytick_23">
     <g id="line2d_29">
      <g>
       <use xlink:href="#m27f5033e7f" x="59.291719" y="161.781921" style="stroke: #000000; stroke-width: 0.6"/>
      </g>
     </g>
    </g>
    <g id="ytick_24">
     <g id="line2d_30">
      <g>
       <use xlink:href="#m27f5033e7f" x="59.291719" y="152.118312" style="stroke: #000000; stroke-width: 0.6"/>
      </g>
     </g>
    </g>
    <g id="ytick_25">
     <g id="line2d_31">
      <g>
       <use xlink:href="#m27f5033e7f" x="59.291719" y="144.222568" style="stroke: #000000; stroke-width: 0.6"/>
      </g>
     </g>
    </g>
    <g id="ytick_26">
     <g id="line2d_32">
      <g>
       <use xlink:href="#m27f5033e7f" x="59.291719" y="137.546812" style="stroke: #000000; stroke-width: 0.6"/>
      </g>
     </g>
    </g>
    <g id="ytick_27">
     <g id="line2d_33">
      <g>
       <use xlink:href="#m27f5033e7f" x="59.291719" y="131.764009" style="stroke: #000000; stroke-width: 0.6"/>
      </g>
     </g>
    </g>
    <g id="ytick_28">
     <g id="line2d_34">
      <g>
       <use xlink:href="#m27f5033e7f" x="59.291719" y="126.663215" style="stroke: #000000; stroke-width: 0.6"/>
      </g>
     </g>
    </g>
    <g id="ytick_29">
     <g id="line2d_35">
      <g>
       <use xlink:href="#m27f5033e7f" x="59.291719" y="92.082488" style="stroke: #000000; stroke-width: 0.6"/>
      </g>
     </g>
    </g>
    <g id="ytick_30">
     <g id="line2d_36">
      <g>
       <use xlink:href="#m27f5033e7f" x="59.291719" y="74.523135" style="stroke: #000000; stroke-width: 0.6"/>
      </g>
     </g>
    </g>
    <g id="ytick_31">
     <g id="line2d_37">
      <g>
       <use xlink:href="#m27f5033e7f" x="59.291719" y="62.064576" style="stroke: #000000; stroke-width: 0.6"/>
      </g>
     </g>
    </g>
    <g id="ytick_32">
     <g id="line2d_38">
      <g>
       <use xlink:href="#m27f5033e7f" x="59.291719" y="52.400967" style="stroke: #000000; stroke-width: 0.6"/>
      </g>
     </g>
    </g>
    <g id="ytick_33">
     <g id="line2d_39">
      <g>
       <use xlink:href="#m27f5033e7f" x="59.291719" y="44.505223" style="stroke: #000000; stroke-width: 0.6"/>
      </g>
     </g>
    </g>
    <g id="ytick_34">
     <g id="line2d_40">
      <g>
       <use xlink:href="#m27f5033e7f" x="59.291719" y="37.829467" style="stroke: #000000; stroke-width: 0.6"/>
      </g>
     </g>
    </g>
    <g id="ytick_35">
     <g id="line2d_41">
      <g>
       <use xlink:href="#m27f5033e7f" x="59.291719" y="32.046664" style="stroke: #000000; stroke-width: 0.6"/>
      </g>
     </g>
    </g>
    <g id="ytick_36">
     <g id="line2d_42">
      <g>
       <use xlink:href="#m27f5033e7f" x="59.291719" y="26.94587" style="stroke: #000000; stroke-width: 0.6"/>
      </g>
     </g>
    </g>
    <g id="text_5">
     <!-- $\epsilon$ (arb. u.) -->
     <g transform="translate(28.612031 234.525)rotate(-90)scale(0.1 -0.1)">
      <defs>
       <path id="DejaVuSans-Oblique-3b5" d="M 1263 1888 
Q 925 1963 778 2166 
Q 669 2309 669 2503 
Q 669 3034 1175 3344 
Q 1575 3588 2188 3588 
Q 2425 3588 2684 3550 
Q 2944 3513 3234 3438 
L 3134 2916 
Q 2847 3006 2606 3047 
Q 2359 3088 2138 3088 
Q 1766 3088 1522 2944 
Q 1228 2772 1228 2522 
Q 1228 2356 1381 2241 
Q 1563 2103 1925 2103 
L 2409 2103 
L 2319 1628 
L 1856 1628 
Q 1425 1628 1172 1469 
Q 828 1253 828 916 
Q 828 703 1013 563 
Q 1244 388 1716 388 
Q 2006 388 2284 444 
Q 2563 503 2806 619 
L 2700 84 
Q 2403 -3 2131 -47 
Q 1859 -91 1609 -91 
Q 866 -91 516 194 
Q 250 413 250 781 
Q 250 1278 600 1584 
Q 859 1813 1263 1888 
z
" transform="scale(0.015625)"/>
       <path id="DejaVuSans-20" transform="scale(0.015625)"/>
       <path id="DejaVuSans-28" d="M 1984 4856 
Q 1566 4138 1362 3434 
Q 1159 2731 1159 2009 
Q 1159 1288 1364 580 
Q 1569 -128 1984 -844 
L 1484 -844 
Q 1016 -109 783 600 
Q 550 1309 550 2009 
Q 550 2706 781 3412 
Q 1013 4119 1484 4856 
L 1984 4856 
z
" transform="scale(0.015625)"/>
       <path id="DejaVuSans-61" d="M 2194 1759 
Q 1497 1759 1228 1600 
Q 959 1441 959 1056 
Q 959 750 1161 570 
Q 1363 391 1709 391 
Q 2188 391 2477 730 
Q 2766 1069 2766 1631 
L 2766 1759 
L 2194 1759 
z
M 3341 1997 
L 3341 0 
L 2766 0 
L 2766 531 
Q 2569 213 2275 61 
Q 1981 -91 1556 -91 
Q 1019 -91 701 211 
Q 384 513 384 1019 
Q 384 1609 779 1909 
Q 1175 2209 1959 2209 
L 2766 2209 
L 2766 2266 
Q 2766 2663 2505 2880 
Q 2244 3097 1772 3097 
Q 1472 3097 1187 3025 
Q 903 2953 641 2809 
L 641 3341 
Q 956 3463 1253 3523 
Q 1550 3584 1831 3584 
Q 2591 3584 2966 3190 
Q 3341 2797 3341 1997 
z
" transform="scale(0.015625)"/>
       <path id="DejaVuSans-72" d="M 2631 2963 
Q 2534 3019 2420 3045 
Q 2306 3072 2169 3072 
Q 1681 3072 1420 2755 
Q 1159 2438 1159 1844 
L 1159 0 
L 581 0 
L 581 3500 
L 1159 3500 
L 1159 2956 
Q 1341 3275 1631 3429 
Q 1922 3584 2338 3584 
Q 2397 3584 2469 3576 
Q 2541 3569 2628 3553 
L 2631 2963 
z
" transform="scale(0.015625)"/>
       <path id="DejaVuSans-62" d="M 3116 1747 
Q 3116 2381 2855 2742 
Q 2594 3103 2138 3103 
Q 1681 3103 1420 2742 
Q 1159 2381 1159 1747 
Q 1159 1113 1420 752 
Q 1681 391 2138 391 
Q 2594 391 2855 752 
Q 3116 1113 3116 1747 
z
M 1159 2969 
Q 1341 3281 1617 3432 
Q 1894 3584 2278 3584 
Q 2916 3584 3314 3078 
Q 3713 2572 3713 1747 
Q 3713 922 3314 415 
Q 2916 -91 2278 -91 
Q 1894 -91 1617 61 
Q 1341 213 1159 525 
L 1159 0 
L 581 0 
L 581 4863 
L 1159 4863 
L 1159 2969 
z
" transform="scale(0.015625)"/>
       <path id="DejaVuSans-2e" d="M 684 794 
L 1344 794 
L 1344 0 
L 684 0 
L 684 794 
z
" transform="scale(0.015625)"/>
       <path id="DejaVuSans-75" d="M 544 1381 
L 544 3500 
L 1119 3500 
L 1119 1403 
Q 1119 906 1312 657 
Q 1506 409 1894 409 
Q 2359 409 2629 706 
Q 2900 1003 2900 1516 
L 2900 3500 
L 3475 3500 
L 3475 0 
L 2900 0 
L 2900 538 
Q 2691 219 2414 64 
Q 2138 -91 1772 -91 
Q 1169 -91 856 284 
Q 544 659 544 1381 
z
M 1991 3584 
L 1991 3584 
z
" transform="scale(0.015625)"/>
       <path id="DejaVuSans-29" d="M 513 4856 
L 1013 4856 
Q 1481 4119 1714 3412 
Q 1947 2706 1947 2009 
Q 1947 1309 1714 600 
Q 1481 -109 1013 -844 
L 513 -844 
Q 928 -128 1133 580 
Q 1338 1288 1338 2009 
Q 1338 2731 1133 3434 
Q 928 4138 513 4856 
z
" transform="scale(0.015625)"/>
      </defs>
      <use xlink:href="#DejaVuSans-Oblique-3b5" transform="translate(0 0.015625)"/>
      <use xlink:href="#DejaVuSans-20" transform="translate(54.052734 0.015625)"/>
      <use xlink:href="#DejaVuSans-28" transform="translate(85.839844 0.015625)"/>
      <use xlink:href="#DejaVuSans-61" transform="translate(124.853516 0.015625)"/>
      <use xlink:href="#DejaVuSans-72" transform="translate(186.132812 0.015625)"/>
      <use xlink:href="#DejaVuSans-62" transform="translate(227.246094 0.015625)"/>
      <use xlink:href="#DejaVuSans-2e" transform="translate(290.722656 0.015625)"/>
      <use xlink:href="#DejaVuSans-20" transform="translate(322.509766 0.015625)"/>
      <use xlink:href="#DejaVuSans-75" transform="translate(354.296875 0.015625)"/>
      <use xlink:href="#DejaVuSans-2e" transform="translate(417.675781 0.015625)"/>
      <use xlink:href="#DejaVuSans-29" transform="translate(449.462891 0.015625)"/>
     </g>
    </g>
   </g>
   <g id="line2d_43">
    <path d="M 82.28755 379.647606 
L 84.134604 323.36433 
L 85.981659 355.813223 
L 87.828714 360.928392 
L 89.675769 364.593883 
L 91.522823 365.931975 
L 93.369878 366.460362 
L 95.216933 368.742739 
L 97.063987 374.187474 
L 98.911042 373.804702 
L 100.758097 372.94265 
L 102.605151 377.018701 
L 104.452206 372.682591 
L 106.299261 382.590966 
L 108.146315 373.196298 
L 109.99337 383.503973 
L 111.840425 379.544627 
L 113.68748 373.329636 
L 115.534534 383.029073 
L 117.381589 384.85526 
L 119.228644 382.133611 
L 121.075698 384.874905 
L 122.922753 383.657581 
L 124.769808 383.610781 
L 126.616862 385.852162 
L 128.463917 383.706897 
L 130.310972 385.514152 
L 132.158027 385.540239 
L 134.005081 386.956295 
L 135.852136 380.345083 
L 137.699191 386.017515 
L 139.546245 384.511841 
L 141.3933 378.479933 
L 143.240355 387.145645 
L 145.087409 386.797072 
L 146.934464 383.59419 
L 148.781519 385.828463 
L 150.628573 383.598718 
L 152.475628 385.175937 
L 154.322683 388.457254 
L 156.169738 385.520118 
L 158.016792 373.489304 
L 159.863847 382.651716 
L 161.710902 385.075526 
L 163.557956 384.148901 
L 165.405011 377.768178 
L 167.252066 385.479228 
L 169.09912 383.270399 
L 170.946175 382.42912 
L 172.79323 385.977556 
L 174.640285 384.044022 
L 176.487339 383.677738 
L 178.334394 385.364296 
L 180.181449 382.768567 
L 182.028503 384.366938 
L 183.875558 381.926759 
L 185.722613 386.692439 
L 187.569667 374.762148 
L 189.416722 382.165267 
L 191.263777 386.543159 
L 193.110831 386.030386 
L 194.957886 383.117176 
L 196.804941 386.12883 
L 198.651996 384.87646 
L 200.49905 384.293861 
L 202.346105 385.645534 
L 204.19316 376.007984 
L 206.040214 384.123669 
L 207.887269 385.430122 
L 209.734324 384.610893 
L 211.581378 384.46306 
L 213.428433 386.108021 
L 215.275488 384.800546 
L 217.122543 384.030152 
L 218.969597 388.65783 
L 220.816652 383.155825 
L 222.663707 385.153233 
L 224.510761 386.441158 
L 226.357816 378.098124 
L 228.204871 382.112269 
L 230.051925 383.9043 
L 231.89898 382.413999 
L 233.746035 383.785376 
L 235.593089 384.269662 
L 237.440144 387.383576 
L 239.287199 385.731574 
L 241.134254 383.526953 
L 242.981308 386.39294 
L 244.828363 384.86046 
L 246.675418 385.59922 
L 248.522472 385.006357 
L 250.369527 384.743389 
L 252.216582 385.705263 
L 254.063636 384.494746 
L 255.910691 384.627191 
L 257.757746 385.321417 
L 259.604801 384.68405 
L 261.451855 385.666448 
L 263.29891 385.562085 
L 265.145965 384.609877 
L 266.993019 385.697517 
L 268.840074 385.937717 
L 270.687129 385.255502 
L 272.534183 384.999048 
L 274.381238 385.660357 
L 276.228293 383.537981 
L 278.075347 385.501134 
L 279.922402 385.013889 
L 281.769457 381.815717 
L 283.616512 385.008582 
L 285.463566 385.399031 
L 287.310621 385.380148 
L 289.157676 384.541732 
L 291.00473 385.112649 
L 292.851785 383.673397 
L 294.69884 384.79522 
L 296.545894 384.53036 
L 298.392949 385.29732 
L 300.240004 384.875819 
L 302.087059 384.139645 
L 303.934113 384.653595 
L 305.781168 385.310514 
L 307.628223 384.371724 
L 309.475277 384.150041 
L 311.322332 385.461242 
L 313.169387 383.054367 
L 315.016441 384.38233 
L 316.863496 384.95956 
L 318.710551 384.638076 
L 320.557606 384.962865 
L 322.40466 384.834726 
L 324.251715 382.958835 
L 326.09877 381.397871 
L 327.945824 384.648628 
L 329.792879 383.534119 
L 331.639934 379.831746 
L 333.486988 383.416696 
L 335.334043 385.981717 
L 337.181098 384.9621 
L 339.028152 383.767232 
L 340.875207 385.035943 
L 342.722262 385.372595 
L 344.569317 383.655379 
L 346.416371 384.614349 
L 348.263426 384.472311 
L 350.110481 383.698 
L 351.957535 383.906466 
L 353.80459 385.233549 
L 355.651645 384.884818 
L 357.498699 383.838912 
L 359.345754 383.753548 
L 361.192809 387.267983 
L 364.886918 383.762236 
L 366.733973 384.709945 
L 370.428082 384.058865 
L 372.275137 385.787205 
L 374.122192 383.652456 
L 375.969246 385.887351 
L 377.816301 382.866648 
L 379.663356 381.629689 
L 383.357465 383.794369 
L 385.20452 384.254714 
L 387.051575 385.135634 
L 388.898629 384.007099 
L 390.745684 385.849657 
L 392.592739 385.853339 
L 394.439793 382.238079 
L 396.286848 383.742436 
L 398.133903 384.228113 
L 399.980957 384.253678 
L 401.828012 385.16067 
L 403.675067 385.351745 
L 405.522122 383.920131 
L 407.369176 384.797217 
L 409.216231 384.809246 
L 411.063286 384.935898 
L 412.91034 386.654654 
L 414.757395 383.463772 
L 416.60445 384.340489 
L 418.451504 381.565143 
L 420.298559 385.350534 
L 422.145614 385.895704 
L 423.992668 383.525052 
L 425.839723 386.901709 
L 427.686778 383.963021 
L 429.533833 383.756146 
L 431.380887 384.657964 
L 433.227942 385.72486 
L 435.074997 384.715413 
L 436.922051 385.581345 
L 438.769106 386.080375 
L 440.616161 384.199776 
L 442.463215 382.773136 
L 444.31027 388.759069 
L 446.157325 386.446528 
L 448.00438 382.888825 
L 449.851434 384.304775 
L 451.698489 384.895704 
L 453.545544 384.489806 
L 455.392598 383.636764 
L 457.239653 386.07527 
L 459.086708 384.699236 
L 460.933762 385.257304 
L 462.780817 381.337033 
L 464.627872 382.329717 
L 466.474926 385.220809 
L 468.321981 382.891954 
L 470.169036 381.128326 
L 472.016091 382.495874 
L 473.863145 384.616764 
L 475.7102 384.162434 
L 477.557255 382.514854 
L 479.404309 385.935547 
L 481.251364 384.57607 
L 483.098419 382.767526 
L 484.945473 384.811992 
L 486.792528 385.0992 
L 488.639583 383.219108 
L 490.486638 384.180926 
L 492.333692 384.645095 
L 494.180747 385.956131 
L 496.027802 384.111694 
L 497.874856 385.817201 
L 499.721911 384.273906 
L 501.568966 385.028763 
L 503.41602 384.412645 
L 505.263075 382.307685 
L 507.11013 384.26328 
L 508.957185 385.771132 
L 510.804239 385.221354 
L 512.651294 383.259635 
L 514.498349 379.200399 
L 516.345403 382.812427 
L 518.192458 384.912068 
L 520.039513 385.806702 
L 521.886567 382.974483 
L 523.733622 383.697623 
L 525.580677 383.901176 
L 527.427731 382.722685 
L 531.121841 385.809344 
L 532.968896 384.992555 
L 534.81595 384.403795 
L 536.663005 385.41485 
L 538.51006 384.449069 
L 540.357114 385.65284 
L 542.204169 384.832262 
L 542.204169 384.832262 
" clip-path="url(#pf1ececf2d4)" style="fill: none; stroke: #1f77b4; stroke-width: 1.5; stroke-linecap: square"/>
   </g>
   <g id="line2d_44">
    <path d="M 59.291719 391.234091 
L 565.2 391.234091 
" clip-path="url(#pf1ececf2d4)" style="fill: none; stroke-dasharray: 5.55,2.4; stroke-dashoffset: 0; stroke: #1f77b4; stroke-width: 1.5"/>
   </g>
   <g id="line2d_45">
    <path d="M 82.28755 330.108294 
L 84.134604 288.722493 
L 85.981659 298.368368 
L 87.828714 302.511964 
L 91.522823 304.434175 
L 93.369878 303.543851 
L 95.216933 303.757417 
L 97.063987 301.620367 
L 98.911042 300.96164 
L 100.758097 301.709456 
L 102.605151 302.96528 
L 104.452206 301.928392 
L 106.299261 302.092029 
L 108.146315 300.676357 
L 109.99337 299.469093 
L 111.840425 301.771912 
L 113.68748 300.745497 
L 117.381589 300.318375 
L 119.228644 301.302779 
L 121.075698 300.332415 
L 124.769808 300.028731 
L 126.616862 301.820572 
L 128.463917 301.304196 
L 130.310972 301.319728 
L 132.158027 301.66746 
L 134.005081 300.514875 
L 135.852136 302.335407 
L 137.699191 302.069911 
L 139.546245 302.085129 
L 141.3933 300.586701 
L 143.240355 299.781493 
L 145.087409 301.864684 
L 146.934464 301.680367 
L 148.781519 300.997977 
L 150.628573 300.970023 
L 152.475628 301.799292 
L 154.322683 301.633087 
L 156.169738 301.313924 
L 158.016792 300.305912 
L 159.863847 300.46055 
L 161.710902 301.501665 
L 163.557956 301.623864 
L 165.405011 300.665279 
L 167.252066 302.275883 
L 169.09912 301.989041 
L 170.946175 302.688966 
L 174.640285 300.140173 
L 176.487339 301.398678 
L 178.334394 300.340136 
L 180.181449 300.54465 
L 182.028503 300.155208 
L 183.875558 300.89978 
L 187.569667 300.335396 
L 189.416722 301.072947 
L 191.263777 300.932019 
L 193.110831 301.574445 
L 194.957886 300.23483 
L 196.804941 301.445511 
L 202.346105 301.066285 
L 204.19316 300.235417 
L 206.040214 300.760174 
L 207.887269 300.916283 
L 209.734324 300.499385 
L 213.428433 300.813059 
L 215.275488 300.347782 
L 217.122543 299.623058 
L 218.969597 300.521268 
L 220.816652 300.893577 
L 222.663707 300.563853 
L 226.357816 300.799905 
L 228.204871 300.543569 
L 230.051925 301.282334 
L 231.89898 301.551841 
L 233.746035 301.217499 
L 235.593089 300.361204 
L 239.287199 300.909825 
L 241.134254 300.335766 
L 242.981308 301.00012 
L 244.828363 299.575126 
L 246.675418 299.822555 
L 248.522472 300.508444 
L 250.369527 300.242439 
L 252.216582 300.612071 
L 254.063636 299.861422 
L 255.910691 300.64468 
L 259.604801 300.121454 
L 263.29891 300.340652 
L 265.145965 300.774997 
L 266.993019 300.302389 
L 268.840074 298.853886 
L 270.687129 300.757554 
L 274.381238 300.177041 
L 276.228293 299.438064 
L 278.075347 300.739067 
L 279.922402 300.629564 
L 281.769457 299.757282 
L 283.616512 300.71204 
L 285.463566 300.199872 
L 287.310621 300.380012 
L 289.157676 300.143475 
L 291.00473 299.503637 
L 292.851785 299.732686 
L 294.69884 300.405638 
L 296.545894 300.548307 
L 298.392949 300.441648 
L 300.240004 300.071495 
L 302.087059 300.284045 
L 305.781168 301.00727 
L 307.628223 300.217811 
L 309.475277 300.586931 
L 311.322332 300.483837 
L 313.169387 300.09052 
L 315.016441 300.143443 
L 316.863496 299.651794 
L 318.710551 300.966803 
L 320.557606 300.234451 
L 322.40466 300.4254 
L 324.251715 299.917337 
L 326.09877 300.039453 
L 327.945824 300.564877 
L 329.792879 299.170311 
L 331.639934 299.738165 
L 333.486988 299.811284 
L 335.334043 300.413099 
L 337.181098 299.513754 
L 339.028152 299.494897 
L 340.875207 300.354401 
L 342.722262 300.509041 
L 344.569317 300.550113 
L 346.416371 299.999961 
L 350.110481 300.09315 
L 351.957535 299.587704 
L 353.80459 300.72002 
L 355.651645 300.140287 
L 357.498699 299.781283 
L 359.345754 300.112616 
L 361.192809 299.529246 
L 364.886918 300.624359 
L 366.733973 300.181817 
L 368.581028 299.553715 
L 370.428082 300.079235 
L 372.275137 300.34964 
L 374.122192 300.324411 
L 375.969246 299.671629 
L 379.663356 299.736496 
L 381.51041 300.480906 
L 387.051575 300.647768 
L 388.898629 300.179957 
L 390.745684 300.229056 
L 392.592739 299.994373 
L 394.439793 299.377923 
L 396.286848 299.88757 
L 399.980957 300.390704 
L 401.828012 298.495224 
L 403.675067 299.217714 
L 405.522122 300.118469 
L 407.369176 299.548451 
L 409.216231 300.447272 
L 411.063286 299.295448 
L 412.91034 299.250397 
L 414.757395 300.150046 
L 416.60445 299.974401 
L 418.451504 299.490977 
L 420.298559 299.800978 
L 422.145614 300.224795 
L 423.992668 299.911847 
L 425.839723 300.05692 
L 429.533833 300.68717 
L 431.380887 300.077682 
L 433.227942 300.288461 
L 436.922051 299.771119 
L 438.769106 299.817046 
L 440.616161 301.197194 
L 442.463215 300.680729 
L 444.31027 300.369092 
L 446.157325 299.431522 
L 448.00438 300.216937 
L 449.851434 299.808608 
L 451.698489 299.570885 
L 453.545544 299.657759 
L 455.392598 300.216783 
L 457.239653 300.962077 
L 459.086708 300.2649 
L 460.933762 301.669499 
L 464.627872 299.649019 
L 468.321981 300.711481 
L 470.169036 299.650557 
L 472.016091 299.331593 
L 473.863145 300.160426 
L 475.7102 300.555186 
L 477.557255 299.690159 
L 479.404309 299.918773 
L 481.251364 300.702654 
L 483.098419 299.918381 
L 484.945473 300.660503 
L 486.792528 299.618501 
L 488.639583 299.734299 
L 490.486638 300.429386 
L 492.333692 300.566414 
L 494.180747 299.850366 
L 496.027802 300.426856 
L 497.874856 299.333609 
L 499.721911 300.22263 
L 501.568966 299.658927 
L 503.41602 300.37839 
L 505.263075 300.193457 
L 507.11013 300.322285 
L 508.957185 299.081996 
L 510.804239 300.223214 
L 512.651294 298.951843 
L 514.498349 299.18406 
L 516.345403 299.903714 
L 518.192458 300.335775 
L 520.039513 299.811919 
L 521.886567 299.661668 
L 523.733622 299.814835 
L 525.580677 299.745266 
L 527.427731 299.288442 
L 529.274786 300.416716 
L 531.121841 299.682674 
L 532.968896 300.051714 
L 534.81595 299.089168 
L 536.663005 299.616068 
L 540.357114 299.976535 
L 542.204169 299.863892 
L 542.204169 299.863892 
" clip-path="url(#pf1ececf2d4)" style="fill: none; stroke: #ff7f0e; stroke-width: 1.5; stroke-linecap: square"/>
   </g>
   <g id="line2d_46">
    <path d="M 59.291719 302.23506 
L 565.2 302.23506 
" clip-path="url(#pf1ececf2d4)" style="fill: none; stroke-dasharray: 5.55,2.4; stroke-dashoffset: 0; stroke: #ff7f0e; stroke-width: 1.5"/>
   </g>
   <g id="line2d_47">
    <path d="M 82.28755 322.547764 
L 84.134604 298.077006 
L 85.981659 294.77141 
L 87.828714 293.746479 
L 89.675769 287.616487 
L 91.522823 277.863912 
L 95.216933 261.757954 
L 98.911042 247.803959 
L 102.605151 234.395839 
L 104.452206 229.006917 
L 108.146315 221.362336 
L 109.99337 216.577196 
L 111.840425 212.791651 
L 113.68748 210.305933 
L 117.381589 204.788031 
L 121.075698 199.817843 
L 122.922753 196.578785 
L 124.769808 193.836293 
L 126.616862 191.645603 
L 130.310972 188.388634 
L 132.158027 185.711458 
L 134.005081 183.738108 
L 137.699191 178.976928 
L 139.546245 177.18717 
L 141.3933 175.603425 
L 143.240355 173.421912 
L 145.087409 171.683501 
L 146.934464 169.704333 
L 148.781519 166.815023 
L 150.628573 166.18224 
L 152.475628 163.87794 
L 154.322683 162.519617 
L 156.169738 161.415677 
L 158.016792 160.050475 
L 159.863847 157.937044 
L 161.710902 155.362512 
L 163.557956 153.951674 
L 165.405011 152.927201 
L 167.252066 152.193372 
L 169.09912 150.336179 
L 170.946175 149.302624 
L 174.640285 146.475589 
L 176.487339 144.528438 
L 178.334394 144.072465 
L 180.181449 142.5696 
L 182.028503 141.634703 
L 185.722613 138.667314 
L 189.416722 135.51089 
L 191.263777 134.874159 
L 193.110831 133.224837 
L 194.957886 132.034195 
L 196.804941 131.733581 
L 198.651996 130.497004 
L 200.49905 129.549243 
L 202.346105 129.151519 
L 204.19316 126.303468 
L 206.040214 126.506488 
L 207.887269 124.324484 
L 209.734324 123.880953 
L 211.581378 123.918736 
L 213.428433 122.817525 
L 217.122543 120.97112 
L 218.969597 120.58283 
L 220.816652 119.0173 
L 224.510761 117.143172 
L 226.357816 115.196546 
L 230.051925 114.186804 
L 231.89898 113.150685 
L 233.746035 111.523696 
L 237.440144 110.798263 
L 239.287199 109.799519 
L 241.134254 109.526505 
L 242.981308 108.520392 
L 244.828363 107.998419 
L 246.675418 106.712235 
L 248.522472 105.937493 
L 250.369527 105.735967 
L 252.216582 104.854139 
L 254.063636 103.696325 
L 255.910691 103.701267 
L 257.757746 102.787271 
L 259.604801 102.488561 
L 261.451855 101.836996 
L 263.29891 101.008985 
L 265.145965 100.015147 
L 266.993019 99.494946 
L 268.840074 98.540507 
L 270.687129 98.036919 
L 272.534183 97.060286 
L 274.381238 97.037975 
L 276.228293 96.171049 
L 278.075347 95.149656 
L 279.922402 94.910191 
L 281.769457 93.761075 
L 283.616512 93.36447 
L 285.463566 92.613668 
L 287.310621 91.511544 
L 289.157676 91.011147 
L 291.00473 89.768205 
L 292.851785 89.580944 
L 294.69884 88.48569 
L 298.392949 87.490186 
L 302.087059 86.825239 
L 303.934113 85.461034 
L 305.781168 85.500027 
L 307.628223 84.495265 
L 309.475277 83.702708 
L 313.169387 83.144891 
L 315.016441 82.38444 
L 316.863496 81.87628 
L 318.710551 81.23725 
L 320.557606 80.816726 
L 322.40466 80.166841 
L 324.251715 79.916726 
L 326.09877 78.983675 
L 327.945824 77.453003 
L 331.639934 76.359214 
L 333.486988 76.003706 
L 335.334043 75.781534 
L 337.181098 74.336275 
L 340.875207 73.600333 
L 344.569317 73.189196 
L 346.416371 72.19108 
L 348.263426 71.945856 
L 350.110481 71.044475 
L 351.957535 70.727988 
L 353.80459 69.634243 
L 355.651645 69.23188 
L 357.498699 69.317811 
L 359.345754 68.377298 
L 361.192809 68.074863 
L 363.039864 67.226228 
L 364.886918 66.935892 
L 368.581028 66.143969 
L 370.428082 65.819706 
L 372.275137 64.735113 
L 374.122192 64.723795 
L 377.816301 63.819372 
L 379.663356 62.950771 
L 381.51041 62.556499 
L 383.357465 61.891671 
L 385.20452 61.493188 
L 388.898629 61.077413 
L 390.745684 60.720629 
L 392.592739 60.018683 
L 394.439793 59.738678 
L 398.133903 58.700063 
L 399.980957 57.74817 
L 401.828012 57.290129 
L 403.675067 57.29009 
L 405.522122 56.262543 
L 407.369176 55.973851 
L 409.216231 55.171434 
L 411.063286 55.509653 
L 412.91034 54.772505 
L 414.757395 54.429261 
L 418.451504 53.363131 
L 420.298559 53.205421 
L 422.145614 51.904715 
L 425.839723 51.687926 
L 427.686778 51.296327 
L 429.533833 50.432976 
L 433.227942 49.719581 
L 435.074997 49.7589 
L 436.922051 49.047142 
L 438.769106 48.638056 
L 444.31027 46.925804 
L 446.157325 45.56108 
L 448.00438 45.628889 
L 449.851434 46.298454 
L 451.698489 45.803891 
L 455.392598 45.129342 
L 457.239653 44.252454 
L 459.086708 44.70107 
L 460.933762 44.188286 
L 462.780817 44.497827 
L 464.627872 44.152711 
L 466.474926 43.520581 
L 468.321981 43.182234 
L 470.169036 42.371884 
L 472.016091 41.065547 
L 473.863145 41.472922 
L 475.7102 41.31921 
L 477.557255 40.866857 
L 479.404309 40.219091 
L 483.098419 39.714067 
L 484.945473 39.275854 
L 486.792528 39.321464 
L 488.639583 38.994377 
L 490.486638 38.1175 
L 492.333692 38.240775 
L 494.180747 38.060739 
L 497.874856 36.602248 
L 499.721911 36.634296 
L 501.568966 36.099538 
L 505.263075 34.488054 
L 507.11013 34.677344 
L 508.957185 34.341095 
L 510.804239 33.694813 
L 512.651294 33.636361 
L 514.498349 33.41815 
L 516.345403 32.598125 
L 518.192458 32.062549 
L 520.039513 32.219247 
L 521.886567 31.849735 
L 523.733622 31.176051 
L 525.580677 31.400494 
L 527.427731 31.095777 
L 529.274786 30.346604 
L 531.121841 30.432056 
L 532.968896 30.24442 
L 534.81595 29.820916 
L 536.663005 29.720756 
L 538.51006 29.261015 
L 540.357114 29.157463 
L 542.204169 28.915909 
L 542.204169 28.915909 
" clip-path="url(#pf1ececf2d4)" style="fill: none; stroke: #2ca02c; stroke-width: 1.5; stroke-linecap: square"/>
   </g>
   <g id="line2d_48">
    <path d="M 59.291719 239.107858 
L 565.2 239.107858 
" clip-path="url(#pf1ececf2d4)" style="fill: none; stroke-dasharray: 5.55,2.4; stroke-dashoffset: 0; stroke: #2ca02c; stroke-width: 1.5"/>
   </g>
   <g id="patch_3">
    <path d="M 59.291719 409.35 
L 59.291719 10.8 
" style="fill: none; stroke: #000000; stroke-width: 0.8; stroke-linejoin: miter; stroke-linecap: square"/>
   </g>
   <g id="patch_4">
    <path d="M 565.2 409.35 
L 565.2 10.8 
" style="fill: none; stroke: #000000; stroke-width: 0.8; stroke-linejoin: miter; stroke-linecap: square"/>
   </g>
   <g id="patch_5">
    <path d="M 59.291719 409.35 
L 565.2 409.35 
" style="fill: none; stroke: #000000; stroke-width: 0.8; stroke-linejoin: miter; stroke-linecap: square"/>
   </g>
   <g id="patch_6">
    <path d="M 59.291719 10.8 
L 565.2 10.8 
" style="fill: none; stroke: #000000; stroke-width: 0.8; stroke-linejoin: miter; stroke-linecap: square"/>
   </g>
   <g id="legend_1">
    <g id="patch_7">
     <path d="M 66.291719 63.854687 
L 108.191719 63.854687 
Q 110.191719 63.854687 110.191719 61.854687 
L 110.191719 17.8 
Q 110.191719 15.8 108.191719 15.8 
L 66.291719 15.8 
Q 64.291719 15.8 64.291719 17.8 
L 64.291719 61.854687 
Q 64.291719 63.854687 66.291719 63.854687 
z
" style="fill: #ffffff; opacity: 0.8; stroke: #cccccc; stroke-linejoin: miter"/>
    </g>
    <g id="line2d_49">
     <path d="M 68.291719 23.898438 
L 78.291719 23.898438 
L 88.291719 23.898438 
" style="fill: none; stroke: #1f77b4; stroke-width: 1.5; stroke-linecap: square"/>
    </g>
    <g id="text_6">
     <!-- $\epsilon_x$ -->
     <g transform="translate(96.291719 27.398438)scale(0.1 -0.1)">
      <defs>
       <path id="DejaVuSans-Oblique-78" d="M 3841 3500 
L 2234 1784 
L 3219 0 
L 2559 0 
L 1819 1388 
L 531 0 
L -166 0 
L 1556 1844 
L 641 3500 
L 1300 3500 
L 1972 2234 
L 3144 3500 
L 3841 3500 
z
" transform="scale(0.015625)"/>
      </defs>
      <use xlink:href="#DejaVuSans-Oblique-3b5" transform="translate(0 0.9375)"/>
      <use xlink:href="#DejaVuSans-Oblique-78" transform="translate(54.052734 -15.46875)scale(0.7)"/>
     </g>
    </g>
    <g id="line2d_50">
     <path d="M 68.291719 38.576563 
L 78.291719 38.576563 
L 88.291719 38.576563 
" style="fill: none; stroke: #ff7f0e; stroke-width: 1.5; stroke-linecap: square"/>
    </g>
    <g id="text_7">
     <!-- $\epsilon_y$ -->
     <g transform="translate(96.291719 42.076563)scale(0.1 -0.1)">
      <defs>
       <path id="DejaVuSans-Oblique-79" d="M 1588 -325 
Q 1188 -997 936 -1164 
Q 684 -1331 294 -1331 
L -159 -1331 
L -63 -850 
L 269 -850 
Q 509 -850 678 -719 
Q 847 -588 1056 -206 
L 1234 128 
L 459 3500 
L 1069 3500 
L 1650 819 
L 3256 3500 
L 3859 3500 
L 1588 -325 
z
" transform="scale(0.015625)"/>
      </defs>
      <use xlink:href="#DejaVuSans-Oblique-3b5" transform="translate(0 0.9375)"/>
      <use xlink:href="#DejaVuSans-Oblique-79" transform="translate(54.052734 -15.46875)scale(0.7)"/>
     </g>
    </g>
    <g id="line2d_51">
     <path d="M 68.291719 54.275 
L 78.291719 54.275 
L 88.291719 54.275 
" style="fill: none; stroke: #2ca02c; stroke-width: 1.5; stroke-linecap: square"/>
    </g>
    <g id="text_8">
     <!-- $\epsilon_z$ -->
     <g transform="translate(96.291719 57.775)scale(0.1 -0.1)">
      <defs>
       <path id="DejaVuSans-Oblique-7a" d="M 744 3500 
L 3475 3500 
L 3372 2975 
L 738 459 
L 2913 459 
L 2822 0 
L -19 0 
L 84 525 
L 2719 3041 
L 653 3041 
L 744 3500 
z
" transform="scale(0.015625)"/>
      </defs>
      <use xlink:href="#DejaVuSans-Oblique-3b5" transform="translate(0 0.9375)"/>
      <use xlink:href="#DejaVuSans-Oblique-7a" transform="translate(54.052734 -15.46875)scale(0.7)"/>
     </g>
    </g>
   </g>
  </g>
  <g id="axes_2">
   <g id="patch_8">
    <path d="M 59.291719 822.2 
L 565.2 822.2 
L 565.2 423.65 
L 59.291719 423.65 
z
" style="fill: #ffffff"/>
   </g>
   <g id="matplotlib.axis_3">
    <g id="xtick_7">
     <g id="line2d_52">
      <g>
       <use xlink:href="#m0cd0668994" x="82.28755" y="822.2" style="stroke: #000000; stroke-width: 0.8"/>
      </g>
     </g>
     <g id="text_9">
      <!-- 0 -->
      <g transform="translate(79.1063 836.798438)scale(0.1 -0.1)">
       <use xlink:href="#DejaVuSans-30"/>
      </g>
     </g>
    </g>
    <g id="xtick_8">
     <g id="line2d_53">
      <g>
       <use xlink:href="#m0cd0668994" x="174.640285" y="822.2" style="stroke: #000000; stroke-width: 0.8"/>
      </g>
     </g>
     <g id="text_10">
      <!-- 500 -->
      <g transform="translate(165.096535 836.798438)scale(0.1 -0.1)">
       <defs>
        <path id="DejaVuSans-35" d="M 691 4666 
L 3169 4666 
L 3169 4134 
L 1269 4134 
L 1269 2991 
Q 1406 3038 1543 3061 
Q 1681 3084 1819 3084 
Q 2600 3084 3056 2656 
Q 3513 2228 3513 1497 
Q 3513 744 3044 326 
Q 2575 -91 1722 -91 
Q 1428 -91 1123 -41 
Q 819 9 494 109 
L 494 744 
Q 775 591 1075 516 
Q 1375 441 1709 441 
Q 2250 441 2565 725 
Q 2881 1009 2881 1497 
Q 2881 1984 2565 2268 
Q 2250 2553 1709 2553 
Q 1456 2553 1204 2497 
Q 953 2441 691 2322 
L 691 4666 
z
" transform="scale(0.015625)"/>
       </defs>
       <use xlink:href="#DejaVuSans-35"/>
       <use xlink:href="#DejaVuSans-30" x="63.623047"/>
       <use xlink:href="#DejaVuSans-30" x="127.246094"/>
      </g>
     </g>
    </g>
    <g id="xtick_9">
     <g id="line2d_54">
      <g>
       <use xlink:href="#m0cd0668994" x="266.993019" y="822.2" style="stroke: #000000; stroke-width: 0.8"/>
      </g>
     </g>
     <g id="text_11">
      <!-- 1000 -->
      <g transform="translate(254.268019 836.798438)scale(0.1 -0.1)">
       <use xlink:href="#DejaVuSans-31"/>
       <use xlink:href="#DejaVuSans-30" x="63.623047"/>
       <use xlink:href="#DejaVuSans-30" x="127.246094"/>
       <use xlink:href="#DejaVuSans-30" x="190.869141"/>
      </g>
     </g>
    </g>
    <g id="xtick_10">
     <g id="line2d_55">
      <g>
       <use xlink:href="#m0cd0668994" x="359.345754" y="822.2" style="stroke: #000000; stroke-width: 0.8"/>
      </g>
     </g>
     <g id="text_12">
      <!-- 1500 -->
      <g transform="translate(346.620754 836.798438)scale(0.1 -0.1)">
       <use xlink:href="#DejaVuSans-31"/>
       <use xlink:href="#DejaVuSans-35" x="63.623047"/>
       <use xlink:href="#DejaVuSans-30" x="127.246094"/>
       <use xlink:href="#DejaVuSans-30" x="190.869141"/>
      </g>
     </g>
    </g>
    <g id="xtick_11">
     <g id="line2d_56">
      <g>
       <use xlink:href="#m0cd0668994" x="451.698489" y="822.2" style="stroke: #000000; stroke-width: 0.8"/>
      </g>
     </g>
     <g id="text_13">
      <!-- 2000 -->
      <g transform="translate(438.973489 836.798438)scale(0.1 -0.1)">
       <use xlink:href="#DejaVuSans-32"/>
       <use xlink:href="#DejaVuSans-30" x="63.623047"/>
       <use xlink:href="#DejaVuSans-30" x="127.246094"/>
       <use xlink:href="#DejaVuSans-30" x="190.869141"/>
      </g>
     </g>
    </g>
    <g id="xtick_12">
     <g id="line2d_57">
      <g>
       <use xlink:href="#m0cd0668994" x="544.051224" y="822.2" style="stroke: #000000; stroke-width: 0.8"/>
      </g>
     </g>
     <g id="text_14">
      <!-- 2500 -->
      <g transform="translate(531.326224 836.798438)scale(0.1 -0.1)">
       <use xlink:href="#DejaVuSans-32"/>
       <use xlink:href="#DejaVuSans-35" x="63.623047"/>
       <use xlink:href="#DejaVuSans-30" x="127.246094"/>
       <use xlink:href="#DejaVuSans-30" x="190.869141"/>
      </g>
     </g>
    </g>
    <g id="text_15">
     <!-- training iteration -->
     <g transform="translate(270.164609 850.476563)scale(0.1 -0.1)">
      <defs>
       <path id="DejaVuSans-74" d="M 1172 4494 
L 1172 3500 
L 2356 3500 
L 2356 3053 
L 1172 3053 
L 1172 1153 
Q 1172 725 1289 603 
Q 1406 481 1766 481 
L 2356 481 
L 2356 0 
L 1766 0 
Q 1100 0 847 248 
Q 594 497 594 1153 
L 594 3053 
L 172 3053 
L 172 3500 
L 594 3500 
L 594 4494 
L 1172 4494 
z
" transform="scale(0.015625)"/>
       <path id="DejaVuSans-69" d="M 603 3500 
L 1178 3500 
L 1178 0 
L 603 0 
L 603 3500 
z
M 603 4863 
L 1178 4863 
L 1178 4134 
L 603 4134 
L 603 4863 
z
" transform="scale(0.015625)"/>
       <path id="DejaVuSans-6e" d="M 3513 2113 
L 3513 0 
L 2938 0 
L 2938 2094 
Q 2938 2591 2744 2837 
Q 2550 3084 2163 3084 
Q 1697 3084 1428 2787 
Q 1159 2491 1159 1978 
L 1159 0 
L 581 0 
L 581 3500 
L 1159 3500 
L 1159 2956 
Q 1366 3272 1645 3428 
Q 1925 3584 2291 3584 
Q 2894 3584 3203 3211 
Q 3513 2838 3513 2113 
z
" transform="scale(0.015625)"/>
       <path id="DejaVuSans-67" d="M 2906 1791 
Q 2906 2416 2648 2759 
Q 2391 3103 1925 3103 
Q 1463 3103 1205 2759 
Q 947 2416 947 1791 
Q 947 1169 1205 825 
Q 1463 481 1925 481 
Q 2391 481 2648 825 
Q 2906 1169 2906 1791 
z
M 3481 434 
Q 3481 -459 3084 -895 
Q 2688 -1331 1869 -1331 
Q 1566 -1331 1297 -1286 
Q 1028 -1241 775 -1147 
L 775 -588 
Q 1028 -725 1275 -790 
Q 1522 -856 1778 -856 
Q 2344 -856 2625 -561 
Q 2906 -266 2906 331 
L 2906 616 
Q 2728 306 2450 153 
Q 2172 0 1784 0 
Q 1141 0 747 490 
Q 353 981 353 1791 
Q 353 2603 747 3093 
Q 1141 3584 1784 3584 
Q 2172 3584 2450 3431 
Q 2728 3278 2906 2969 
L 2906 3500 
L 3481 3500 
L 3481 434 
z
" transform="scale(0.015625)"/>
       <path id="DejaVuSans-65" d="M 3597 1894 
L 3597 1613 
L 953 1613 
Q 991 1019 1311 708 
Q 1631 397 2203 397 
Q 2534 397 2845 478 
Q 3156 559 3463 722 
L 3463 178 
Q 3153 47 2828 -22 
Q 2503 -91 2169 -91 
Q 1331 -91 842 396 
Q 353 884 353 1716 
Q 353 2575 817 3079 
Q 1281 3584 2069 3584 
Q 2775 3584 3186 3129 
Q 3597 2675 3597 1894 
z
M 3022 2063 
Q 3016 2534 2758 2815 
Q 2500 3097 2075 3097 
Q 1594 3097 1305 2825 
Q 1016 2553 972 2059 
L 3022 2063 
z
" transform="scale(0.015625)"/>
       <path id="DejaVuSans-6f" d="M 1959 3097 
Q 1497 3097 1228 2736 
Q 959 2375 959 1747 
Q 959 1119 1226 758 
Q 1494 397 1959 397 
Q 2419 397 2687 759 
Q 2956 1122 2956 1747 
Q 2956 2369 2687 2733 
Q 2419 3097 1959 3097 
z
M 1959 3584 
Q 2709 3584 3137 3096 
Q 3566 2609 3566 1747 
Q 3566 888 3137 398 
Q 2709 -91 1959 -91 
Q 1206 -91 779 398 
Q 353 888 353 1747 
Q 353 2609 779 3096 
Q 1206 3584 1959 3584 
z
" transform="scale(0.015625)"/>
      </defs>
      <use xlink:href="#DejaVuSans-74"/>
      <use xlink:href="#DejaVuSans-72" x="39.208984"/>
      <use xlink:href="#DejaVuSans-61" x="80.322266"/>
      <use xlink:href="#DejaVuSans-69" x="141.601562"/>
      <use xlink:href="#DejaVuSans-6e" x="169.384766"/>
      <use xlink:href="#DejaVuSans-69" x="232.763672"/>
      <use xlink:href="#DejaVuSans-6e" x="260.546875"/>
      <use xlink:href="#DejaVuSans-67" x="323.925781"/>
      <use xlink:href="#DejaVuSans-20" x="387.402344"/>
      <use xlink:href="#DejaVuSans-69" x="419.189453"/>
      <use xlink:href="#DejaVuSans-74" x="446.972656"/>
      <use xlink:href="#DejaVuSans-65" x="486.181641"/>
      <use xlink:href="#DejaVuSans-72" x="547.705078"/>
      <use xlink:href="#DejaVuSans-61" x="588.818359"/>
      <use xlink:href="#DejaVuSans-74" x="650.097656"/>
      <use xlink:href="#DejaVuSans-69" x="689.306641"/>
      <use xlink:href="#DejaVuSans-6f" x="717.089844"/>
      <use xlink:href="#DejaVuSans-6e" x="778.271484"/>
     </g>
    </g>
   </g>
   <g id="matplotlib.axis_4">
    <g id="ytick_37">
     <g id="line2d_58">
      <g>
       <use xlink:href="#mc62b3dc80a" x="59.291719" y="670.280621" style="stroke: #000000; stroke-width: 0.8"/>
      </g>
     </g>
     <g id="text_16">
      <!-- $\mathdefault{10^{-2}}$ -->
      <g transform="translate(28.791719 674.07984)scale(0.1 -0.1)">
       <defs>
        <path id="DejaVuSans-2212" d="M 678 2272 
L 4684 2272 
L 4684 1741 
L 678 1741 
L 678 2272 
z
" transform="scale(0.015625)"/>
       </defs>
       <use xlink:href="#DejaVuSans-31" transform="translate(0 0.765625)"/>
       <use xlink:href="#DejaVuSans-30" transform="translate(63.623047 0.765625)"/>
       <use xlink:href="#DejaVuSans-2212" transform="translate(128.203125 39.046875)scale(0.7)"/>
       <use xlink:href="#DejaVuSans-32" transform="translate(186.855469 39.046875)scale(0.7)"/>
      </g>
     </g>
    </g>
    <g id="ytick_38">
     <g id="line2d_59">
      <g>
       <use xlink:href="#mc62b3dc80a" x="59.291719" y="517.296355" style="stroke: #000000; stroke-width: 0.8"/>
      </g>
     </g>
     <g id="text_17">
      <!-- $\mathdefault{10^{-1}}$ -->
      <g transform="translate(28.791719 521.095574)scale(0.1 -0.1)">
       <use xlink:href="#DejaVuSans-31" transform="translate(0 0.684375)"/>
       <use xlink:href="#DejaVuSans-30" transform="translate(63.623047 0.684375)"/>
       <use xlink:href="#DejaVuSans-2212" transform="translate(128.203125 38.965625)scale(0.7)"/>
       <use xlink:href="#DejaVuSans-31" transform="translate(186.855469 38.965625)scale(0.7)"/>
      </g>
     </g>
    </g>
    <g id="ytick_39">
     <g id="line2d_60">
      <g>
       <use xlink:href="#m27f5033e7f" x="59.291719" y="777.212034" style="stroke: #000000; stroke-width: 0.6"/>
      </g>
     </g>
    </g>
    <g id="ytick_40">
     <g id="line2d_61">
      <g>
       <use xlink:href="#m27f5033e7f" x="59.291719" y="750.272842" style="stroke: #000000; stroke-width: 0.6"/>
      </g>
     </g>
    </g>
    <g id="ytick_41">
     <g id="line2d_62">
      <g>
       <use xlink:href="#m27f5033e7f" x="59.291719" y="731.159181" style="stroke: #000000; stroke-width: 0.6"/>
      </g>
     </g>
    </g>
    <g id="ytick_42">
     <g id="line2d_63">
      <g>
       <use xlink:href="#m27f5033e7f" x="59.291719" y="716.333474" style="stroke: #000000; stroke-width: 0.6"/>
      </g>
     </g>
    </g>
    <g id="ytick_43">
     <g id="line2d_64">
      <g>
       <use xlink:href="#m27f5033e7f" x="59.291719" y="704.219989" style="stroke: #000000; stroke-width: 0.6"/>
      </g>
     </g>
    </g>
    <g id="ytick_44">
     <g id="line2d_65">
      <g>
       <use xlink:href="#m27f5033e7f" x="59.291719" y="693.978184" style="stroke: #000000; stroke-width: 0.6"/>
      </g>
     </g>
    </g>
    <g id="ytick_45">
     <g id="line2d_66">
      <g>
       <use xlink:href="#m27f5033e7f" x="59.291719" y="685.106328" style="stroke: #000000; stroke-width: 0.6"/>
      </g>
     </g>
    </g>
    <g id="ytick_46">
     <g id="line2d_67">
      <g>
       <use xlink:href="#m27f5033e7f" x="59.291719" y="677.280797" style="stroke: #000000; stroke-width: 0.6"/>
      </g>
     </g>
    </g>
    <g id="ytick_47">
     <g id="line2d_68">
      <g>
       <use xlink:href="#m27f5033e7f" x="59.291719" y="624.227768" style="stroke: #000000; stroke-width: 0.6"/>
      </g>
     </g>
    </g>
    <g id="ytick_48">
     <g id="line2d_69">
      <g>
       <use xlink:href="#m27f5033e7f" x="59.291719" y="597.288576" style="stroke: #000000; stroke-width: 0.6"/>
      </g>
     </g>
    </g>
    <g id="ytick_49">
     <g id="line2d_70">
      <g>
       <use xlink:href="#m27f5033e7f" x="59.291719" y="578.174915" style="stroke: #000000; stroke-width: 0.6"/>
      </g>
     </g>
    </g>
    <g id="ytick_50">
     <g id="line2d_71">
      <g>
       <use xlink:href="#m27f5033e7f" x="59.291719" y="563.349208" style="stroke: #000000; stroke-width: 0.6"/>
      </g>
     </g>
    </g>
    <g id="ytick_51">
     <g id="line2d_72">
      <g>
       <use xlink:href="#m27f5033e7f" x="59.291719" y="551.235723" style="stroke: #000000; stroke-width: 0.6"/>
      </g>
     </g>
    </g>
    <g id="ytick_52">
     <g id="line2d_73">
      <g>
       <use xlink:href="#m27f5033e7f" x="59.291719" y="540.993918" style="stroke: #000000; stroke-width: 0.6"/>
      </g>
     </g>
    </g>
    <g id="ytick_53">
     <g id="line2d_74">
      <g>
       <use xlink:href="#m27f5033e7f" x="59.291719" y="532.122063" style="stroke: #000000; stroke-width: 0.6"/>
      </g>
     </g>
    </g>
    <g id="ytick_54">
     <g id="line2d_75">
      <g>
       <use xlink:href="#m27f5033e7f" x="59.291719" y="524.296531" style="stroke: #000000; stroke-width: 0.6"/>
      </g>
     </g>
    </g>
    <g id="ytick_55">
     <g id="line2d_76">
      <g>
       <use xlink:href="#m27f5033e7f" x="59.291719" y="471.243502" style="stroke: #000000; stroke-width: 0.6"/>
      </g>
     </g>
    </g>
    <g id="ytick_56">
     <g id="line2d_77">
      <g>
       <use xlink:href="#m27f5033e7f" x="59.291719" y="444.304311" style="stroke: #000000; stroke-width: 0.6"/>
      </g>
     </g>
    </g>
    <g id="ytick_57">
     <g id="line2d_78">
      <g>
       <use xlink:href="#m27f5033e7f" x="59.291719" y="425.19065" style="stroke: #000000; stroke-width: 0.6"/>
      </g>
     </g>
    </g>
    <g id="text_18">
     <!-- $\sigma$ (arb. u.) -->
     <g transform="translate(22.712031 647.825)rotate(-90)scale(0.1 -0.1)">
      <defs>
       <path id="DejaVuSans-Oblique-3c3" d="M 2219 3044 
Q 1744 3044 1422 2700 
Q 1081 2341 969 1747 
Q 844 1119 1044 756 
Q 1241 397 1706 397 
Q 2166 397 2503 759 
Q 2844 1122 2966 1747 
Q 3075 2319 2881 2700 
Q 2700 3044 2219 3044 
z
M 2309 3503 
L 4219 3500 
L 4106 2925 
L 3463 2925 
Q 3706 2438 3575 1747 
Q 3406 888 2884 400 
Q 2359 -91 1609 -91 
Q 856 -91 525 400 
Q 194 888 363 1747 
Q 528 2609 1050 3097 
Q 1484 3503 2309 3503 
z
" transform="scale(0.015625)"/>
      </defs>
      <use xlink:href="#DejaVuSans-Oblique-3c3" transform="translate(0 0.015625)"/>
      <use xlink:href="#DejaVuSans-20" transform="translate(63.378906 0.015625)"/>
      <use xlink:href="#DejaVuSans-28" transform="translate(95.166016 0.015625)"/>
      <use xlink:href="#DejaVuSans-61" transform="translate(134.179688 0.015625)"/>
      <use xlink:href="#DejaVuSans-72" transform="translate(195.458984 0.015625)"/>
      <use xlink:href="#DejaVuSans-62" transform="translate(236.572266 0.015625)"/>
      <use xlink:href="#DejaVuSans-2e" transform="translate(300.048828 0.015625)"/>
      <use xlink:href="#DejaVuSans-20" transform="translate(331.835938 0.015625)"/>
      <use xlink:href="#DejaVuSans-75" transform="translate(363.623047 0.015625)"/>
      <use xlink:href="#DejaVuSans-2e" transform="translate(427.001953 0.015625)"/>
      <use xlink:href="#DejaVuSans-29" transform="translate(458.789062 0.015625)"/>
     </g>
    </g>
   </g>
   <g id="line2d_79">
    <path d="M 82.28755 804.084091 
L 84.134604 735.73629 
L 85.981659 723.36757 
L 87.828714 724.083893 
L 89.675769 726.38046 
L 91.522823 724.059067 
L 93.369878 722.508624 
L 95.216933 724.534883 
L 97.063987 721.611361 
L 98.911042 722.398608 
L 100.758097 721.474769 
L 102.605151 722.858502 
L 104.452206 721.832794 
L 106.299261 722.844762 
L 108.146315 720.929996 
L 109.99337 721.355025 
L 111.840425 721.952945 
L 113.68748 721.839509 
L 115.534534 721.609191 
L 119.228644 720.03442 
L 121.075698 722.526471 
L 122.922753 722.305961 
L 124.769808 721.339317 
L 126.616862 722.050375 
L 128.463917 722.543454 
L 130.310972 721.904089 
L 132.158027 722.519686 
L 134.005081 724.376877 
L 135.852136 723.722124 
L 137.699191 721.657683 
L 139.546245 722.37023 
L 141.3933 718.300439 
L 143.240355 722.425995 
L 145.087409 721.586512 
L 146.934464 721.111966 
L 148.781519 719.866335 
L 150.628573 721.048683 
L 152.475628 721.272131 
L 154.322683 722.096207 
L 156.169738 720.964625 
L 158.016792 720.047414 
L 159.863847 720.380163 
L 161.710902 722.791891 
L 163.557956 720.663891 
L 165.405011 722.734333 
L 167.252066 722.256168 
L 169.09912 722.90784 
L 170.946175 719.747954 
L 172.79323 722.560638 
L 174.640285 720.342143 
L 176.487339 720.040367 
L 178.334394 720.688108 
L 180.181449 720.809719 
L 182.028503 721.875854 
L 183.875558 723.550329 
L 185.722613 722.996727 
L 187.569667 723.137099 
L 189.416722 723.504406 
L 191.263777 722.65522 
L 193.110831 721.581717 
L 194.957886 721.825945 
L 196.804941 720.530009 
L 198.651996 721.28033 
L 200.49905 720.185841 
L 204.19316 718.185087 
L 206.040214 719.957188 
L 207.887269 721.99772 
L 209.734324 720.58198 
L 211.581378 720.78047 
L 213.428433 721.40215 
L 215.275488 720.468785 
L 217.122543 721.184541 
L 218.969597 722.442341 
L 220.816652 718.456509 
L 222.663707 718.533639 
L 224.510761 718.238153 
L 226.357816 721.69633 
L 228.204871 719.81134 
L 230.051925 720.841571 
L 231.89898 719.984972 
L 233.746035 720.512024 
L 235.593089 720.780106 
L 237.440144 721.295803 
L 239.287199 721.426998 
L 241.134254 719.946446 
L 242.981308 722.297858 
L 244.828363 720.861818 
L 246.675418 720.343484 
L 248.522472 720.925235 
L 250.369527 720.678813 
L 252.216582 721.135096 
L 254.063636 720.833784 
L 255.910691 720.03332 
L 257.757746 720.657287 
L 259.604801 720.460311 
L 265.145965 721.78007 
L 266.993019 722.237473 
L 268.840074 721.635912 
L 270.687129 720.639598 
L 272.534183 720.746168 
L 274.381238 721.294623 
L 276.228293 720.049854 
L 278.075347 722.028778 
L 279.922402 722.159031 
L 281.769457 719.400428 
L 283.616512 721.091603 
L 285.463566 721.301458 
L 289.157676 721.168362 
L 291.00473 720.844326 
L 292.851785 721.04137 
L 294.69884 720.850644 
L 296.545894 720.829857 
L 298.392949 720.946058 
L 300.240004 721.274837 
L 302.087059 719.503859 
L 303.934113 720.966489 
L 305.781168 720.395198 
L 307.628223 721.078237 
L 309.475277 720.535275 
L 311.322332 721.840827 
L 313.169387 720.705374 
L 315.016441 719.786978 
L 316.863496 721.483628 
L 318.710551 720.277454 
L 320.557606 720.733803 
L 322.40466 721.065704 
L 324.251715 719.880601 
L 326.09877 717.18339 
L 327.945824 719.966448 
L 331.639934 720.912505 
L 333.486988 718.52858 
L 335.334043 720.24389 
L 337.181098 721.667713 
L 339.028152 719.669766 
L 340.875207 720.483682 
L 342.722262 720.439007 
L 344.569317 721.521163 
L 346.416371 720.827381 
L 348.263426 719.976488 
L 350.110481 720.382478 
L 351.957535 721.616426 
L 353.80459 721.261914 
L 355.651645 720.240891 
L 357.498699 719.037695 
L 359.345754 721.282716 
L 361.192809 722.175771 
L 363.039864 721.760078 
L 364.886918 719.926215 
L 366.733973 720.526594 
L 368.581028 720.101275 
L 370.428082 721.476841 
L 372.275137 721.691513 
L 374.122192 720.691504 
L 375.969246 721.907931 
L 377.816301 719.432259 
L 379.663356 719.815565 
L 381.51041 719.653118 
L 383.357465 719.619933 
L 385.20452 720.773689 
L 387.051575 720.864673 
L 388.898629 720.393632 
L 390.745684 721.349946 
L 392.592739 721.242478 
L 394.439793 718.250444 
L 396.286848 719.992674 
L 398.133903 721.033061 
L 399.980957 720.860917 
L 401.828012 722.682761 
L 403.675067 722.741801 
L 405.522122 720.880752 
L 407.369176 720.405513 
L 409.216231 720.938039 
L 411.063286 721.32336 
L 412.91034 722.281209 
L 414.757395 719.89068 
L 416.60445 720.845273 
L 418.451504 721.332025 
L 420.298559 720.74148 
L 422.145614 721.338009 
L 423.992668 720.538334 
L 425.839723 722.823302 
L 427.686778 720.62394 
L 429.533833 719.98409 
L 431.380887 721.082849 
L 433.227942 721.959464 
L 435.074997 720.907779 
L 436.922051 720.915973 
L 438.769106 721.370416 
L 440.616161 720.568295 
L 442.463215 718.134549 
L 444.31027 721.098935 
L 446.157325 721.123191 
L 448.00438 720.807297 
L 449.851434 721.148826 
L 453.545544 720.856426 
L 455.392598 721.135103 
L 457.239653 720.910238 
L 459.086708 720.541201 
L 460.933762 721.483828 
L 462.780817 720.819847 
L 464.627872 719.281554 
L 466.474926 721.167703 
L 468.321981 720.505211 
L 470.169036 720.146824 
L 472.016091 720.515872 
L 473.863145 720.755763 
L 475.7102 720.355716 
L 477.557255 720.626461 
L 479.404309 721.672695 
L 481.251364 720.722704 
L 483.098419 720.123145 
L 484.945473 721.147436 
L 486.792528 720.19754 
L 488.639583 721.648801 
L 490.486638 720.891832 
L 492.333692 721.139553 
L 494.180747 720.661131 
L 496.027802 721.094827 
L 497.874856 720.771883 
L 499.721911 719.609941 
L 501.568966 720.360029 
L 503.41602 720.687018 
L 505.263075 720.564245 
L 507.11013 721.551175 
L 508.957185 721.467014 
L 510.804239 720.727265 
L 512.651294 719.708751 
L 514.498349 720.956571 
L 516.345403 720.274414 
L 518.192458 720.381287 
L 520.039513 720.161112 
L 521.886567 719.641606 
L 523.733622 721.904378 
L 525.580677 720.446577 
L 527.427731 721.163111 
L 529.274786 720.614647 
L 531.121841 721.095159 
L 532.968896 720.822224 
L 534.81595 720.367735 
L 536.663005 720.685366 
L 538.51006 721.254124 
L 540.357114 721.113961 
L 542.204169 719.862152 
L 542.204169 719.862152 
" clip-path="url(#p5c30e6effe)" style="fill: none; stroke: #1f77b4; stroke-width: 1.5; stroke-linecap: square"/>
   </g>
   <g id="line2d_80">
    <path d="M 59.291719 723.745995 
L 565.2 723.745995 
" clip-path="url(#p5c30e6effe)" style="fill: none; stroke-dasharray: 5.55,2.4; stroke-dashoffset: 0; stroke: #1f77b4; stroke-width: 1.5"/>
   </g>
   <g id="line2d_81">
    <path d="M 82.28755 756.412707 
L 84.134604 752.521322 
L 85.981659 763.756575 
L 89.675769 769.074594 
L 91.522823 766.113361 
L 93.369878 766.676661 
L 95.216933 765.018534 
L 97.063987 766.006048 
L 98.911042 766.583039 
L 100.758097 767.835489 
L 102.605151 765.111612 
L 104.452206 765.415876 
L 106.299261 767.53745 
L 108.146315 763.706288 
L 109.99337 765.870491 
L 111.840425 761.831576 
L 113.68748 765.716041 
L 115.534534 768.439754 
L 117.381589 763.702811 
L 119.228644 765.309379 
L 121.075698 767.99075 
L 122.922753 767.351417 
L 124.769808 767.010837 
L 126.616862 767.121361 
L 128.463917 766.34214 
L 130.310972 766.03102 
L 132.158027 767.291353 
L 134.005081 767.008217 
L 135.852136 766.372488 
L 137.699191 767.228202 
L 141.3933 764.82199 
L 143.240355 767.039607 
L 145.087409 765.134316 
L 146.934464 768.91169 
L 148.781519 766.697515 
L 150.628573 767.722631 
L 152.475628 763.604436 
L 154.322683 765.476626 
L 156.169738 766.650594 
L 158.016792 764.814756 
L 159.863847 766.174098 
L 161.710902 765.327111 
L 163.557956 765.14648 
L 165.405011 766.40308 
L 167.252066 767.909164 
L 169.09912 766.130818 
L 170.946175 767.267928 
L 172.79323 765.94709 
L 174.640285 765.073452 
L 176.487339 764.789602 
L 178.334394 765.270193 
L 180.181449 766.143559 
L 182.028503 767.185115 
L 183.875558 769.597119 
L 185.722613 768.437355 
L 187.569667 763.870575 
L 189.416722 766.816176 
L 193.110831 766.217373 
L 194.957886 764.151191 
L 196.804941 764.406922 
L 198.651996 765.692469 
L 200.49905 764.480395 
L 202.346105 768.141489 
L 204.19316 760.128775 
L 206.040214 764.908835 
L 207.887269 765.483226 
L 209.734324 764.618384 
L 213.428433 765.847222 
L 215.275488 763.708876 
L 217.122543 765.872154 
L 218.969597 765.181255 
L 220.816652 763.74664 
L 222.663707 766.415932 
L 224.510761 763.770303 
L 226.357816 763.934109 
L 228.204871 764.280614 
L 230.051925 765.343781 
L 231.89898 763.34519 
L 233.746035 765.034399 
L 235.593089 765.668424 
L 237.440144 765.038919 
L 239.287199 764.721938 
L 241.134254 764.120748 
L 242.981308 766.455267 
L 244.828363 765.168666 
L 246.675418 765.12926 
L 248.522472 764.475325 
L 250.369527 763.270653 
L 254.063636 764.527233 
L 255.910691 763.935705 
L 257.757746 764.568585 
L 259.604801 764.197562 
L 261.451855 764.702041 
L 263.29891 764.730732 
L 265.145965 765.484555 
L 266.993019 767.907994 
L 270.687129 764.918129 
L 272.534183 763.992219 
L 274.381238 764.936027 
L 278.075347 765.396469 
L 279.922402 766.484271 
L 281.769457 762.075203 
L 283.616512 766.259273 
L 285.463566 765.203272 
L 287.310621 764.95256 
L 289.157676 767.125614 
L 291.00473 766.444604 
L 292.851785 765.333055 
L 294.69884 765.103232 
L 296.545894 765.602334 
L 298.392949 763.46385 
L 300.240004 765.336522 
L 302.087059 763.40542 
L 303.934113 763.92915 
L 305.781168 763.501669 
L 307.628223 765.362053 
L 311.322332 766.16834 
L 313.169387 764.464318 
L 315.016441 763.439862 
L 316.863496 766.108243 
L 318.710551 763.936807 
L 320.557606 764.951004 
L 322.40466 764.406737 
L 324.251715 763.593496 
L 326.09877 762.475281 
L 327.945824 764.929733 
L 329.792879 764.594999 
L 331.639934 763.07646 
L 333.486988 763.120422 
L 335.334043 763.950907 
L 337.181098 765.555641 
L 339.028152 764.306373 
L 340.875207 763.814335 
L 342.722262 763.890111 
L 344.569317 765.741972 
L 346.416371 763.71339 
L 348.263426 763.510385 
L 350.110481 763.607039 
L 351.957535 765.784178 
L 353.80459 765.559347 
L 355.651645 764.159751 
L 357.498699 764.725464 
L 359.345754 765.76495 
L 361.192809 766.39629 
L 363.039864 765.068813 
L 364.886918 762.809989 
L 366.733973 764.785592 
L 368.581028 764.573017 
L 370.428082 764.006186 
L 372.275137 764.910711 
L 374.122192 764.50289 
L 375.969246 765.452322 
L 377.816301 762.669369 
L 379.663356 761.998816 
L 381.51041 763.511285 
L 383.357465 763.35543 
L 385.20452 764.302679 
L 387.051575 764.460506 
L 388.898629 764.070007 
L 390.745684 765.174428 
L 392.592739 765.061617 
L 394.439793 760.979064 
L 396.286848 763.4728 
L 398.133903 765.110652 
L 399.980957 765.332059 
L 401.828012 766.964311 
L 405.522122 766.323013 
L 407.369176 762.609039 
L 409.216231 763.430269 
L 411.063286 765.56206 
L 412.91034 765.146699 
L 414.757395 762.220512 
L 416.60445 764.288198 
L 422.145614 764.837788 
L 423.992668 763.713402 
L 425.839723 766.421909 
L 427.686778 763.838591 
L 429.533833 763.264276 
L 433.227942 765.73247 
L 435.074997 765.485553 
L 436.922051 763.671109 
L 438.769106 765.512555 
L 442.463215 759.12331 
L 444.31027 765.304213 
L 446.157325 764.771942 
L 448.00438 763.485129 
L 449.851434 765.15133 
L 451.698489 764.875968 
L 453.545544 764.256629 
L 455.392598 764.897421 
L 457.239653 764.339169 
L 459.086708 764.47228 
L 460.933762 765.449082 
L 462.780817 762.752741 
L 464.627872 764.289522 
L 466.474926 765.303036 
L 468.321981 765.15533 
L 470.169036 763.789234 
L 473.863145 764.104027 
L 475.7102 763.493433 
L 477.557255 764.56551 
L 479.404309 765.999031 
L 481.251364 764.236094 
L 483.098419 763.852152 
L 484.945473 764.672549 
L 486.792528 764.436654 
L 488.639583 765.286422 
L 490.486638 763.585765 
L 492.333692 764.748157 
L 494.180747 765.408778 
L 496.027802 764.355529 
L 497.874856 764.909998 
L 499.721911 763.107447 
L 501.568966 764.521175 
L 503.41602 762.370966 
L 505.263075 763.365684 
L 508.957185 766.557839 
L 510.804239 764.199177 
L 512.651294 764.124775 
L 514.498349 764.637795 
L 516.345403 764.286657 
L 518.192458 763.585904 
L 520.039513 763.1478 
L 521.886567 763.389959 
L 523.733622 765.541125 
L 525.580677 764.784688 
L 527.427731 765.212885 
L 529.274786 764.701919 
L 532.968896 764.8314 
L 534.81595 764.487337 
L 536.663005 763.741625 
L 538.51006 764.998258 
L 540.357114 765.206481 
L 542.204169 763.292259 
L 542.204169 763.292259 
" clip-path="url(#p5c30e6effe)" style="fill: none; stroke: #ff7f0e; stroke-width: 1.5; stroke-linecap: square"/>
   </g>
   <g id="line2d_82">
    <path d="M 59.291719 768.495932 
L 565.2 768.495932 
" clip-path="url(#p5c30e6effe)" style="fill: none; stroke-dasharray: 5.55,2.4; stroke-dashoffset: 0; stroke: #ff7f0e; stroke-width: 1.5"/>
   </g>
   <g id="line2d_83">
    <path d="M 82.28755 740.290812 
L 84.134604 717.07203 
L 85.981659 727.917311 
L 87.828714 731.634296 
L 89.675769 734.775531 
L 91.522823 734.331085 
L 93.369878 734.101082 
L 95.216933 733.731881 
L 97.063987 730.595676 
L 98.911042 728.941054 
L 100.758097 729.91951 
L 102.605151 731.966989 
L 104.452206 730.936823 
L 106.299261 729.03298 
L 108.146315 728.608696 
L 109.99337 729.617003 
L 111.840425 729.203854 
L 113.68748 729.116858 
L 115.534534 727.521668 
L 117.381589 727.081141 
L 119.228644 728.806851 
L 121.075698 727.987682 
L 122.922753 726.986883 
L 124.769808 726.628124 
L 126.616862 729.550608 
L 128.463917 728.419985 
L 130.310972 728.362376 
L 132.158027 728.582627 
L 134.005081 728.162191 
L 135.852136 729.853396 
L 137.699191 729.217569 
L 139.546245 729.685348 
L 141.3933 728.469851 
L 143.240355 726.820458 
L 145.087409 728.699858 
L 146.934464 728.725339 
L 148.781519 728.378871 
L 150.628573 727.776675 
L 152.475628 729.379046 
L 154.322683 728.935242 
L 156.169738 728.945812 
L 158.016792 727.408762 
L 159.863847 727.665639 
L 161.710902 729.451759 
L 163.557956 728.929235 
L 165.405011 726.990079 
L 167.252066 729.503696 
L 169.09912 729.229552 
L 170.946175 730.199892 
L 172.79323 728.397737 
L 174.640285 727.561427 
L 176.487339 728.106726 
L 178.334394 727.237035 
L 180.181449 727.455805 
L 182.028503 726.26678 
L 183.875558 728.026555 
L 185.722613 726.726324 
L 187.569667 727.226266 
L 189.416722 727.174643 
L 193.110831 728.883343 
L 194.957886 727.729316 
L 196.804941 728.702855 
L 198.651996 728.259383 
L 202.346105 727.886851 
L 206.040214 728.101784 
L 207.887269 727.737265 
L 215.275488 727.002415 
L 217.122543 726.259616 
L 218.969597 728.021995 
L 220.816652 727.250102 
L 222.663707 726.762583 
L 224.510761 726.933871 
L 226.357816 727.564094 
L 228.204871 726.987413 
L 230.051925 728.041823 
L 231.89898 728.726018 
L 233.746035 727.916302 
L 235.593089 727.328713 
L 239.287199 727.730308 
L 241.134254 726.515492 
L 242.981308 727.845153 
L 244.828363 726.278472 
L 248.522472 727.467554 
L 250.369527 727.236539 
L 252.216582 727.274763 
L 254.063636 726.1513 
L 255.910691 727.227819 
L 257.757746 727.454481 
L 259.604801 727.034631 
L 261.451855 726.894674 
L 263.29891 727.227207 
L 265.145965 727.843394 
L 266.993019 727.324924 
L 268.840074 725.836631 
L 270.687129 727.863515 
L 272.534183 727.362052 
L 276.228293 726.06626 
L 278.075347 727.902853 
L 279.922402 727.57864 
L 281.769457 726.332129 
L 283.616512 727.881623 
L 285.463566 727.102749 
L 287.310621 727.497742 
L 289.157676 726.778439 
L 291.00473 726.323606 
L 292.851785 726.137902 
L 294.69884 726.907116 
L 296.545894 727.008991 
L 298.392949 728.13824 
L 300.240004 726.775029 
L 302.087059 727.132094 
L 303.934113 727.680149 
L 305.781168 727.584885 
L 307.628223 726.559366 
L 309.475277 728.694738 
L 311.322332 727.621271 
L 313.169387 727.105375 
L 315.016441 727.524194 
L 316.863496 726.565645 
L 318.710551 728.12247 
L 320.557606 727.292596 
L 322.40466 727.389663 
L 324.251715 726.786137 
L 327.945824 727.304601 
L 329.792879 727.05032 
L 331.639934 727.472566 
L 333.486988 727.662909 
L 337.181098 725.755209 
L 339.028152 726.289447 
L 340.875207 727.267869 
L 342.722262 727.443955 
L 344.569317 727.470283 
L 346.416371 726.388097 
L 348.263426 727.268373 
L 350.110481 727.176057 
L 351.957535 726.390545 
L 353.80459 727.934108 
L 355.651645 726.839256 
L 359.345754 726.543042 
L 361.192809 726.091088 
L 363.039864 727.210121 
L 364.886918 727.642828 
L 366.733973 727.028555 
L 368.581028 726.033307 
L 370.428082 726.671299 
L 372.275137 726.767789 
L 374.122192 727.152663 
L 375.969246 726.067206 
L 377.816301 726.7256 
L 379.663356 725.859352 
L 381.51041 725.93253 
L 383.357465 726.709482 
L 385.20452 727.335861 
L 390.745684 726.918841 
L 392.592739 726.709004 
L 394.439793 726.059176 
L 396.286848 726.683431 
L 398.133903 726.82611 
L 399.980957 727.101723 
L 401.828012 725.194645 
L 403.675067 725.499483 
L 405.522122 727.567772 
L 407.369176 725.809173 
L 409.216231 727.815175 
L 411.063286 725.727541 
L 412.91034 725.603873 
L 414.757395 726.815944 
L 416.60445 727.606694 
L 418.451504 726.351458 
L 420.298559 726.325368 
L 422.145614 727.317375 
L 423.992668 726.527502 
L 425.839723 727.288531 
L 427.686778 726.947575 
L 429.533833 727.228468 
L 431.380887 727.020574 
L 433.227942 727.186606 
L 435.074997 726.642453 
L 436.922051 726.667005 
L 438.769106 726.398961 
L 440.616161 728.53588 
L 442.463215 727.345026 
L 444.31027 727.461204 
L 446.157325 725.918947 
L 448.00438 727.181797 
L 451.698489 726.007399 
L 455.392598 726.834415 
L 457.239653 727.744979 
L 459.086708 727.163201 
L 460.933762 729.038884 
L 462.780817 727.428685 
L 464.627872 726.714104 
L 466.474926 727.279374 
L 468.321981 727.21179 
L 470.169036 726.590646 
L 473.863145 726.903698 
L 475.7102 727.701784 
L 477.557255 726.64392 
L 479.404309 727.240928 
L 481.251364 727.399734 
L 483.098419 726.179152 
L 484.945473 727.67598 
L 486.792528 726.275497 
L 488.639583 726.1771 
L 490.486638 727.56712 
L 492.333692 727.580531 
L 494.180747 726.617563 
L 496.027802 727.25299 
L 497.874856 726.165167 
L 499.721911 727.160113 
L 501.568966 726.344257 
L 503.41602 727.040541 
L 505.263075 727.031702 
L 507.11013 727.56364 
L 508.957185 725.507481 
L 510.804239 727.65847 
L 512.651294 725.220287 
L 514.498349 725.517513 
L 516.345403 726.885448 
L 518.192458 727.249781 
L 520.039513 726.167011 
L 521.886567 725.979913 
L 523.733622 726.600438 
L 525.580677 726.315595 
L 527.427731 725.888082 
L 529.274786 727.000744 
L 531.121841 726.336574 
L 532.968896 726.951873 
L 534.81595 725.642963 
L 536.663005 726.551124 
L 540.357114 726.105487 
L 542.204169 726.602763 
L 542.204169 726.602763 
" clip-path="url(#p5c30e6effe)" style="fill: none; stroke: #2ca02c; stroke-width: 1.5; stroke-linecap: square"/>
   </g>
   <g id="line2d_84">
    <path d="M 59.291719 728.585636 
L 565.2 728.585636 
" clip-path="url(#p5c30e6effe)" style="fill: none; stroke-dasharray: 5.55,2.4; stroke-dashoffset: 0; stroke: #2ca02c; stroke-width: 1.5"/>
   </g>
   <g id="line2d_85">
    <path d="M 82.28755 765.38121 
L 84.134604 724.996653 
L 85.981659 730.05319 
L 87.828714 732.608799 
L 89.675769 730.822992 
L 91.522823 732.760437 
L 93.369878 731.762474 
L 95.216933 732.510182 
L 97.063987 732.39599 
L 98.911042 732.986799 
L 100.758097 733.186415 
L 102.605151 732.995688 
L 104.452206 732.502345 
L 106.299261 734.569235 
L 108.146315 732.935726 
L 109.99337 730.072758 
L 111.840425 733.930598 
L 113.68748 732.420785 
L 115.534534 733.744533 
L 117.381589 733.871578 
L 119.228644 733.627166 
L 121.075698 733.026277 
L 122.922753 733.681453 
L 124.769808 733.79927 
L 126.616862 733.706471 
L 130.310972 734.136738 
L 132.158027 734.362688 
L 134.005081 733.111929 
L 135.852136 734.236329 
L 137.699191 734.464639 
L 139.546245 733.985275 
L 141.3933 732.937005 
L 143.240355 733.335981 
L 145.087409 734.666045 
L 146.934464 734.359324 
L 148.781519 733.622301 
L 150.628573 734.209524 
L 152.475628 733.888037 
L 154.322683 734.053488 
L 156.169738 733.536049 
L 159.863847 733.534141 
L 161.710902 733.344162 
L 163.557956 734.068856 
L 165.405011 734.527829 
L 169.09912 734.312785 
L 170.946175 734.430928 
L 172.79323 734.261635 
L 174.640285 733.157303 
L 176.487339 734.542502 
L 178.334394 733.791267 
L 180.181449 733.883887 
L 182.028503 734.472586 
L 183.875558 733.799053 
L 185.722613 734.623303 
L 187.569667 733.457151 
L 189.416722 734.466139 
L 191.263777 733.835324 
L 193.110831 734.038862 
L 194.957886 733.137698 
L 196.804941 734.017905 
L 198.651996 734.276658 
L 202.346105 734.117618 
L 204.19316 732.824658 
L 206.040214 733.570316 
L 207.887269 734.147659 
L 209.734324 733.691721 
L 211.581378 733.975829 
L 213.428433 734.604699 
L 215.275488 734.014231 
L 218.969597 733.212069 
L 220.816652 734.623678 
L 224.510761 734.561529 
L 226.357816 734.165833 
L 230.051925 734.431745 
L 231.89898 734.124569 
L 233.746035 734.45821 
L 235.593089 733.718837 
L 237.440144 733.876425 
L 241.134254 734.474777 
L 242.981308 734.184898 
L 244.828363 733.571182 
L 246.675418 733.380973 
L 248.522472 733.748047 
L 250.369527 733.64215 
L 252.216582 734.148043 
L 254.063636 734.142898 
L 255.910691 734.264163 
L 257.757746 733.670411 
L 259.604801 733.655837 
L 261.451855 733.972617 
L 263.29891 733.801492 
L 265.145965 733.84984 
L 266.993019 733.643423 
L 268.840074 732.903607 
L 270.687129 733.805351 
L 272.534183 733.831568 
L 274.381238 734.079762 
L 276.228293 733.572469 
L 279.922402 733.891188 
L 287.310621 733.582239 
L 289.157676 733.927751 
L 291.00473 733.282754 
L 292.851785 733.887759 
L 294.69884 734.216095 
L 296.545894 734.333405 
L 298.392949 733.04571 
L 300.240004 733.83693 
L 303.934113 733.83414 
L 305.781168 734.449269 
L 307.628223 734.256711 
L 309.475277 732.692497 
L 311.322332 733.627796 
L 313.169387 733.496748 
L 315.016441 733.198497 
L 316.863496 733.406963 
L 318.710551 733.8633 
L 320.557606 733.569378 
L 322.40466 733.769547 
L 324.251715 733.592869 
L 326.09877 733.531316 
L 327.945824 734.048192 
L 329.792879 732.181355 
L 331.639934 732.628375 
L 333.486988 732.531625 
L 335.334043 734.431058 
L 337.181098 733.995207 
L 339.028152 733.435608 
L 340.875207 733.782613 
L 344.569317 733.877928 
L 346.416371 734.09972 
L 348.263426 733.372432 
L 353.80459 733.666262 
L 355.651645 733.853086 
L 357.498699 733.437057 
L 359.345754 734.099122 
L 361.192809 733.692086 
L 363.039864 733.4676 
L 364.886918 733.821419 
L 368.581028 733.788233 
L 370.428082 733.91845 
L 372.275137 734.27502 
L 374.122192 733.850537 
L 375.969246 733.935202 
L 377.816301 733.253153 
L 381.51041 735.268152 
L 385.20452 734.096074 
L 387.051575 734.286475 
L 388.898629 733.591594 
L 390.745684 733.934461 
L 392.592739 733.786093 
L 394.439793 733.492831 
L 399.980957 734.004337 
L 401.828012 732.99116 
L 403.675067 733.756291 
L 405.522122 733.067397 
L 407.369176 734.002456 
L 409.216231 733.356105 
L 411.063286 733.687908 
L 412.91034 733.718741 
L 414.757395 733.92105 
L 416.60445 732.856204 
L 420.298559 733.838404 
L 422.145614 733.533288 
L 423.992668 733.84322 
L 425.839723 733.295657 
L 427.686778 734.09069 
L 429.533833 734.332509 
L 431.380887 733.598245 
L 435.074997 733.896894 
L 436.922051 733.484107 
L 438.769106 733.824502 
L 440.616161 733.807565 
L 442.463215 734.178276 
L 444.31027 733.610964 
L 446.157325 733.715353 
L 449.851434 733.602763 
L 451.698489 733.839443 
L 453.545544 733.566185 
L 455.392598 734.003566 
L 457.239653 734.234413 
L 459.086708 733.749229 
L 460.933762 734.005907 
L 462.780817 734.08978 
L 464.627872 733.253692 
L 466.474926 733.580591 
L 468.321981 734.383523 
L 470.169036 733.359255 
L 472.016091 732.739657 
L 473.863145 733.83224 
L 477.557255 733.376383 
L 479.404309 733.115537 
L 481.251364 734.183963 
L 483.098419 734.193232 
L 484.945473 733.828649 
L 486.792528 733.641107 
L 488.639583 733.846454 
L 490.486638 733.59733 
L 492.333692 733.795258 
L 494.180747 733.657729 
L 496.027802 733.908675 
L 497.874856 733.316947 
L 499.721911 733.676151 
L 501.568966 733.635113 
L 503.41602 734.045833 
L 507.11013 733.399538 
L 508.957185 733.577082 
L 510.804239 733.183193 
L 512.651294 733.6358 
L 514.498349 733.698322 
L 516.345403 733.467989 
L 520.039513 734.050583 
L 521.886567 733.99867 
L 523.733622 733.60527 
L 525.580677 733.80014 
L 527.427731 733.526154 
L 529.274786 734.131371 
L 531.121841 733.666612 
L 532.968896 733.634222 
L 536.663005 733.356629 
L 538.51006 733.796466 
L 540.357114 734.358987 
L 542.204169 733.694859 
L 542.204169 733.694859 
" clip-path="url(#p5c30e6effe)" style="fill: none; stroke: #d62728; stroke-width: 1.5; stroke-linecap: square"/>
   </g>
   <g id="line2d_86">
    <path d="M 59.291719 735.350098 
L 565.2 735.350098 
" clip-path="url(#p5c30e6effe)" style="fill: none; stroke-dasharray: 5.55,2.4; stroke-dashoffset: 0; stroke: #d62728; stroke-width: 1.5"/>
   </g>
   <g id="line2d_87">
    <path d="M 82.28755 740.390607 
L 84.134604 713.378507 
L 85.981659 708.482699 
L 87.828714 697.956368 
L 89.675769 688.543728 
L 91.522823 677.42684 
L 93.369878 669.177026 
L 95.216933 659.33613 
L 98.911042 644.511686 
L 100.758097 637.888032 
L 102.605151 632.021875 
L 104.452206 627.648039 
L 108.146315 619.901748 
L 109.99337 615.822192 
L 111.840425 612.400478 
L 113.68748 609.540383 
L 115.534534 607.030249 
L 119.228644 602.824385 
L 121.075698 599.450116 
L 122.922753 596.813008 
L 124.769808 594.695776 
L 126.616862 592.285759 
L 128.463917 590.544564 
L 130.310972 588.628578 
L 132.158027 586.940949 
L 135.852136 582.989496 
L 137.699191 580.609673 
L 139.546245 579.129799 
L 141.3933 577.294776 
L 143.240355 574.0579 
L 145.087409 572.580263 
L 146.934464 571.291694 
L 150.628573 567.986811 
L 152.475628 566.180082 
L 156.169738 563.721378 
L 158.016792 561.575308 
L 159.863847 560.007582 
L 161.710902 558.783415 
L 163.557956 557.413503 
L 165.405011 555.65302 
L 167.252066 554.783738 
L 169.09912 553.250504 
L 170.946175 552.589521 
L 172.79323 551.426366 
L 174.640285 550.410853 
L 176.487339 549.04074 
L 178.334394 548.098656 
L 180.181449 546.792373 
L 182.028503 545.834978 
L 183.875558 545.246386 
L 185.722613 542.947718 
L 187.569667 542.171006 
L 189.416722 541.153087 
L 191.263777 540.726052 
L 193.110831 539.142994 
L 194.957886 538.432316 
L 198.651996 536.25846 
L 200.49905 535.302671 
L 202.346105 535.379876 
L 204.19316 534.324767 
L 206.040214 534.338719 
L 207.887269 532.912101 
L 218.969597 528.023463 
L 220.816652 526.464195 
L 222.663707 526.237992 
L 224.510761 525.476581 
L 226.357816 525.023688 
L 228.204871 524.055519 
L 230.051925 523.536643 
L 231.89898 522.186602 
L 233.746035 521.170204 
L 237.440144 520.007907 
L 239.287199 519.166598 
L 241.134254 519.159322 
L 242.981308 518.234261 
L 244.828363 517.788204 
L 246.675418 516.851573 
L 248.522472 516.166436 
L 250.369527 515.827203 
L 254.063636 514.238072 
L 255.910691 513.280415 
L 257.757746 513.048829 
L 259.604801 512.292851 
L 261.451855 511.961463 
L 263.29891 511.36357 
L 265.145965 510.549684 
L 266.993019 510.127876 
L 270.687129 509.028383 
L 274.381238 508.025999 
L 276.228293 507.194002 
L 278.075347 506.838579 
L 279.922402 506.067429 
L 281.769457 505.445068 
L 283.616512 504.55306 
L 285.463566 504.300851 
L 287.310621 503.430659 
L 289.157676 502.235547 
L 291.00473 501.63326 
L 292.851785 501.573299 
L 294.69884 500.973784 
L 296.545894 500.754215 
L 298.392949 499.657219 
L 300.240004 499.183183 
L 302.087059 498.895864 
L 303.934113 498.089198 
L 307.628223 497.00068 
L 309.475277 496.163092 
L 311.322332 495.567084 
L 313.169387 494.843865 
L 315.016441 494.707255 
L 316.863496 494.01087 
L 318.710551 493.640301 
L 320.557606 493.08497 
L 322.40466 492.855946 
L 324.251715 491.973689 
L 326.09877 491.491537 
L 327.945824 491.546762 
L 329.792879 490.503636 
L 331.639934 489.830325 
L 333.486988 489.821073 
L 337.181098 488.594803 
L 340.875207 488.406097 
L 342.722262 487.385504 
L 344.569317 487.049226 
L 350.110481 485.445615 
L 351.957535 485.037137 
L 353.80459 483.547315 
L 355.651645 483.752233 
L 357.498699 483.479937 
L 359.345754 482.455569 
L 364.886918 481.817006 
L 370.428082 480.510794 
L 375.969246 478.77121 
L 377.816301 478.793207 
L 379.663356 477.975615 
L 381.51041 477.666278 
L 383.357465 477.000168 
L 387.051575 475.908383 
L 388.898629 475.963208 
L 390.745684 475.586583 
L 396.286848 474.014539 
L 398.133903 473.754038 
L 399.980957 473.029859 
L 401.828012 472.045094 
L 403.675067 471.801301 
L 405.522122 470.968253 
L 407.369176 470.902454 
L 412.91034 469.797508 
L 414.757395 469.588757 
L 416.60445 468.741384 
L 418.451504 468.809404 
L 420.298559 467.98475 
L 422.145614 467.759143 
L 423.992668 467.057398 
L 425.839723 466.818576 
L 429.533833 465.722742 
L 431.380887 465.317962 
L 433.227942 465.16765 
L 435.074997 464.753377 
L 436.922051 464.511743 
L 440.616161 463.627301 
L 446.157325 462.705922 
L 448.00438 462.092835 
L 455.392598 460.61516 
L 457.239653 459.420714 
L 459.086708 459.436829 
L 462.780817 458.751815 
L 464.627872 458.775995 
L 466.474926 458.371836 
L 468.321981 458.106958 
L 470.169036 457.263722 
L 472.016091 456.59943 
L 473.863145 456.197052 
L 475.7102 456.373092 
L 479.404309 454.720575 
L 481.251364 454.449313 
L 483.098419 454.047004 
L 484.945473 453.942298 
L 486.792528 453.261189 
L 488.639583 453.09513 
L 490.486638 452.151167 
L 492.333692 452.13263 
L 494.180747 451.73075 
L 496.027802 451.615481 
L 497.874856 450.95688 
L 499.721911 450.685407 
L 501.568966 450.138833 
L 503.41602 450.014681 
L 505.263075 448.827925 
L 507.11013 449.132748 
L 508.957185 448.457081 
L 510.804239 448.12805 
L 512.651294 447.109637 
L 514.498349 447.410415 
L 516.345403 446.198793 
L 518.192458 446.619298 
L 520.039513 446.136683 
L 521.886567 445.512444 
L 523.733622 445.216932 
L 525.580677 445.066363 
L 527.427731 444.352005 
L 532.968896 443.417152 
L 534.81595 443.32205 
L 536.663005 443.040712 
L 538.51006 442.364499 
L 540.357114 442.22952 
L 542.204169 441.765909 
L 542.204169 441.765909 
" clip-path="url(#p5c30e6effe)" style="fill: none; stroke: #9467bd; stroke-width: 1.5; stroke-linecap: square"/>
   </g>
   <g id="line2d_88">
    <path d="M 59.291719 777.211702 
L 565.2 777.211702 
" clip-path="url(#p5c30e6effe)" style="fill: none; stroke-dasharray: 5.55,2.4; stroke-dashoffset: 0; stroke: #9467bd; stroke-width: 1.5"/>
   </g>
   <g id="line2d_89">
    <path d="M 82.28755 744.426092 
L 84.134604 729.665288 
L 85.981659 735.279179 
L 87.828714 743.417787 
L 89.675769 744.359643 
L 93.369878 732.045719 
L 95.216933 727.709009 
L 97.063987 721.344628 
L 98.911042 716.89386 
L 100.758097 711.345819 
L 102.605151 706.850832 
L 104.452206 703.482691 
L 106.299261 702.792805 
L 108.146315 700.375944 
L 109.99337 696.561781 
L 111.840425 693.171355 
L 113.68748 691.013021 
L 115.534534 689.931523 
L 117.381589 689.997479 
L 119.228644 687.168814 
L 121.075698 684.782453 
L 122.922753 682.165138 
L 124.769808 680.102651 
L 126.616862 678.372895 
L 128.463917 677.542692 
L 130.310972 676.868624 
L 132.158027 674.685116 
L 135.852136 671.879794 
L 137.699191 671.345731 
L 141.3933 669.559173 
L 143.240355 669.532938 
L 145.087409 667.189714 
L 146.934464 665.793714 
L 148.781519 663.909361 
L 150.628573 664.464307 
L 152.475628 662.854749 
L 154.322683 663.164877 
L 156.169738 662.419538 
L 158.016792 660.939586 
L 159.863847 659.907253 
L 161.710902 658.576833 
L 163.557956 657.441982 
L 165.405011 657.51141 
L 167.252066 656.447189 
L 169.09912 655.019784 
L 170.946175 654.180498 
L 172.79323 653.848311 
L 174.640285 651.494397 
L 176.487339 650.781939 
L 178.334394 650.771807 
L 180.181449 650.217154 
L 182.028503 650.611625 
L 183.875558 648.355813 
L 185.722613 647.062888 
L 187.569667 646.017104 
L 189.416722 644.489736 
L 191.263777 644.156048 
L 193.110831 643.009941 
L 194.957886 642.473532 
L 196.804941 641.490903 
L 198.651996 640.186538 
L 200.49905 640.360311 
L 202.346105 640.075052 
L 204.19316 637.172422 
L 206.040214 636.668611 
L 207.887269 635.839397 
L 209.734324 635.495489 
L 211.581378 635.375049 
L 217.122543 633.13763 
L 218.969597 633.625235 
L 220.816652 631.781498 
L 222.663707 631.473531 
L 224.510761 630.827074 
L 226.357816 629.557636 
L 228.204871 629.730214 
L 230.051925 628.791395 
L 231.89898 628.715465 
L 233.746035 627.961315 
L 235.593089 626.999984 
L 237.440144 627.482625 
L 239.287199 626.542233 
L 241.134254 626.388277 
L 242.981308 625.688255 
L 244.828363 625.276828 
L 246.675418 624.562819 
L 248.522472 624.16819 
L 250.369527 623.430073 
L 254.063636 623.731878 
L 255.910691 623.154341 
L 257.757746 622.030711 
L 259.604801 622.257146 
L 261.451855 622.107053 
L 263.29891 621.722621 
L 265.145965 620.696039 
L 266.993019 621.171104 
L 268.840074 620.245382 
L 270.687129 619.775149 
L 272.534183 619.552887 
L 274.381238 619.921173 
L 278.075347 618.255867 
L 279.922402 618.000462 
L 281.769457 617.471686 
L 283.616512 618.03852 
L 285.463566 617.078577 
L 287.310621 616.437764 
L 289.157676 616.186718 
L 291.00473 615.592738 
L 292.851785 615.844077 
L 294.69884 615.319675 
L 296.545894 615.215908 
L 298.392949 614.581393 
L 300.240004 614.886777 
L 302.087059 614.216844 
L 303.934113 613.762784 
L 305.781168 614.16443 
L 307.628223 613.423525 
L 309.475277 613.037759 
L 311.322332 613.639698 
L 313.169387 613.571896 
L 315.016441 612.241113 
L 316.863496 612.577062 
L 318.710551 611.726031 
L 320.557606 611.747637 
L 322.40466 611.119403 
L 324.251715 611.015151 
L 326.09877 609.818833 
L 327.945824 609.505699 
L 329.792879 608.321401 
L 331.639934 607.435774 
L 333.486988 607.904028 
L 335.334043 609.373622 
L 337.181098 607.480147 
L 339.028152 607.074337 
L 340.875207 606.180483 
L 342.722262 606.454336 
L 344.569317 606.382256 
L 348.263426 606.96238 
L 350.110481 605.987163 
L 351.957535 605.950308 
L 353.80459 605.276644 
L 355.651645 605.193134 
L 357.498699 605.257517 
L 359.345754 605.505258 
L 361.192809 605.280296 
L 363.039864 604.504778 
L 364.886918 604.332625 
L 366.733973 603.753301 
L 368.581028 603.408407 
L 370.428082 603.514877 
L 372.275137 603.227686 
L 375.969246 603.350391 
L 377.816301 602.685799 
L 379.663356 602.376784 
L 383.357465 602.47498 
L 385.20452 602.52971 
L 387.051575 602.258432 
L 388.898629 601.773846 
L 390.745684 601.769384 
L 392.592739 601.427397 
L 394.439793 601.210695 
L 396.286848 601.209032 
L 399.980957 600.555449 
L 403.675067 601.591978 
L 405.522122 600.482521 
L 407.369176 600.495299 
L 409.216231 599.721269 
L 411.063286 599.785078 
L 412.91034 599.467488 
L 416.60445 599.217 
L 418.451504 598.575543 
L 420.298559 599.213369 
L 422.145614 597.65975 
L 423.992668 597.989649 
L 425.839723 598.177503 
L 427.686778 598.609388 
L 429.533833 597.568377 
L 431.380887 597.009898 
L 433.227942 597.053974 
L 435.074997 597.362509 
L 436.922051 596.900731 
L 438.769106 596.957269 
L 440.616161 596.376896 
L 444.31027 596.169853 
L 446.157325 594.630991 
L 448.00438 595.306752 
L 449.851434 596.460394 
L 453.545544 595.774067 
L 455.392598 595.494099 
L 457.239653 596.086314 
L 459.086708 596.118436 
L 460.933762 595.460255 
L 462.780817 596.043009 
L 464.627872 595.447759 
L 466.474926 595.5712 
L 470.169036 595.195552 
L 472.016091 594.650648 
L 473.863145 595.100374 
L 475.7102 594.388963 
L 477.557255 594.740106 
L 479.404309 594.193468 
L 481.251364 594.668836 
L 483.098419 594.524385 
L 484.945473 594.145559 
L 486.792528 594.753783 
L 488.639583 594.447023 
L 490.486638 593.935244 
L 492.333692 593.946447 
L 494.180747 593.822642 
L 496.027802 593.090689 
L 499.721911 593.129759 
L 501.568966 592.926115 
L 503.41602 591.924457 
L 507.11013 591.918202 
L 508.957185 592.08401 
L 510.804239 591.515382 
L 512.651294 592.250585 
L 514.498349 591.583263 
L 516.345403 591.937145 
L 518.192458 590.759145 
L 520.039513 590.977676 
L 525.580677 590.663741 
L 527.427731 590.729097 
L 529.274786 590.430163 
L 531.121841 590.645583 
L 532.968896 590.639685 
L 534.81595 589.795587 
L 536.663005 590.078171 
L 540.357114 590.237486 
L 542.204169 589.741046 
L 542.204169 589.741046 
" clip-path="url(#p5c30e6effe)" style="fill: none; stroke: #8c564b; stroke-width: 1.5; stroke-linecap: square"/>
   </g>
   <g id="line2d_90">
    <path d="M 59.291719 589.87539 
L 565.2 589.87539 
" clip-path="url(#p5c30e6effe)" style="fill: none; stroke-dasharray: 5.55,2.4; stroke-dashoffset: 0; stroke: #8c564b; stroke-width: 1.5"/>
   </g>
   <g id="patch_9">
    <path d="M 59.291719 822.2 
L 59.291719 423.65 
" style="fill: none; stroke: #000000; stroke-width: 0.8; stroke-linejoin: miter; stroke-linecap: square"/>
   </g>
   <g id="patch_10">
    <path d="M 565.2 822.2 
L 565.2 423.65 
" style="fill: none; stroke: #000000; stroke-width: 0.8; stroke-linejoin: miter; stroke-linecap: square"/>
   </g>
   <g id="patch_11">
    <path d="M 59.291719 822.2 
L 565.2 822.2 
" style="fill: none; stroke: #000000; stroke-width: 0.8; stroke-linejoin: miter; stroke-linecap: square"/>
   </g>
   <g id="patch_12">
    <path d="M 59.291719 423.65 
L 565.2 423.65 
" style="fill: none; stroke: #000000; stroke-width: 0.8; stroke-linejoin: miter; stroke-linecap: square"/>
   </g>
   <g id="legend_2">
    <g id="patch_13">
     <path d="M 66.291719 477.725 
L 176.691719 477.725 
Q 178.691719 477.725 178.691719 475.725 
L 178.691719 430.65 
Q 178.691719 428.65 176.691719 428.65 
L 66.291719 428.65 
Q 64.291719 428.65 64.291719 430.65 
L 64.291719 475.725 
Q 64.291719 477.725 66.291719 477.725 
z
" style="fill: #ffffff; opacity: 0.8; stroke: #cccccc; stroke-linejoin: miter"/>
    </g>
    <g id="line2d_91">
     <path d="M 68.291719 436.748438 
L 78.291719 436.748438 
L 88.291719 436.748438 
" style="fill: none; stroke: #1f77b4; stroke-width: 1.5; stroke-linecap: square"/>
    </g>
    <g id="text_19">
     <!-- $\sigma_{x}$ -->
     <g transform="translate(96.291719 440.248438)scale(0.1 -0.1)">
      <use xlink:href="#DejaVuSans-Oblique-3c3" transform="translate(0 0.265625)"/>
      <use xlink:href="#DejaVuSans-Oblique-78" transform="translate(63.378906 -16.140625)scale(0.7)"/>
     </g>
    </g>
    <g id="line2d_92">
     <path d="M 68.291719 451.426563 
L 78.291719 451.426563 
L 88.291719 451.426563 
" style="fill: none; stroke: #ff7f0e; stroke-width: 1.5; stroke-linecap: square"/>
    </g>
    <g id="text_20">
     <!-- $\sigma_{px}$ -->
     <g transform="translate(96.291719 454.926563)scale(0.1 -0.1)">
      <defs>
       <path id="DejaVuSans-Oblique-70" d="M 3175 2156 
Q 3175 2616 2975 2859 
Q 2775 3103 2400 3103 
Q 2144 3103 1911 2972 
Q 1678 2841 1497 2591 
Q 1319 2344 1212 1994 
Q 1106 1644 1106 1300 
Q 1106 863 1306 627 
Q 1506 391 1875 391 
Q 2147 391 2380 519 
Q 2613 647 2778 891 
Q 2956 1147 3065 1494 
Q 3175 1841 3175 2156 
z
M 1394 2969 
Q 1625 3272 1939 3428 
Q 2253 3584 2638 3584 
Q 3175 3584 3472 3232 
Q 3769 2881 3769 2247 
Q 3769 1728 3584 1258 
Q 3400 788 3053 416 
Q 2822 169 2531 39 
Q 2241 -91 1919 -91 
Q 1547 -91 1294 64 
Q 1041 219 916 525 
L 556 -1331 
L -19 -1331 
L 922 3500 
L 1497 3500 
L 1394 2969 
z
" transform="scale(0.015625)"/>
      </defs>
      <use xlink:href="#DejaVuSans-Oblique-3c3" transform="translate(0 0.265625)"/>
      <use xlink:href="#DejaVuSans-Oblique-70" transform="translate(63.378906 -16.140625)scale(0.7)"/>
      <use xlink:href="#DejaVuSans-Oblique-78" transform="translate(107.8125 -16.140625)scale(0.7)"/>
     </g>
    </g>
    <g id="line2d_93">
     <path d="M 68.291719 467.125 
L 78.291719 467.125 
L 88.291719 467.125 
" style="fill: none; stroke: #2ca02c; stroke-width: 1.5; stroke-linecap: square"/>
    </g>
    <g id="text_21">
     <!-- $\sigma_{y}$ -->
     <g transform="translate(96.291719 470.625)scale(0.1 -0.1)">
      <use xlink:href="#DejaVuSans-Oblique-3c3" transform="translate(0 0.265625)"/>
      <use xlink:href="#DejaVuSans-Oblique-79" transform="translate(63.378906 -16.140625)scale(0.7)"/>
     </g>
    </g>
    <g id="line2d_94">
     <path d="M 131.491719 436.748438 
L 141.491719 436.748438 
L 151.491719 436.748438 
" style="fill: none; stroke: #d62728; stroke-width: 1.5; stroke-linecap: square"/>
    </g>
    <g id="text_22">
     <!-- $\sigma_{py}$ -->
     <g transform="translate(159.491719 440.248438)scale(0.1 -0.1)">
      <use xlink:href="#DejaVuSans-Oblique-3c3" transform="translate(0 0.265625)"/>
      <use xlink:href="#DejaVuSans-Oblique-70" transform="translate(63.378906 -16.140625)scale(0.7)"/>
      <use xlink:href="#DejaVuSans-Oblique-79" transform="translate(107.8125 -16.140625)scale(0.7)"/>
     </g>
    </g>
    <g id="line2d_95">
     <path d="M 131.491719 452.446875 
L 141.491719 452.446875 
L 151.491719 452.446875 
" style="fill: none; stroke: #9467bd; stroke-width: 1.5; stroke-linecap: square"/>
    </g>
    <g id="text_23">
     <!-- $\sigma_{z}$ -->
     <g transform="translate(159.491719 455.946875)scale(0.1 -0.1)">
      <use xlink:href="#DejaVuSans-Oblique-3c3" transform="translate(0 0.265625)"/>
      <use xlink:href="#DejaVuSans-Oblique-7a" transform="translate(63.378906 -16.140625)scale(0.7)"/>
     </g>
    </g>
    <g id="line2d_96">
     <path d="M 131.491719 467.125 
L 141.491719 467.125 
L 151.491719 467.125 
" style="fill: none; stroke: #8c564b; stroke-width: 1.5; stroke-linecap: square"/>
    </g>
    <g id="text_24">
     <!-- $\sigma_{pz}$ -->
     <g transform="translate(159.491719 470.625)scale(0.1 -0.1)">
      <use xlink:href="#DejaVuSans-Oblique-3c3" transform="translate(0 0.265625)"/>
      <use xlink:href="#DejaVuSans-Oblique-70" transform="translate(63.378906 -16.140625)scale(0.7)"/>
      <use xlink:href="#DejaVuSans-Oblique-7a" transform="translate(107.8125 -16.140625)scale(0.7)"/>
     </g>
    </g>
   </g>
  </g>
 </g>
 <defs>
  <clipPath id="pf1ececf2d4">
   <rect x="59.291719" y="10.8" width="505.908281" height="398.55"/>
  </clipPath>
  <clipPath id="p5c30e6effe">
   <rect x="59.291719" y="423.65" width="505.908281" height="398.55"/>
  </clipPath>
 </defs>
</svg>
